<svg width="29" height="29" viewBox="0 0 29 29" fill="none" xmlns="http://www.w3.org/2000/svg">
<path fill-rule="evenodd" clip-rule="evenodd" d="M13.6037 0.00360048C13.0579 0.0321323 12.7159 0.0616255 12.3004 0.116017C10.0089 0.415954 7.8034 1.30467 5.9151 2.689C3.71103 4.30485 1.99246 6.55115 0.997303 9.11699C0.0983692 11.4347 -0.199216 13.9514 0.130378 16.4486C0.305098 17.7723 0.661544 19.0685 1.1929 20.3124C1.32952 20.6322 1.67042 21.3246 1.84384 21.6345C2.9497 23.611 4.43571 25.2443 6.28243 26.5132C7.25123 27.1788 8.32691 27.73 9.45253 28.1374C9.65425 28.2104 9.68627 28.218 9.8257 28.2256C10.224 28.2476 10.5103 28.0625 10.5973 27.727C10.6222 27.631 10.6253 27.092 10.609 25.6491L10.5998 24.8285L10.3688 24.8667C9.58422 24.9967 8.84201 25.021 8.25649 24.9359C7.0399 24.759 6.24676 24.1654 5.86675 23.1472C5.77068 22.8897 5.49856 22.378 5.27664 22.0373C5.00663 21.6228 4.67089 21.2424 4.46013 21.1122C4.20987 20.9575 4.06845 20.8518 3.94868 20.7298C3.80726 20.5858 3.74989 20.4865 3.74989 20.3857C3.74989 20.3323 3.75739 20.3155 3.80161 20.2704C3.90195 20.1682 4.08157 20.1253 4.41186 20.1248C4.73185 20.1243 4.98101 20.1863 5.28071 20.3408C5.75336 20.5845 6.22653 21.0542 6.58379 21.6343C6.79048 21.9699 6.97984 22.2134 7.19483 22.4198C7.88958 23.087 8.77269 23.3129 9.81809 23.0909C10.0446 23.0428 10.4375 22.9118 10.6113 22.8264L10.6778 22.7937L10.7023 22.6436C10.81 21.9846 11.0748 21.394 11.4339 21.0118C11.5857 20.8502 11.5858 20.8583 11.4316 20.8424C11.26 20.8247 10.7748 20.7487 10.5213 20.6999C9.17826 20.4412 8.16776 20.0108 7.3149 19.334C7.10152 19.1647 6.67419 18.7289 6.49964 18.5026C5.57908 17.3091 5.12419 15.6496 5.16089 13.6184C5.17363 12.9125 5.25147 12.4232 5.44606 11.8256C5.67764 11.1144 6.007 10.5332 6.5519 9.8744L6.59583 9.82129L6.5386 9.64111C6.23516 8.68605 6.24185 7.60331 6.55782 6.52962C6.62667 6.29565 6.72871 6.00756 6.74877 5.9905C6.80158 5.94557 7.19294 5.94554 7.47135 5.99046C8.27646 6.12035 9.30535 6.58706 10.4054 7.32138C10.5199 7.3978 10.6231 7.46032 10.6347 7.46032C10.6463 7.46032 10.7761 7.42885 10.923 7.39038C12.8111 6.89616 14.8877 6.84864 16.8239 7.25536C17.055 7.30391 17.4933 7.41133 17.6237 7.4514L17.6856 7.47045L17.8443 7.36182C18.7858 6.71751 19.7148 6.25816 20.4734 6.06191C20.7776 5.9832 20.9694 5.95709 21.2371 5.95794C21.5842 5.95903 21.5582 5.94525 21.6387 6.16999C22.0653 7.35971 22.1098 8.59477 21.765 9.66987C21.7215 9.80547 21.7184 9.82493 21.7364 9.8466C21.9831 10.1436 22.1255 10.3333 22.2603 10.5444C22.7268 11.275 22.9969 12.031 23.1133 12.932C23.1697 13.3683 23.1658 14.2641 23.105 14.8831C22.9515 16.444 22.4971 17.6719 21.7253 18.6118C21.5915 18.7747 21.2768 19.0963 21.1221 19.2282C20.1265 20.0769 18.8138 20.5871 17.0239 20.8212C16.8949 20.838 16.7749 20.8548 16.7572 20.8584C16.728 20.8643 16.7378 20.8786 16.8624 21.0112C17.2361 21.409 17.5063 22.0286 17.6094 22.7242C17.6684 23.1228 17.6696 23.1846 17.6612 25.4495C17.6534 27.5465 17.6539 27.6136 17.6795 27.7163C17.7306 27.9212 17.8489 28.0776 18.0126 28.1567C18.1261 28.2116 18.217 28.23 18.3742 28.23C18.5466 28.23 18.6007 28.2178 18.8805 28.1157C21.1644 27.2825 23.2319 25.8203 24.8373 23.903C26.0469 22.4583 26.9713 20.7756 27.5438 18.9763C27.9172 17.8025 28.1326 16.6436 28.2178 15.3497C28.2404 15.008 28.2404 13.9192 28.2179 13.5894C28.1347 12.3712 27.9541 11.3411 27.634 10.2598C27.1138 8.50219 26.2572 6.84039 25.1343 5.41022C23.5988 3.45442 21.6125 1.94639 19.3546 1.02219C17.997 0.466486 16.6202 0.145482 15.0989 0.0299408C14.8361 0.00999114 13.823 -0.00786597 13.6037 0.00360048Z" fill="currentColor"/>
</svg>
