<svg width="680" height="198" viewBox="0 0 680 198" fill="none" xmlns="http://www.w3.org/2000/svg">
<path d="M3.1156 167.082V2.95421H676.247L637.111 163.894C637.001 164.346 636.336 164.266 636.336 163.801V2.95421" stroke="currentColor" stroke-width="5.09648" stroke-linecap="round"/>
<path d="M676.247 2.95421H636.336V167.082L676.247 2.95421Z" fill="currentColor"/>
<path d="M83.7522 74.4762C82.9436 74.4762 82.1111 74.3573 81.2549 74.1195C80.4463 73.8341 79.709 73.2871 79.0431 72.4784V72.9065C79.0431 75.5703 78.6387 78.0438 77.8301 80.327C77.0214 82.6102 75.8561 84.5843 74.3339 86.2491C72.8118 87.9615 70.9566 89.2934 68.7686 90.2447C66.5805 91.2436 64.107 91.7431 61.3481 91.7431H56.6389C51.3114 91.7431 47.1731 90.102 44.2239 86.8199C41.2748 83.5378 39.8002 79.0427 39.8002 73.3346V60.3488H48.7904V72.9065C48.7904 74.286 48.9331 75.5227 49.2185 76.6168C49.5039 77.7584 49.9796 78.7097 50.6455 79.4708C51.359 80.2794 52.2866 80.8978 53.4282 81.3259C54.6173 81.754 56.0919 81.9681 57.8519 81.9681H60.9913C62.8465 81.9681 64.3686 81.7064 65.5578 81.1832C66.7945 80.7075 67.7697 80.0178 68.4832 79.114C69.1967 78.2578 69.6961 77.2589 69.9815 76.1173C70.2669 74.9757 70.4096 73.7627 70.4096 72.4784V53.2851H79.3998V60.7056C79.3998 62.085 79.8279 63.1077 80.6841 63.7736C81.5403 64.392 82.563 64.7012 83.7522 64.7012H84.5371C85.5835 64.7012 86.1068 66.2709 86.1068 69.4103C86.1068 72.7876 85.5835 74.4762 84.5371 74.4762H83.7522ZM62.9178 52.5002H53.4995V43.8668H62.9178V52.5002ZM89.2389 64.7012C90.6184 64.7012 91.6173 64.392 92.2357 63.7736C92.854 63.1077 93.1632 62.085 93.1632 60.7056V53.2851H102.225V60.7056C102.225 62.085 102.653 63.1077 103.509 63.7736C104.365 64.392 105.483 64.7012 106.863 64.7012H108.432C109.526 64.7012 110.073 66.2709 110.073 69.4103C110.073 72.7876 109.526 74.4762 108.432 74.4762H106.506C104.698 74.4762 103.033 74.2146 101.511 73.6914C100.037 73.1206 98.7048 71.9314 97.5156 70.1239C96.2789 71.9314 94.9708 73.1206 93.5913 73.6914C92.2595 74.2146 90.8087 74.4762 89.2389 74.4762H84.5298C83.9114 74.4762 83.5071 74.0957 83.3168 73.3346C83.079 72.526 82.9601 71.3368 82.9601 69.7671C82.9601 67.9595 83.079 66.6752 83.3168 65.9142C83.5071 65.1055 83.9114 64.7012 84.5298 64.7012H89.2389ZM106.434 90.5301H97.801V82.2535H106.434V90.5301ZM95.4465 90.5301H86.813V82.2535H95.4465V90.5301ZM111.997 64.7012C114.613 64.7012 115.921 63.3693 115.921 60.7056V53.2851H124.911V60.7056C124.911 62.085 125.316 63.1077 126.124 63.7736C126.981 64.392 128.003 64.7012 129.193 64.7012C130.762 64.7012 131.88 64.392 132.546 63.7736C133.212 63.1077 133.545 62.085 133.545 60.7056V53.2851H142.606V60.7056C142.606 62.085 142.939 63.1077 143.605 63.7736C144.319 64.392 145.151 64.7012 146.103 64.7012C148.433 64.7012 149.599 63.3693 149.599 60.7056V53.2851H158.66V61.4904C158.66 65.819 157.614 69.0774 155.521 71.2655C153.428 73.406 150.407 74.4762 146.459 74.4762C144.937 74.4762 143.415 74.2146 141.893 73.6914C140.418 73.1206 139.086 71.9314 137.897 70.1239C136.708 71.9314 135.352 73.1206 133.83 73.6914C132.308 74.2146 130.762 74.4762 129.193 74.4762C127.433 74.4762 125.791 74.2146 124.269 73.6914C122.747 73.1206 121.392 71.9314 120.202 70.1239C119.013 71.9314 117.729 73.1206 116.349 73.6914C115.018 74.2146 113.567 74.4762 111.997 74.4762H108.429C107.811 74.4762 107.407 74.0957 107.217 73.3346C106.979 72.526 106.86 71.3368 106.86 69.7671C106.86 67.9595 106.979 66.6752 107.217 65.9142C107.407 65.1055 107.811 64.7012 108.429 64.7012H111.997ZM142.25 34.4485H133.545V26.2432H142.25V34.4485ZM147.672 45.4365H139.039V37.1599H147.672V45.4365ZM136.684 45.4365H128.051V37.1599H136.684V45.4365ZM176.705 74.4762C175.326 74.4762 174.018 74.3098 172.781 73.9768C171.544 73.5963 170.45 72.9779 169.499 72.1217C168.595 71.2655 167.858 70.1476 167.287 68.7682C166.764 67.3412 166.502 65.5812 166.502 63.4882V30.2388H175.564V61.1337C175.564 63.512 176.61 64.7012 178.703 64.7012H180.63C181.676 64.7012 182.199 66.2709 182.199 69.4103C182.199 72.7876 181.676 74.4762 180.63 74.4762H176.705ZM180.973 64.7012C182.4 64.7012 183.542 64.4634 184.398 63.9877C185.254 63.4645 185.682 62.5131 185.682 61.1337V60.3488C185.682 58.4937 185.968 56.7813 186.538 55.2116C187.109 53.5943 187.918 52.2148 188.964 51.0732C190.011 49.9316 191.295 49.0278 192.817 48.3619C194.339 47.696 196.028 47.363 197.883 47.363C199.833 47.363 201.57 47.696 203.092 48.3619C204.614 49.0278 205.874 49.9554 206.873 51.1446C207.92 52.2862 208.705 53.6894 209.228 55.3543C209.799 56.9715 210.084 58.7553 210.084 60.7056C210.084 65.0817 208.966 68.4828 206.731 70.9087C204.543 73.2871 201.593 74.4762 197.883 74.4762C196.028 74.4762 194.22 74.0957 192.46 73.3346C190.748 72.5736 189.488 71.5033 188.679 70.1239C187.775 71.7411 186.61 72.8827 185.183 73.5487C183.756 74.1671 182.352 74.4762 180.973 74.4762H180.616C179.998 74.4762 179.594 74.0957 179.403 73.3346C179.165 72.526 179.047 71.3368 179.047 69.7671C179.047 67.9595 179.165 66.6752 179.403 65.9142C179.594 65.1055 179.998 64.7012 180.616 64.7012H180.973ZM201.379 61.1337C201.379 60.1348 201.141 59.231 200.666 58.4223C200.19 57.6137 199.263 57.2094 197.883 57.2094C196.504 57.2094 195.576 57.6137 195.1 58.4223C194.625 59.231 194.387 60.1348 194.387 61.1337C194.387 63.512 195.552 64.7012 197.883 64.7012C200.214 64.7012 201.379 63.512 201.379 61.1337ZM248.166 81.9681C251.924 81.9681 254.683 81.4924 256.443 80.541C258.25 79.6373 259.154 78.4005 259.154 76.8308C259.154 75.2611 258.369 74.4762 256.799 74.4762H244.598V59.9207C244.598 58.0656 244.884 56.3532 245.455 54.7835C246.025 53.2137 246.858 51.8581 247.952 50.7165C249.046 49.5273 250.378 48.6235 251.947 48.0052C253.517 47.3392 255.277 47.0062 257.227 47.0062H265.433L265.789 56.7813H257.227C254.849 56.7813 253.66 57.9705 253.66 60.3488V64.7012H258.369C262.079 64.7012 264.624 65.6288 266.003 67.4839C267.431 69.339 268.144 71.9314 268.144 75.2611C268.144 77.6395 267.668 79.8275 266.717 81.8254C265.813 83.8232 264.529 85.5594 262.864 87.034C261.199 88.5085 259.201 89.6501 256.871 90.4588C254.587 91.315 252.09 91.7431 249.379 91.7431H243.029C237.701 91.7431 233.563 90.102 230.614 86.8199C227.664 83.5378 226.19 79.0427 226.19 73.3346V60.3488H235.18V72.9065C235.18 74.286 235.323 75.5227 235.608 76.6168C235.894 77.7584 236.369 78.7097 237.035 79.4708C237.749 80.2794 238.676 80.8978 239.818 81.3259C241.007 81.754 242.482 81.9681 244.242 81.9681H248.166ZM289.306 60.7056C289.306 62.085 289.71 63.1077 290.519 63.7736C291.375 64.392 292.397 64.7012 293.587 64.7012H294.372C295.418 64.7012 295.941 66.2709 295.941 69.4103C295.941 72.7876 295.418 74.4762 294.372 74.4762H293.587C292.778 74.4762 291.946 74.3573 291.089 74.1195C290.281 73.8341 289.543 73.2871 288.878 72.4784V73.3346C288.878 75.7606 288.449 78.0913 287.593 80.327C286.785 82.5626 285.619 84.5129 284.097 86.1777C282.622 87.8902 280.839 89.2458 278.746 90.2447C276.7 91.2436 274.441 91.7431 271.967 91.7431H270.184L269.47 81.9681H270.398C272.158 81.9681 273.656 81.7064 274.893 81.1832C276.177 80.7075 277.2 80.0654 277.961 79.2567C278.769 78.4481 279.34 77.5205 279.673 76.4741C280.054 75.4752 280.244 74.4287 280.244 73.3346V53.2851H289.306V60.7056ZM299.11 64.7012C300.49 64.7012 301.489 64.392 302.107 63.7736C302.725 63.1077 303.034 62.085 303.034 60.7056V53.2851H312.096V60.7056C312.096 62.085 312.524 63.1077 313.38 63.7736C314.237 64.392 315.354 64.7012 316.734 64.7012H318.303C319.398 64.7012 319.945 66.2709 319.945 69.4103C319.945 72.7876 319.398 74.4762 318.303 74.4762H316.377C314.569 74.4762 312.905 74.2146 311.382 73.6914C309.908 73.1206 308.576 71.9314 307.387 70.1239C306.15 71.9314 304.842 73.1206 303.463 73.6914C302.131 74.2146 300.68 74.4762 299.11 74.4762H294.401C293.783 74.4762 293.378 74.0957 293.188 73.3346C292.95 72.526 292.831 71.3368 292.831 69.7671C292.831 67.9595 292.95 66.6752 293.188 65.9142C293.378 65.1055 293.783 64.7012 294.401 64.7012H299.11ZM316.306 90.5301H307.672V82.2535H316.306V90.5301ZM305.318 90.5301H296.684V82.2535H305.318V90.5301ZM322.939 25.8151L344.486 17.9665L345.699 24.2454L323.367 32.5221L322.939 25.8151ZM335.211 64.7012C335.972 64.7012 336.471 64.5347 336.709 64.2017C336.995 63.8688 337.137 63.512 337.137 63.1315C337.137 62.5131 337.018 61.9661 336.781 61.4904C336.59 61.0148 336.186 60.4915 335.568 59.9207L323.367 47.7911V37.588L346.984 28.9545L348.91 37.9447L332.071 43.8668L341.062 52.9283C342.203 54.1175 343.155 55.2116 343.916 56.2105C344.677 57.2094 345.271 58.1845 345.699 59.1359C346.175 60.0396 346.508 60.9434 346.698 61.8472C346.889 62.751 346.984 63.7023 346.984 64.7012C346.984 66.4612 346.698 67.9595 346.127 69.1963C345.557 70.433 344.796 71.4557 343.844 72.2644C342.893 73.0254 341.775 73.5963 340.491 73.9768C339.206 74.3098 337.827 74.4762 336.352 74.4762H318.301C317.682 74.4762 317.278 74.0957 317.088 73.3346C316.85 72.526 316.731 71.3368 316.731 69.7671C316.731 67.9595 316.85 66.6752 317.088 65.9142C317.278 65.1055 317.682 64.7012 318.301 64.7012H335.211ZM378.747 56.0678C380.079 57.5899 381.054 59.1121 381.672 60.6342C382.338 62.1564 382.671 63.6309 382.671 65.058C382.671 66.3423 382.433 67.5552 381.958 68.6968C381.53 69.8384 380.84 70.8374 379.889 71.6936C378.985 72.5498 377.843 73.2395 376.464 73.7627C375.084 74.2384 373.491 74.4762 371.683 74.4762H353.203L352.847 64.7012H370.114C371.35 64.7012 371.969 64.2493 371.969 63.3455C371.969 62.8699 371.731 62.3942 371.255 61.9185L359.91 48.9327L366.974 42.2971L378.747 56.0678ZM400.303 74.4762C398.924 74.4762 397.616 74.3098 396.379 73.9768C395.142 73.5963 394.048 72.9779 393.097 72.1217C392.193 71.2655 391.456 70.1476 390.885 68.7682C390.362 67.3412 390.1 65.5812 390.1 63.4882V30.2388H399.162V61.1337C399.162 63.512 400.208 64.7012 402.301 64.7012H404.228C405.274 64.7012 405.797 66.2709 405.797 69.4103C405.797 72.7876 405.274 74.4762 404.228 74.4762H400.303ZM410.921 64.7012C412.301 64.7012 413.276 64.392 413.846 63.7736C414.465 63.1077 414.774 62.085 414.774 60.7056V53.2851H423.836V61.4904C423.836 65.819 422.789 69.0774 420.696 71.2655C418.651 73.406 415.654 74.4762 411.706 74.4762H404.214C403.596 74.4762 403.191 74.0957 403.001 73.3346C402.763 72.526 402.644 71.3368 402.644 69.7671C402.644 67.9595 402.763 66.6752 403.001 65.9142C403.191 65.1055 403.596 64.7012 404.214 64.7012H410.921ZM423.407 90.5301H414.774V82.2535H423.407V90.5301ZM412.419 90.5301H403.786V82.2535H412.419V90.5301ZM461.939 81.9681C465.697 81.9681 468.456 81.4924 470.216 80.541C472.023 79.6373 472.927 78.4005 472.927 76.8308C472.927 75.2611 472.142 74.4762 470.572 74.4762H458.372V59.9207C458.372 58.0656 458.657 56.3532 459.228 54.7835C459.799 53.2137 460.631 51.8581 461.725 50.7165C462.819 49.5273 464.151 48.6235 465.721 48.0052C467.29 47.3392 469.05 47.0062 471.001 47.0062H479.206L479.563 56.7813H471.001C468.622 56.7813 467.433 57.9705 467.433 60.3488V64.7012H472.142C475.852 64.7012 478.397 65.6288 479.777 67.4839C481.204 69.339 481.917 71.9314 481.917 75.2611C481.917 77.6395 481.442 79.8275 480.49 81.8254C479.586 83.8232 478.302 85.5594 476.637 87.034C474.972 88.5085 472.975 89.6501 470.644 90.4588C468.361 91.315 465.863 91.7431 463.152 91.7431H456.802C451.474 91.7431 447.336 90.102 444.387 86.8199C441.438 83.5378 439.963 79.0427 439.963 73.3346V60.3488H448.953V72.9065C448.953 74.286 449.096 75.5227 449.381 76.6168C449.667 77.7584 450.142 78.7097 450.808 79.4708C451.522 80.2794 452.449 80.8978 453.591 81.3259C454.78 81.754 456.255 81.9681 458.015 81.9681H461.939ZM499.525 74.4762C498.146 74.4762 496.838 74.3098 495.601 73.9768C494.364 73.5963 493.27 72.9779 492.319 72.1217C491.415 71.2655 490.678 70.1476 490.107 68.7682C489.584 67.3412 489.322 65.5812 489.322 63.4882V30.2388H498.384V61.1337C498.384 63.512 499.43 64.7012 501.523 64.7012H503.45C504.496 64.7012 505.019 66.2709 505.019 69.4103C505.019 72.7876 504.496 74.4762 503.45 74.4762H499.525ZM508.145 64.7012C509.525 64.7012 510.524 64.392 511.142 63.7736C511.76 63.1077 512.07 62.085 512.07 60.7056V53.2851H521.131V60.7056C521.131 62.085 521.559 63.1077 522.415 63.7736C523.272 64.392 524.389 64.7012 525.769 64.7012H527.339C528.433 64.7012 528.98 66.2709 528.98 69.4103C528.98 72.7876 528.433 74.4762 527.339 74.4762H525.412C523.605 74.4762 521.94 74.2146 520.418 73.6914C518.943 73.1206 517.611 71.9314 516.422 70.1239C515.185 71.9314 513.877 73.1206 512.498 73.6914C511.166 74.2146 509.715 74.4762 508.145 74.4762H503.436C502.818 74.4762 502.413 74.0957 502.223 73.3346C501.985 72.526 501.866 71.3368 501.866 69.7671C501.866 67.9595 501.985 66.6752 502.223 65.9142C502.413 65.1055 502.818 64.7012 503.436 64.7012H508.145ZM519.49 90.8869H510.072V82.2535H519.49V90.8869ZM535.184 64.7012C533.995 63.0839 533.234 61.6569 532.901 60.4202C532.568 59.1359 532.402 57.804 532.402 56.4245C532.402 54.8548 532.711 53.3327 533.329 51.8581C533.948 50.3835 534.828 49.0992 535.969 48.0052C537.111 46.8635 538.467 45.9598 540.036 45.2938C541.654 44.5803 543.437 44.2236 545.388 44.2236C547.338 44.2236 549.05 44.5803 550.525 45.2938C551.999 46.0073 553.212 46.9349 554.164 48.0765C555.163 49.2181 555.9 50.5024 556.376 51.9294C556.899 53.3089 557.16 54.6883 557.16 56.0678C557.16 58.018 556.899 59.6591 556.376 60.991C555.9 62.2753 555.258 63.512 554.449 64.7012H562.298C563.344 64.7012 563.867 66.2709 563.867 69.4103C563.867 72.7876 563.344 74.4762 562.298 74.4762H555.591C553.403 74.4762 551.452 74.3811 549.74 74.1908C548.028 73.953 546.696 73.5249 545.744 72.9065C545.078 73.2871 544.246 73.5963 543.247 73.8341C542.296 74.0244 541.297 74.1671 540.25 74.2622C539.251 74.3573 538.252 74.4287 537.254 74.4762C536.302 74.4762 535.494 74.4762 534.828 74.4762H527.336C526.717 74.4762 526.313 74.0957 526.123 73.3346C525.885 72.526 525.766 71.3368 525.766 69.7671C525.766 67.9595 525.885 66.6752 526.123 65.9142C526.313 65.1055 526.717 64.7012 527.336 64.7012H535.184ZM544.817 54.07C543.723 54.07 542.819 54.4267 542.105 55.1402C541.439 55.8537 541.106 56.8051 541.106 57.9942C541.106 58.9456 541.416 59.8969 542.034 60.8483C542.652 61.7996 543.651 62.6796 545.031 63.4882C546.41 62.6796 547.338 61.7996 547.813 60.8483C548.289 59.8969 548.527 58.9456 548.527 57.9942C548.527 56.8051 548.17 55.8537 547.457 55.1402C546.791 54.4267 545.911 54.07 544.817 54.07ZM549.74 39.5144H540.322V30.881H549.74V39.5144ZM563.884 64.7012C565.263 64.7012 566.262 64.392 566.881 63.7736C567.499 63.1077 567.808 62.085 567.808 60.7056V30.2388H576.87V61.4904C576.87 65.819 575.823 69.0774 573.73 71.2655C571.637 73.406 568.617 74.4762 564.669 74.4762H562.314C561.696 74.4762 561.292 74.0957 561.101 73.3346C560.864 72.526 560.745 71.3368 560.745 69.7671C560.745 67.9595 560.864 66.6752 561.101 65.9142C561.292 65.1055 561.696 64.7012 562.314 64.7012H563.884ZM585.409 30.2388H594.47V74.4762H585.409V30.2388Z" fill="currentColor"/>
<path d="M89.1748 105.045V150.923H86.8203V110.539V109.112L68.0551 142.005C67.8648 142.195 67.6745 142.361 67.4842 142.504C67.3415 142.647 67.1751 142.718 66.9848 142.718H66.4853C66.2475 142.718 66.0335 142.647 65.8432 142.504C65.6529 142.361 65.4626 142.195 65.2724 142.005L46.0077 109.041C46.1028 109.326 46.1504 109.611 46.1504 109.897C46.1504 110.135 46.1504 110.349 46.1504 110.539V150.923H43.7245V105.045H45.5796C45.8174 105.045 46.0077 105.069 46.1504 105.116C46.3407 105.164 46.5072 105.307 46.6499 105.544L66.0572 138.294C66.2951 138.865 66.4853 139.388 66.628 139.864C66.8183 139.626 66.961 139.365 67.0561 139.079C67.1513 138.794 67.294 138.508 67.4842 138.223L86.2495 105.544C86.3922 105.307 86.5349 105.164 86.6776 105.116C86.8678 105.069 87.1057 105.045 87.3911 105.045H89.1748ZM149.891 148.64V150.923H124.705V105.045H127.416V148.64H149.891ZM236.792 130.089H249.278V146.357C246.995 147.974 244.545 149.235 241.929 150.139C239.313 150.995 236.34 151.423 233.01 151.423C229.347 151.423 226.041 150.876 223.092 149.782C220.191 148.688 217.693 147.142 215.6 145.144C213.555 143.099 211.985 140.625 210.891 137.723C209.797 134.822 209.25 131.564 209.25 127.948C209.25 124.333 209.797 121.075 210.891 118.173C211.985 115.272 213.531 112.822 215.529 110.824C217.527 108.779 219.953 107.233 222.807 106.187C225.661 105.092 228.872 104.545 232.439 104.545C236.007 104.545 239.027 105.021 241.501 105.972C244.022 106.876 246.305 108.256 248.35 110.111L247.494 111.252C247.351 111.633 247.042 111.752 246.567 111.609C246.234 111.466 245.758 111.157 245.14 110.682C244.521 110.158 243.665 109.611 242.571 109.041C241.477 108.47 240.097 107.97 238.433 107.542C236.815 107.066 234.817 106.829 232.439 106.829C229.347 106.829 226.541 107.304 224.02 108.256C221.499 109.207 219.334 110.586 217.527 112.394C215.767 114.202 214.411 116.413 213.46 119.03C212.509 121.646 212.033 124.619 212.033 127.948C212.033 131.326 212.509 134.346 213.46 137.01C214.411 139.626 215.791 141.838 217.598 143.646C219.406 145.453 221.594 146.856 224.162 147.855C226.779 148.807 229.704 149.282 232.939 149.282C235.84 149.282 238.337 148.926 240.43 148.212C242.571 147.499 244.688 146.523 246.781 145.287V132.158H237.576C237.053 132.158 236.792 131.944 236.792 131.516V130.089ZM283.715 104.117V150.923H281.075V104.117H283.715ZM329.25 117.745C331.581 117.745 333.65 118.15 335.458 118.958C337.313 119.767 338.859 120.909 340.096 122.383C341.38 123.81 342.355 125.57 343.021 127.663C343.687 129.708 344.02 132.015 344.02 134.584C344.02 137.153 343.687 139.483 343.021 141.576C342.355 143.622 341.38 145.382 340.096 146.856C338.859 148.283 337.313 149.401 335.458 150.21C333.65 150.971 331.581 151.351 329.25 151.351C324.589 151.351 320.974 149.853 318.405 146.856C315.884 143.812 314.623 139.721 314.623 134.584C314.623 132.015 314.933 129.708 315.551 127.663C316.217 125.57 317.168 123.81 318.405 122.383C319.689 120.909 321.235 119.767 323.043 118.958C324.85 118.15 326.919 117.745 329.25 117.745ZM329.25 149.282C333.293 149.282 336.338 147.95 338.383 145.287C340.429 142.575 341.451 139.008 341.451 134.584C341.451 130.065 340.429 126.474 338.383 123.81C336.338 121.099 333.293 119.743 329.25 119.743C325.159 119.743 322.115 121.099 320.117 123.81C318.167 126.474 317.192 130.065 317.192 134.584C317.192 139.008 318.167 142.575 320.117 145.287C322.115 147.95 325.159 149.282 329.25 149.282ZM392.161 122.026C392.066 122.169 391.971 122.288 391.876 122.383C391.828 122.431 391.71 122.454 391.519 122.454C391.281 122.454 390.972 122.312 390.592 122.026C390.211 121.741 389.712 121.432 389.093 121.099C388.475 120.766 387.69 120.457 386.739 120.171C385.835 119.886 384.717 119.743 383.385 119.743C380.864 119.743 378.866 120.409 377.392 121.741C375.917 123.025 375.18 124.547 375.18 126.307C375.18 127.734 375.632 128.852 376.536 129.661C377.439 130.47 378.557 131.159 379.889 131.73C381.269 132.253 382.743 132.729 384.313 133.157C385.93 133.585 387.405 134.132 388.737 134.798C390.116 135.464 391.258 136.32 392.161 137.367C393.065 138.413 393.517 139.816 393.517 141.576C393.517 142.956 393.256 144.24 392.732 145.429C392.257 146.619 391.543 147.665 390.592 148.569C389.64 149.425 388.451 150.115 387.024 150.638C385.645 151.161 384.051 151.423 382.244 151.423C379.961 151.423 378.01 151.09 376.393 150.424C374.776 149.71 373.301 148.735 371.969 147.499L372.611 146.571C372.707 146.476 372.802 146.404 372.897 146.357C372.992 146.262 373.158 146.214 373.396 146.214C373.634 146.214 373.943 146.381 374.324 146.714C374.752 147.047 375.299 147.427 375.965 147.855C376.678 148.283 377.535 148.664 378.533 148.997C379.58 149.33 380.864 149.496 382.386 149.496C385.288 149.496 387.452 148.783 388.879 147.356C390.354 145.881 391.091 144.074 391.091 141.933C391.091 140.411 390.639 139.222 389.736 138.366C388.832 137.509 387.69 136.82 386.311 136.296C384.931 135.726 383.457 135.226 381.887 134.798C380.317 134.37 378.843 133.847 377.463 133.228C376.084 132.562 374.942 131.73 374.038 130.731C373.135 129.685 372.683 128.258 372.683 126.45C372.683 125.308 372.921 124.214 373.396 123.168C373.919 122.121 374.633 121.194 375.537 120.385C376.488 119.577 377.606 118.934 378.89 118.459C380.222 117.983 381.72 117.745 383.385 117.745C385.336 117.745 387.048 118.031 388.523 118.602C390.045 119.172 391.448 120.005 392.732 121.099L392.161 122.026ZM441.508 122.026C441.413 122.169 441.317 122.288 441.222 122.383C441.175 122.431 441.056 122.454 440.866 122.454C440.628 122.454 440.319 122.312 439.938 122.026C439.557 121.741 439.058 121.432 438.44 121.099C437.821 120.766 437.036 120.457 436.085 120.171C435.181 119.886 434.063 119.743 432.732 119.743C430.211 119.743 428.213 120.409 426.738 121.741C425.264 123.025 424.526 124.547 424.526 126.307C424.526 127.734 424.978 128.852 425.882 129.661C426.786 130.47 427.903 131.159 429.235 131.73C430.615 132.253 432.089 132.729 433.659 133.157C435.276 133.585 436.751 134.132 438.083 134.798C439.462 135.464 440.604 136.32 441.508 137.367C442.411 138.413 442.863 139.816 442.863 141.576C442.863 142.956 442.602 144.24 442.078 145.429C441.603 146.619 440.889 147.665 439.938 148.569C438.987 149.425 437.797 150.115 436.37 150.638C434.991 151.161 433.397 151.423 431.59 151.423C429.307 151.423 427.356 151.09 425.739 150.424C424.122 149.71 422.647 148.735 421.315 147.499L421.958 146.571C422.053 146.476 422.148 146.404 422.243 146.357C422.338 146.262 422.505 146.214 422.742 146.214C422.98 146.214 423.289 146.381 423.67 146.714C424.098 147.047 424.645 147.427 425.311 147.855C426.025 148.283 426.881 148.664 427.88 148.997C428.926 149.33 430.211 149.496 431.733 149.496C434.634 149.496 436.799 148.783 438.226 147.356C439.7 145.881 440.437 144.074 440.437 141.933C440.437 140.411 439.986 139.222 439.082 138.366C438.178 137.509 437.036 136.82 435.657 136.296C434.277 135.726 432.803 135.226 431.233 134.798C429.663 134.37 428.189 133.847 426.809 133.228C425.43 132.562 424.288 131.73 423.385 130.731C422.481 129.685 422.029 128.258 422.029 126.45C422.029 125.308 422.267 124.214 422.742 123.168C423.266 122.121 423.979 121.194 424.883 120.385C425.834 119.577 426.952 118.934 428.236 118.459C429.568 117.983 431.067 117.745 432.732 117.745C434.682 117.745 436.394 118.031 437.869 118.602C439.391 119.172 440.794 120.005 442.078 121.099L441.508 122.026ZM491.496 134.798C485.122 135.036 480.437 135.845 477.44 137.224C474.443 138.603 472.945 140.554 472.945 143.075C472.945 144.216 473.135 145.215 473.516 146.072C473.896 146.88 474.396 147.546 475.014 148.069C475.68 148.593 476.417 148.997 477.226 149.282C478.082 149.52 478.938 149.639 479.795 149.639C482.506 149.639 484.742 149.092 486.501 147.998C488.309 146.904 489.974 145.524 491.496 143.86V134.798ZM472.16 122.883C473.825 121.218 475.585 119.957 477.44 119.101C479.295 118.197 481.388 117.745 483.719 117.745C487.239 117.745 489.831 118.816 491.496 120.956C493.161 123.049 493.993 125.927 493.993 129.59V150.923H493.066C492.495 150.923 492.162 150.662 492.067 150.139L491.639 145.572C490.735 146.476 489.831 147.308 488.927 148.069C488.071 148.783 487.144 149.401 486.145 149.924C485.193 150.4 484.147 150.757 483.005 150.995C481.864 151.28 480.603 151.423 479.224 151.423C478.13 151.423 477.059 151.256 476.013 150.923C474.966 150.638 474.039 150.162 473.23 149.496C472.422 148.83 471.756 147.974 471.232 146.928C470.757 145.881 470.519 144.597 470.519 143.075C470.519 141.695 470.923 140.435 471.732 139.293C472.541 138.104 473.801 137.081 475.513 136.225C477.226 135.369 479.39 134.679 482.006 134.156C484.67 133.633 487.833 133.324 491.496 133.228V129.59C491.496 126.45 490.83 124.024 489.498 122.312C488.166 120.599 486.192 119.743 483.576 119.743C481.959 119.743 480.579 119.981 479.438 120.457C478.296 120.885 477.321 121.384 476.512 121.955C475.751 122.526 475.133 123.049 474.657 123.525C474.182 123.953 473.801 124.167 473.516 124.167C473.135 124.167 472.826 124 472.588 123.667L472.16 122.883ZM528.763 126.593C529.715 123.739 531.023 121.551 532.688 120.029C534.353 118.506 536.517 117.745 539.181 117.745C539.894 117.745 540.584 117.793 541.25 117.888C541.916 117.983 542.51 118.221 543.033 118.602L542.677 120.171C542.582 120.504 542.415 120.671 542.177 120.671C541.939 120.671 541.559 120.599 541.036 120.457C540.56 120.266 539.847 120.171 538.895 120.171C536.231 120.171 534.138 120.98 532.616 122.597C531.142 124.167 529.905 126.545 528.906 129.732V150.923H526.337V118.316H527.622C528.24 118.316 528.549 118.578 528.549 119.101L528.763 126.593ZM596.919 118.316L578.011 161.626C577.821 161.911 577.63 162.149 577.44 162.339C577.297 162.53 577.036 162.625 576.655 162.625H574.872L580.58 149.853L566.666 118.316H568.735C569.116 118.316 569.378 118.387 569.52 118.53C569.711 118.673 569.853 118.816 569.948 118.958L581.364 145.429C581.507 145.81 581.602 146.119 581.65 146.357C581.745 146.595 581.84 146.904 581.935 147.284C582.03 146.952 582.126 146.666 582.221 146.428C582.316 146.143 582.435 145.81 582.577 145.429L593.851 118.958C594.089 118.53 594.445 118.316 594.921 118.316H596.919Z" fill="currentColor"/>
</svg>
