<svg width="25" height="24" viewBox="0 0 25 24" fill="none" xmlns="http://www.w3.org/2000/svg">
<path d="M20.1381 20.5303C20.431 20.8232 20.9059 20.8232 21.1988 20.5303C21.4917 20.2374 21.4917 19.7626 21.1988 19.4697L20.1381 20.5303ZM17.9185 10.5C17.9185 14.2279 14.8964 17.25 11.1685 17.25V18.75C15.7248 18.75 19.4185 15.0563 19.4185 10.5H17.9185ZM11.1685 17.25C7.44054 17.25 4.41846 14.2279 4.41846 10.5H2.91846C2.91846 15.0563 6.61211 18.75 11.1685 18.75V17.25ZM4.41846 10.5C4.41846 6.77208 7.44054 3.75 11.1685 3.75V2.25C6.61211 2.25 2.91846 5.94365 2.91846 10.5H4.41846ZM11.1685 3.75C14.8964 3.75 17.9185 6.77208 17.9185 10.5H19.4185C19.4185 5.94365 15.7248 2.25 11.1685 2.25V3.75ZM21.1988 19.4697L17.0112 15.2821L15.9506 16.3428L20.1381 20.5303L21.1988 19.4697Z" fill="white"/>
</svg>
