<?xml version="1.0" encoding="UTF-8" standalone="no"?>
<svg height="300px"
   xmlns:dc="http://purl.org/dc/elements/1.1/"
   xmlns:cc="http://creativecommons.org/ns#"
   xmlns:rdf="http://www.w3.org/1999/02/22-rdf-syntax-ns#"
   xmlns:svg="http://www.w3.org/2000/svg"
   xmlns="http://www.w3.org/2000/svg"
   xmlns:sodipodi="http://sodipodi.sourceforge.net/DTD/sodipodi-0.dtd"
   xmlns:inkscape="http://www.inkscape.org/namespaces/inkscape"
   version="1.1"
   viewBox="0.0 0.0 444.33858267716533 337.4278215223097"
   fill="none"
   stroke="none"
   stroke-linecap="square"
   stroke-miterlimit="10"
   id="svg417"
   sodipodi:docname="Cluster.svg"
   inkscape:version="0.92.2 5c3e80d, 2017-08-06">
  <metadata
     id="metadata423">
    <rdf:RDF>
      <cc:Work
         rdf:about="">
        <dc:format>image/svg+xml</dc:format>
        <dc:type
           rdf:resource="http://purl.org/dc/dcmitype/StillImage" />
        <dc:title></dc:title>
      </cc:Work>
    </rdf:RDF>
  </metadata>
  <defs
     id="defs421" />
  <sodipodi:namedview
     pagecolor="#ffffff"
     bordercolor="#666666"
     borderopacity="1"
     objecttolerance="10"
     gridtolerance="10"
     guidetolerance="10"
     inkscape:pageopacity="0"
     inkscape:pageshadow="2"
     inkscape:window-width="1028"
     inkscape:window-height="681"
     id="namedview419"
     showgrid="false"
     inkscape:zoom="0.98911345"
     inkscape:cx="222.1693"
     inkscape:cy="168.71391"
     inkscape:window-x="0"
     inkscape:window-y="0"
     inkscape:window-maximized="0"
     inkscape:current-layer="svg417" />
  <desc
     id="desc2">50 or so examples clustered into two groups.</desc>
  <clipPath
     id="p.0">
    <path
       d="m0 0l444.3386 0l0 337.42783l-444.3386 0l0 -337.42783z"
       clip-rule="nonzero"
       id="path4" />
  </clipPath>
  <path
     style="fill:#000000;fill-opacity:0;fill-rule:evenodd"
     inkscape:connector-curvature="0"
     id="path7"
     d="M 0,0 H 444.3386 V 337.42783 H 0 Z" />
  <path
     style="fill:#000000;fill-opacity:0;fill-rule:evenodd"
     inkscape:connector-curvature="0"
     id="path9"
     d="M 76.13614,8.670278 V 298.37106" />
  <path
     style="fill-rule:evenodd;stroke:#000000;stroke-width:1;stroke-linecap:butt;stroke-linejoin:round"
     inkscape:connector-curvature="0"
     id="path11"
     d="M 76.13614,8.670278 V 298.37106" />
  <path
     style="fill:#000000;fill-opacity:0;fill-rule:evenodd"
     inkscape:connector-curvature="0"
     id="path13"
     d="M 76.13614,298.3742 H 435.06528" />
  <path
     style="fill-rule:evenodd;stroke:#000000;stroke-width:1;stroke-linecap:butt;stroke-linejoin:round"
     inkscape:connector-curvature="0"
     id="path15"
     d="M 76.13614,298.3742 H 435.06528" />
  <path
     style="fill:#fff2cc;fill-rule:evenodd"
     inkscape:connector-curvature="0"
     id="path17"
     d="m 241.39021,202.01936 h 8.53543 v 10.64566 h -8.53543 z" />
  <path
     style="fill-rule:evenodd;stroke:#000000;stroke-width:1;stroke-linecap:butt;stroke-linejoin:round"
     inkscape:connector-curvature="0"
     id="path19"
     d="m 241.39021,202.01936 h 8.53543 v 10.64566 h -8.53543 z" />
  <path
     style="fill:#fff2cc;fill-rule:evenodd"
     inkscape:connector-curvature="0"
     id="path21"
     d="m 177.39021,226.01936 h 8.53543 v 10.64566 h -8.53543 z" />
  <path
     style="fill-rule:evenodd;stroke:#000000;stroke-width:1;stroke-linecap:butt;stroke-linejoin:round"
     inkscape:connector-curvature="0"
     id="path23"
     d="m 177.39021,226.01936 h 8.53543 v 10.64566 h -8.53543 z" />
  <path
     style="fill:#fff2cc;fill-rule:evenodd"
     inkscape:connector-curvature="0"
     id="path25"
     d="m 185.39021,210.01936 h 8.53543 v 10.64566 h -8.53543 z" />
  <path
     style="fill-rule:evenodd;stroke:#000000;stroke-width:1;stroke-linecap:butt;stroke-linejoin:round"
     inkscape:connector-curvature="0"
     id="path27"
     d="m 185.39021,210.01936 h 8.53543 v 10.64566 h -8.53543 z" />
  <path
     style="fill:#fff2cc;fill-rule:evenodd"
     inkscape:connector-curvature="0"
     id="path29"
     d="m 185.39021,194.01936 h 8.53543 v 10.64566 h -8.53543 z" />
  <path
     style="fill-rule:evenodd;stroke:#000000;stroke-width:1;stroke-linecap:butt;stroke-linejoin:round"
     inkscape:connector-curvature="0"
     id="path31"
     d="m 185.39021,194.01936 h 8.53543 v 10.64566 h -8.53543 z" />
  <path
     style="fill:#fff2cc;fill-rule:evenodd"
     inkscape:connector-curvature="0"
     id="path33"
     d="m 201.39021,186.01936 h 8.53543 v 10.64566 h -8.53543 z" />
  <path
     style="fill-rule:evenodd;stroke:#000000;stroke-width:1;stroke-linecap:butt;stroke-linejoin:round"
     inkscape:connector-curvature="0"
     id="path35"
     d="m 201.39021,186.01936 h 8.53543 v 10.64566 h -8.53543 z" />
  <path
     style="fill:#fff2cc;fill-rule:evenodd"
     inkscape:connector-curvature="0"
     id="path37"
     d="m 193.39021,170.01936 h 8.53543 v 10.64566 h -8.53543 z" />
  <path
     style="fill-rule:evenodd;stroke:#000000;stroke-width:1;stroke-linecap:butt;stroke-linejoin:round"
     inkscape:connector-curvature="0"
     id="path39"
     d="m 193.39021,170.01936 h 8.53543 v 10.64566 h -8.53543 z" />
  <path
     style="fill:#fff2cc;fill-rule:evenodd"
     inkscape:connector-curvature="0"
     id="path41"
     d="m 170.4952,122.01936 h 8.53543 v 10.64566 h -8.53543 z" />
  <path
     style="fill-rule:evenodd;stroke:#000000;stroke-width:1;stroke-linecap:butt;stroke-linejoin:round"
     inkscape:connector-curvature="0"
     id="path43"
     d="m 170.4952,122.01936 h 8.53543 v 10.64566 h -8.53543 z" />
  <path
     style="fill:#fff2cc;fill-rule:evenodd"
     inkscape:connector-curvature="0"
     id="path45"
     d="m 225.39021,162.01936 h 8.53543 v 10.64566 h -8.53543 z" />
  <path
     style="fill-rule:evenodd;stroke:#000000;stroke-width:1;stroke-linecap:butt;stroke-linejoin:round"
     inkscape:connector-curvature="0"
     id="path47"
     d="m 225.39021,162.01936 h 8.53543 v 10.64566 h -8.53543 z" />
  <path
     style="fill:#fff2cc;fill-rule:evenodd"
     inkscape:connector-curvature="0"
     id="path49"
     d="m 233.39021,146.01936 h 8.53543 v 10.64566 h -8.53543 z" />
  <path
     style="fill-rule:evenodd;stroke:#000000;stroke-width:1;stroke-linecap:butt;stroke-linejoin:round"
     inkscape:connector-curvature="0"
     id="path51"
     d="m 233.39021,146.01936 h 8.53543 v 10.64566 h -8.53543 z" />
  <path
     style="fill:#fff2cc;fill-rule:evenodd"
     inkscape:connector-curvature="0"
     id="path53"
     d="m 209.39021,162.01936 h 8.53543 v 10.64566 h -8.53543 z" />
  <path
     style="fill-rule:evenodd;stroke:#000000;stroke-width:1;stroke-linecap:butt;stroke-linejoin:round"
     inkscape:connector-curvature="0"
     id="path55"
     d="m 209.39021,162.01936 h 8.53543 v 10.64566 h -8.53543 z" />
  <path
     style="fill:#fff2cc;fill-rule:evenodd"
     inkscape:connector-curvature="0"
     id="path57"
     d="m 193.39021,226.01936 h 8.53543 v 10.64566 h -8.53543 z" />
  <path
     style="fill-rule:evenodd;stroke:#000000;stroke-width:1;stroke-linecap:butt;stroke-linejoin:round"
     inkscape:connector-curvature="0"
     id="path59"
     d="m 193.39021,226.01936 h 8.53543 v 10.64566 h -8.53543 z" />
  <path
     style="fill:#fff2cc;fill-rule:evenodd"
     inkscape:connector-curvature="0"
     id="path61"
     d="m 201.39021,218.01936 h 8.53543 v 10.64566 h -8.53543 z" />
  <path
     style="fill-rule:evenodd;stroke:#000000;stroke-width:1;stroke-linecap:butt;stroke-linejoin:round"
     inkscape:connector-curvature="0"
     id="path63"
     d="m 201.39021,218.01936 h 8.53543 v 10.64566 h -8.53543 z" />
  <path
     style="fill:#fff2cc;fill-rule:evenodd"
     inkscape:connector-curvature="0"
     id="path65"
     d="m 217.39021,218.01936 h 8.53543 v 10.64566 h -8.53543 z" />
  <path
     style="fill-rule:evenodd;stroke:#000000;stroke-width:1;stroke-linecap:butt;stroke-linejoin:round"
     inkscape:connector-curvature="0"
     id="path67"
     d="m 217.39021,218.01936 h 8.53543 v 10.64566 h -8.53543 z" />
  <path
     style="fill:#fff2cc;fill-rule:evenodd"
     inkscape:connector-curvature="0"
     id="path69"
     d="m 217.39021,202.01936 h 8.53543 v 10.64566 h -8.53543 z" />
  <path
     style="fill-rule:evenodd;stroke:#000000;stroke-width:1;stroke-linecap:butt;stroke-linejoin:round"
     inkscape:connector-curvature="0"
     id="path71"
     d="m 217.39021,202.01936 h 8.53543 v 10.64566 h -8.53543 z" />
  <path
     style="fill:#fff2cc;fill-rule:evenodd"
     inkscape:connector-curvature="0"
     id="path73"
     d="m 225.39021,210.01936 h 8.53543 v 10.64566 h -8.53543 z" />
  <path
     style="fill-rule:evenodd;stroke:#000000;stroke-width:1;stroke-linecap:butt;stroke-linejoin:round"
     inkscape:connector-curvature="0"
     id="path75"
     d="m 225.39021,210.01936 h 8.53543 v 10.64566 h -8.53543 z" />
  <path
     style="fill:#fff2cc;fill-rule:evenodd"
     inkscape:connector-curvature="0"
     id="path77"
     d="m 241.39021,178.01936 h 8.53543 v 10.64566 h -8.53543 z" />
  <path
     style="fill-rule:evenodd;stroke:#000000;stroke-width:1;stroke-linecap:butt;stroke-linejoin:round"
     inkscape:connector-curvature="0"
     id="path79"
     d="m 241.39021,178.01936 h 8.53543 v 10.64566 h -8.53543 z" />
  <path
     style="fill:#fff2cc;fill-rule:evenodd"
     inkscape:connector-curvature="0"
     id="path81"
     d="m 233.39021,186.01936 h 8.53543 v 10.64566 h -8.53543 z" />
  <path
     style="fill-rule:evenodd;stroke:#000000;stroke-width:1;stroke-linecap:butt;stroke-linejoin:round"
     inkscape:connector-curvature="0"
     id="path83"
     d="m 233.39021,186.01936 h 8.53543 v 10.64566 h -8.53543 z" />
  <path
     style="fill:#fff2cc;fill-rule:evenodd"
     inkscape:connector-curvature="0"
     id="path85"
     d="m 217.39021,174.01936 h 8.53543 v 10.64566 h -8.53543 z" />
  <path
     style="fill-rule:evenodd;stroke:#000000;stroke-width:1;stroke-linecap:butt;stroke-linejoin:round"
     inkscape:connector-curvature="0"
     id="path87"
     d="m 217.39021,174.01936 h 8.53543 v 10.64566 h -8.53543 z" />
  <path
     style="fill:#fff2cc;fill-rule:evenodd"
     inkscape:connector-curvature="0"
     id="path89"
     d="m 161.39021,151.37369 h 8.53543 v 10.64568 h -8.53543 z" />
  <path
     style="fill-rule:evenodd;stroke:#000000;stroke-width:1;stroke-linecap:butt;stroke-linejoin:round"
     inkscape:connector-curvature="0"
     id="path91"
     d="m 161.39021,151.37369 h 8.53543 v 10.64568 h -8.53543 z" />
  <path
     style="fill:#fff2cc;fill-rule:evenodd"
     inkscape:connector-curvature="0"
     id="path93"
     d="m 197.53194,202.19783 h 8.53543 v 10.64568 h -8.53543 z" />
  <path
     style="fill-rule:evenodd;stroke:#000000;stroke-width:1;stroke-linecap:butt;stroke-linejoin:round"
     inkscape:connector-curvature="0"
     id="path95"
     d="m 197.53194,202.19783 h 8.53543 v 10.64568 h -8.53543 z" />
  <path
     style="fill:#cfe2f3;fill-rule:evenodd"
     inkscape:connector-curvature="0"
     id="path97"
     d="m 297.3902,74.019356 h 8.53543 v 10.645676 h -8.53543 z" />
  <path
     style="fill-rule:evenodd;stroke:#000000;stroke-width:1;stroke-linecap:butt;stroke-linejoin:round"
     inkscape:connector-curvature="0"
     id="path99"
     d="m 297.3902,74.019356 h 8.53543 v 10.645676 h -8.53543 z" />
  <path
     style="fill:#cfe2f3;fill-rule:evenodd"
     inkscape:connector-curvature="0"
     id="path101"
     d="m 305.3902,114.01936 h 8.53543 v 10.64567 h -8.53543 z" />
  <path
     style="fill-rule:evenodd;stroke:#000000;stroke-width:1;stroke-linecap:butt;stroke-linejoin:round"
     inkscape:connector-curvature="0"
     id="path103"
     d="m 305.3902,114.01936 h 8.53543 v 10.64567 h -8.53543 z" />
  <path
     style="fill:#cfe2f3;fill-rule:evenodd"
     inkscape:connector-curvature="0"
     id="path105"
     d="m 297.3902,106.01936 h 8.53543 v 10.64567 h -8.53543 z" />
  <path
     style="fill-rule:evenodd;stroke:#000000;stroke-width:1;stroke-linecap:butt;stroke-linejoin:round"
     inkscape:connector-curvature="0"
     id="path107"
     d="m 297.3902,106.01936 h 8.53543 v 10.64567 h -8.53543 z" />
  <path
     style="fill:#cfe2f3;fill-rule:evenodd"
     inkscape:connector-curvature="0"
     id="path109"
     d="m 305.3902,90.019356 h 8.53543 v 10.645674 h -8.53543 z" />
  <path
     style="fill-rule:evenodd;stroke:#000000;stroke-width:1;stroke-linecap:butt;stroke-linejoin:round"
     inkscape:connector-curvature="0"
     id="path111"
     d="m 305.3902,90.019356 h 8.53543 v 10.645674 h -8.53543 z" />
  <path
     style="fill:#cfe2f3;fill-rule:evenodd"
     inkscape:connector-curvature="0"
     id="path113"
     d="m 297.3902,50.01936 h 8.53543 v 10.645668 h -8.53543 z" />
  <path
     style="fill-rule:evenodd;stroke:#000000;stroke-width:1;stroke-linecap:butt;stroke-linejoin:round"
     inkscape:connector-curvature="0"
     id="path115"
     d="m 297.3902,50.01936 h 8.53543 v 10.645668 h -8.53543 z" />
  <path
     style="fill:#cfe2f3;fill-rule:evenodd"
     inkscape:connector-curvature="0"
     id="path117"
     d="m 321.3902,82.019356 h 8.53543 v 10.645676 h -8.53543 z" />
  <path
     style="fill-rule:evenodd;stroke:#000000;stroke-width:1;stroke-linecap:butt;stroke-linejoin:round"
     inkscape:connector-curvature="0"
     id="path119"
     d="m 321.3902,82.019356 h 8.53543 v 10.645676 h -8.53543 z" />
  <path
     style="fill:#cfe2f3;fill-rule:evenodd"
     inkscape:connector-curvature="0"
     id="path121"
     d="m 329.3902,66.019356 h 8.53543 v 10.645676 h -8.53543 z" />
  <path
     style="fill-rule:evenodd;stroke:#000000;stroke-width:1;stroke-linecap:butt;stroke-linejoin:round"
     inkscape:connector-curvature="0"
     id="path123"
     d="m 329.3902,66.019356 h 8.53543 v 10.645676 h -8.53543 z" />
  <path
     style="fill:#cfe2f3;fill-rule:evenodd"
     inkscape:connector-curvature="0"
     id="path125"
     d="m 313.3902,122.01936 h 8.53543 v 10.64566 h -8.53543 z" />
  <path
     style="fill-rule:evenodd;stroke:#000000;stroke-width:1;stroke-linecap:butt;stroke-linejoin:round"
     inkscape:connector-curvature="0"
     id="path127"
     d="m 313.3902,122.01936 h 8.53543 v 10.64566 h -8.53543 z" />
  <path
     style="fill:#cfe2f3;fill-rule:evenodd"
     inkscape:connector-curvature="0"
     id="path129"
     d="m 313.3902,98.019356 h 8.53543 v 10.645674 h -8.53543 z" />
  <path
     style="fill-rule:evenodd;stroke:#000000;stroke-width:1;stroke-linecap:butt;stroke-linejoin:round"
     inkscape:connector-curvature="0"
     id="path131"
     d="m 313.3902,98.019356 h 8.53543 v 10.645674 h -8.53543 z" />
  <path
     style="fill:#cfe2f3;fill-rule:evenodd"
     inkscape:connector-curvature="0"
     id="path133"
     d="m 329.3902,122.01936 h 8.53543 v 10.64566 h -8.53543 z" />
  <path
     style="fill-rule:evenodd;stroke:#000000;stroke-width:1;stroke-linecap:butt;stroke-linejoin:round"
     inkscape:connector-curvature="0"
     id="path135"
     d="m 329.3902,122.01936 h 8.53543 v 10.64566 h -8.53543 z" />
  <path
     style="fill:#cfe2f3;fill-rule:evenodd"
     inkscape:connector-curvature="0"
     id="path137"
     d="m 329.3902,106.01936 h 8.53543 v 10.64567 h -8.53543 z" />
  <path
     style="fill-rule:evenodd;stroke:#000000;stroke-width:1;stroke-linecap:butt;stroke-linejoin:round"
     inkscape:connector-curvature="0"
     id="path139"
     d="m 329.3902,106.01936 h 8.53543 v 10.64567 h -8.53543 z" />
  <path
     style="fill:#cfe2f3;fill-rule:evenodd"
     inkscape:connector-curvature="0"
     id="path141"
     d="m 337.3902,82.019356 h 8.53543 v 10.645676 h -8.53543 z" />
  <path
     style="fill-rule:evenodd;stroke:#000000;stroke-width:1;stroke-linecap:butt;stroke-linejoin:round"
     inkscape:connector-curvature="0"
     id="path143"
     d="m 337.3902,82.019356 h 8.53543 v 10.645676 h -8.53543 z" />
  <path
     style="fill:#cfe2f3;fill-rule:evenodd"
     inkscape:connector-curvature="0"
     id="path145"
     d="m 353.3902,98.019356 h 8.53543 v 10.645674 h -8.53543 z" />
  <path
     style="fill-rule:evenodd;stroke:#000000;stroke-width:1;stroke-linecap:butt;stroke-linejoin:round"
     inkscape:connector-curvature="0"
     id="path147"
     d="m 353.3902,98.019356 h 8.53543 v 10.645674 h -8.53543 z" />
  <path
     style="fill:#cfe2f3;fill-rule:evenodd"
     inkscape:connector-curvature="0"
     id="path149"
     d="m 361.3902,74.019356 h 8.53543 v 10.645676 h -8.53543 z" />
  <path
     style="fill-rule:evenodd;stroke:#000000;stroke-width:1;stroke-linecap:butt;stroke-linejoin:round"
     inkscape:connector-curvature="0"
     id="path151"
     d="m 361.3902,74.019356 h 8.53543 v 10.645676 h -8.53543 z" />
  <path
     style="fill:#000000;fill-opacity:0;fill-rule:evenodd"
     inkscape:connector-curvature="0"
     id="path153"
     d="M 201.92647,298.54874 H 313.39105 V 326.2338 H 201.92647 Z" />
  <path
     style="fill:#000000;fill-opacity:0;fill-rule:evenodd"
     inkscape:connector-curvature="0"
     id="path157"
     d="m 14.842442,124.66404 h 61.007877 v 53.35433 H 14.842442 Z" />
  <path
     style="fill:#cfe2f3;fill-rule:evenodd"
     inkscape:connector-curvature="0"
     id="path163"
     d="m 369.3902,114.01936 h 8.53543 v 10.64567 h -8.53543 z" />
  <path
     style="fill-rule:evenodd;stroke:#000000;stroke-width:1;stroke-linecap:butt;stroke-linejoin:round"
     inkscape:connector-curvature="0"
     id="path165"
     d="m 369.3902,114.01936 h 8.53543 v 10.64567 h -8.53543 z" />
  <path
     style="fill:#cfe2f3;fill-rule:evenodd"
     inkscape:connector-curvature="0"
     id="path167"
     d="m 265.3902,66.019356 h 8.53543 v 10.645676 h -8.53543 z" />
  <path
     style="fill-rule:evenodd;stroke:#000000;stroke-width:1;stroke-linecap:butt;stroke-linejoin:round"
     inkscape:connector-curvature="0"
     id="path169"
     d="m 265.3902,66.019356 h 8.53543 v 10.645676 h -8.53543 z" />
  <path
     style="fill:#cfe2f3;fill-rule:evenodd"
     inkscape:connector-curvature="0"
     id="path171"
     d="m 281.3902,90.019356 h 8.53543 v 10.645674 h -8.53543 z" />
  <path
     style="fill-rule:evenodd;stroke:#000000;stroke-width:1;stroke-linecap:butt;stroke-linejoin:round"
     inkscape:connector-curvature="0"
     id="path173"
     d="m 281.3902,90.019356 h 8.53543 v 10.645674 h -8.53543 z" />
  <path
     style="fill:#cfe2f3;fill-rule:evenodd"
     inkscape:connector-curvature="0"
     id="path175"
     d="m 289.3902,114.01936 h 8.53543 v 10.64567 h -8.53543 z" />
  <path
     style="fill-rule:evenodd;stroke:#000000;stroke-width:1;stroke-linecap:butt;stroke-linejoin:round"
     inkscape:connector-curvature="0"
     id="path177"
     d="m 289.3902,114.01936 h 8.53543 v 10.64567 h -8.53543 z" />
  <path
     style="fill:#fff2cc;fill-rule:evenodd"
     inkscape:connector-curvature="0"
     id="path179"
     d="m 249.39021,154.01936 h 8.53542 v 10.64566 h -8.53542 z" />
  <path
     style="fill-rule:evenodd;stroke:#000000;stroke-width:1;stroke-linecap:butt;stroke-linejoin:round"
     inkscape:connector-curvature="0"
     id="path181"
     d="m 249.39021,154.01936 h 8.53542 v 10.64566 h -8.53542 z" />
  <path
     style="fill:#fff2cc;fill-rule:evenodd"
     inkscape:connector-curvature="0"
     id="path183"
     d="m 241.39021,138.01936 h 8.53543 v 10.64566 h -8.53543 z" />
  <path
     style="fill-rule:evenodd;stroke:#000000;stroke-width:1;stroke-linecap:butt;stroke-linejoin:round"
     inkscape:connector-curvature="0"
     id="path185"
     d="m 241.39021,138.01936 h 8.53543 v 10.64566 h -8.53543 z" />
  <path
     style="fill:#fff2cc;fill-rule:evenodd"
     inkscape:connector-curvature="0"
     id="path187"
     d="m 353.3902,247.37369 h 8.53543 v 10.64566 h -8.53543 z" />
  <path
     style="fill-rule:evenodd;stroke:#000000;stroke-width:1;stroke-linecap:butt;stroke-linejoin:round"
     inkscape:connector-curvature="0"
     id="path189"
     d="m 353.3902,247.37369 h 8.53543 v 10.64566 h -8.53543 z" />
  <path
     style="fill:#cfe2f3;fill-rule:evenodd"
     inkscape:connector-curvature="0"
     id="path191"
     d="m 353.3902,274.01935 h 8.53543 v 10.64569 h -8.53543 z" />
  <path
     style="fill-rule:evenodd;stroke:#000000;stroke-width:1;stroke-linecap:butt;stroke-linejoin:round"
     inkscape:connector-curvature="0"
     id="path193"
     d="m 353.3902,274.01935 h 8.53543 v 10.64569 h -8.53543 z" />
  <path
     style="fill:#000000;fill-opacity:0;fill-rule:evenodd"
     inkscape:connector-curvature="0"
     id="path195"
     d="m 358.13217,242.38574 h 89.19684 v 14.07873 h -89.19684 z" />
  <path
     style="fill:#000000;fill-opacity:0;fill-rule:evenodd"
     inkscape:connector-curvature="0"
     id="path199"
     d="m 358.13217,267.9925 h 89.19684 v 14.07877 h -89.19684 z" />
  <path
     style="fill:#fff2cc;fill-rule:evenodd"
     inkscape:connector-curvature="0"
     id="path203"
     d="m 217.39021,130.01936 h 8.53543 v 10.64566 h -8.53543 z" />
  <path
     style="fill-rule:evenodd;stroke:#000000;stroke-width:1;stroke-linecap:butt;stroke-linejoin:round"
     inkscape:connector-curvature="0"
     id="path205"
     d="m 217.39021,130.01936 h 8.53543 v 10.64566 h -8.53543 z" />
  <path
     style="fill:#fff2cc;fill-rule:evenodd"
     inkscape:connector-curvature="0"
     id="path207"
     d="m 193.39021,138.01936 h 8.53543 v 10.64566 h -8.53543 z" />
  <path
     style="fill-rule:evenodd;stroke:#000000;stroke-width:1;stroke-linecap:butt;stroke-linejoin:round"
     inkscape:connector-curvature="0"
     id="path209"
     d="m 193.39021,138.01936 h 8.53543 v 10.64566 h -8.53543 z" />
  <path
     style="fill:#fff2cc;fill-rule:evenodd"
     inkscape:connector-curvature="0"
     id="path211"
     d="m 209.39021,170.01936 h 8.53543 v 10.64566 h -8.53543 z" />
  <path
     style="fill-rule:evenodd;stroke:#000000;stroke-width:1;stroke-linecap:butt;stroke-linejoin:round"
     inkscape:connector-curvature="0"
     id="path213"
     d="m 209.39021,170.01936 h 8.53543 v 10.64566 h -8.53543 z" />
  <path
     style="fill:#fff2cc;fill-rule:evenodd"
     inkscape:connector-curvature="0"
     id="path215"
     d="m 177.39021,154.01936 h 8.53543 v 10.64566 h -8.53543 z" />
  <path
     style="fill-rule:evenodd;stroke:#000000;stroke-width:1;stroke-linecap:butt;stroke-linejoin:round"
     inkscape:connector-curvature="0"
     id="path217"
     d="m 177.39021,154.01936 h 8.53543 v 10.64566 h -8.53543 z" />
  <path
     style="fill:#fff2cc;fill-rule:evenodd"
     inkscape:connector-curvature="0"
     id="path219"
     d="m 233.39021,146.01936 h 8.53543 v 10.64566 h -8.53543 z" />
  <path
     style="fill-rule:evenodd;stroke:#000000;stroke-width:1;stroke-linecap:butt;stroke-linejoin:round"
     inkscape:connector-curvature="0"
     id="path221"
     d="m 233.39021,146.01936 h 8.53543 v 10.64566 h -8.53543 z" />
  <path
     style="fill:#fff2cc;fill-rule:evenodd"
     inkscape:connector-curvature="0"
     id="path223"
     d="m 225.39021,162.01936 h 8.53543 v 10.64566 h -8.53543 z" />
  <path
     style="fill-rule:evenodd;stroke:#000000;stroke-width:1;stroke-linecap:butt;stroke-linejoin:round"
     inkscape:connector-curvature="0"
     id="path225"
     d="m 225.39021,162.01936 h 8.53543 v 10.64566 h -8.53543 z" />
  <path
     style="fill:#fff2cc;fill-rule:evenodd"
     inkscape:connector-curvature="0"
     id="path227"
     d="m 209.39021,142.01936 h 8.53543 v 10.64566 h -8.53543 z" />
  <path
     style="fill-rule:evenodd;stroke:#000000;stroke-width:1;stroke-linecap:butt;stroke-linejoin:round"
     inkscape:connector-curvature="0"
     id="path229"
     d="m 209.39021,142.01936 h 8.53543 v 10.64566 h -8.53543 z" />
  <path
     style="fill:#fff2cc;fill-rule:evenodd"
     inkscape:connector-curvature="0"
     id="path231"
     d="m 241.39021,130.01936 h 8.53543 v 10.64566 h -8.53543 z" />
  <path
     style="fill-rule:evenodd;stroke:#000000;stroke-width:1;stroke-linecap:butt;stroke-linejoin:round"
     inkscape:connector-curvature="0"
     id="path233"
     d="m 241.39021,130.01936 h 8.53543 v 10.64566 h -8.53543 z" />
  <path
     style="fill:#fff2cc;fill-rule:evenodd"
     inkscape:connector-curvature="0"
     id="path235"
     d="m 233.39021,122.01936 h 8.53543 v 10.64566 h -8.53543 z" />
  <path
     style="fill-rule:evenodd;stroke:#000000;stroke-width:1;stroke-linecap:butt;stroke-linejoin:round"
     inkscape:connector-curvature="0"
     id="path237"
     d="m 233.39021,122.01936 h 8.53543 v 10.64566 h -8.53543 z" />
  <path
     style="fill:#cfe2f3;fill-rule:evenodd"
     inkscape:connector-curvature="0"
     id="path239"
     d="m 273.3902,138.01936 h 8.53543 v 10.64566 h -8.53543 z" />
  <path
     style="fill-rule:evenodd;stroke:#000000;stroke-width:1;stroke-linecap:butt;stroke-linejoin:round"
     inkscape:connector-curvature="0"
     id="path241"
     d="m 273.3902,138.01936 h 8.53543 v 10.64566 h -8.53543 z" />
  <path
     style="fill:#cfe2f3;fill-rule:evenodd"
     inkscape:connector-curvature="0"
     id="path243"
     d="m 265.3902,128.53508 h 8.53543 v 10.64566 h -8.53543 z" />
  <path
     style="fill-rule:evenodd;stroke:#000000;stroke-width:1;stroke-linecap:butt;stroke-linejoin:round"
     inkscape:connector-curvature="0"
     id="path245"
     d="m 265.3902,128.53508 h 8.53543 v 10.64566 h -8.53543 z" />
  <path
     style="fill:#cfe2f3;fill-rule:evenodd"
     inkscape:connector-curvature="0"
     id="path247"
     d="m 273.3902,114.01936 h 8.53543 v 10.64567 h -8.53543 z" />
  <path
     style="fill-rule:evenodd;stroke:#000000;stroke-width:1;stroke-linecap:butt;stroke-linejoin:round"
     inkscape:connector-curvature="0"
     id="path249"
     d="m 273.3902,114.01936 h 8.53543 v 10.64567 h -8.53543 z" />
  <path
     style="fill:#cfe2f3;fill-rule:evenodd"
     inkscape:connector-curvature="0"
     id="path251"
     d="m 281.3902,106.01936 h 8.53543 v 10.64567 h -8.53543 z" />
  <path
     style="fill-rule:evenodd;stroke:#000000;stroke-width:1;stroke-linecap:butt;stroke-linejoin:round"
     inkscape:connector-curvature="0"
     id="path253"
     d="m 281.3902,106.01936 h 8.53543 v 10.64567 h -8.53543 z" />
  <path
     style="fill:#cfe2f3;fill-rule:evenodd"
     inkscape:connector-curvature="0"
     id="path255"
     d="m 281.3902,146.01936 h 8.53543 v 10.64566 h -8.53543 z" />
  <path
     style="fill-rule:evenodd;stroke:#000000;stroke-width:1;stroke-linecap:butt;stroke-linejoin:round"
     inkscape:connector-curvature="0"
     id="path257"
     d="m 281.3902,146.01936 h 8.53543 v 10.64566 h -8.53543 z" />
  <path
     style="fill:#cfe2f3;fill-rule:evenodd"
     inkscape:connector-curvature="0"
     id="path259"
     d="m 281.3902,122.01936 h 8.53543 v 10.64566 h -8.53543 z" />
  <path
     style="fill-rule:evenodd;stroke:#000000;stroke-width:1;stroke-linecap:butt;stroke-linejoin:round"
     inkscape:connector-curvature="0"
     id="path261"
     d="m 281.3902,122.01936 h 8.53543 v 10.64566 h -8.53543 z" />
  <path
     style="fill:#cfe2f3;fill-rule:evenodd"
     inkscape:connector-curvature="0"
     id="path263"
     d="m 297.3902,146.01936 h 8.53543 v 10.64566 h -8.53543 z" />
  <path
     style="fill-rule:evenodd;stroke:#000000;stroke-width:1;stroke-linecap:butt;stroke-linejoin:round"
     inkscape:connector-curvature="0"
     id="path265"
     d="m 297.3902,146.01936 h 8.53543 v 10.64566 h -8.53543 z" />
  <path
     style="fill:#cfe2f3;fill-rule:evenodd"
     inkscape:connector-curvature="0"
     id="path267"
     d="m 297.3902,130.01936 h 8.53543 v 10.64566 h -8.53543 z" />
  <path
     style="fill-rule:evenodd;stroke:#000000;stroke-width:1;stroke-linecap:butt;stroke-linejoin:round"
     inkscape:connector-curvature="0"
     id="path269"
     d="m 297.3902,130.01936 h 8.53543 v 10.64566 h -8.53543 z" />
  <path
     style="fill:#cfe2f3;fill-rule:evenodd"
     inkscape:connector-curvature="0"
     id="path271"
     d="m 305.3902,106.01936 h 8.53543 v 10.64567 h -8.53543 z" />
  <path
     style="fill-rule:evenodd;stroke:#000000;stroke-width:1;stroke-linecap:butt;stroke-linejoin:round"
     inkscape:connector-curvature="0"
     id="path273"
     d="m 305.3902,106.01936 h 8.53543 v 10.64567 h -8.53543 z" />
  <path
     style="fill:#cfe2f3;fill-rule:evenodd"
     inkscape:connector-curvature="0"
     id="path275"
     d="m 249.39021,114.01936 h 8.53542 v 10.64567 h -8.53542 z" />
  <path
     style="fill-rule:evenodd;stroke:#000000;stroke-width:1;stroke-linecap:butt;stroke-linejoin:round"
     inkscape:connector-curvature="0"
     id="path277"
     d="m 249.39021,114.01936 h 8.53542 v 10.64567 h -8.53542 z" />
  <path
     style="fill:#fff2cc;fill-rule:evenodd"
     inkscape:connector-curvature="0"
     id="path279"
     d="m 257.3902,138.01936 h 8.53543 v 10.64566 h -8.53543 z" />
  <path
     style="fill-rule:evenodd;stroke:#000000;stroke-width:1;stroke-linecap:butt;stroke-linejoin:round"
     inkscape:connector-curvature="0"
     id="path281"
     d="m 257.3902,138.01936 h 8.53543 v 10.64566 h -8.53543 z" />
  <path
     style="fill:#fff2cc;fill-rule:evenodd"
     inkscape:connector-curvature="0"
     id="path283"
     d="m 185.39021,186.01936 h 8.53543 v 10.64566 h -8.53543 z" />
  <path
     style="fill-rule:evenodd;stroke:#000000;stroke-width:1;stroke-linecap:butt;stroke-linejoin:round"
     inkscape:connector-curvature="0"
     id="path285"
     d="m 185.39021,186.01936 h 8.53543 v 10.64566 h -8.53543 z" />
  <path
     style="fill:#cfe2f3;fill-rule:evenodd"
     inkscape:connector-curvature="0"
     id="path287"
     d="m 273.3902,34.01936 h 8.53543 v 10.645668 h -8.53543 z" />
  <path
     style="fill-rule:evenodd;stroke:#000000;stroke-width:1;stroke-linecap:butt;stroke-linejoin:round"
     inkscape:connector-curvature="0"
     id="path289"
     d="m 273.3902,34.01936 h 8.53543 v 10.645668 h -8.53543 z" />
  <path
     style="fill:#cfe2f3;fill-rule:evenodd"
     inkscape:connector-curvature="0"
     id="path291"
     d="m 257.3902,82.019356 h 8.53543 v 10.645676 h -8.53543 z" />
  <path
     style="fill-rule:evenodd;stroke:#000000;stroke-width:1;stroke-linecap:butt;stroke-linejoin:round"
     inkscape:connector-curvature="0"
     id="path293"
     d="m 257.3902,82.019356 h 8.53543 v 10.645676 h -8.53543 z" />
  <path
     style="fill:#fff2cc;fill-rule:evenodd"
     inkscape:connector-curvature="0"
     id="path295"
     d="m 265.3902,178.01936 h 8.53543 v 10.64566 h -8.53543 z" />
  <path
     style="fill-rule:evenodd;stroke:#000000;stroke-width:1;stroke-linecap:butt;stroke-linejoin:round"
     inkscape:connector-curvature="0"
     id="path297"
     d="m 265.3902,178.01936 h 8.53543 v 10.64566 h -8.53543 z" />
  <path
     style="fill:#fff2cc;fill-rule:evenodd"
     inkscape:connector-curvature="0"
     id="path299"
     d="m 249.39021,194.01936 h 8.53542 v 10.64566 h -8.53542 z" />
  <path
     style="fill-rule:evenodd;stroke:#000000;stroke-width:1;stroke-linecap:butt;stroke-linejoin:round"
     inkscape:connector-curvature="0"
     id="path301"
     d="m 249.39021,194.01936 h 8.53542 v 10.64566 h -8.53542 z" />
  <path
     style="fill:#cfe2f3;fill-rule:evenodd"
     inkscape:connector-curvature="0"
     id="path303"
     d="m 281.3902,130.01936 h 8.53543 v 10.64566 h -8.53543 z" />
  <path
     style="fill-rule:evenodd;stroke:#000000;stroke-width:1;stroke-linecap:butt;stroke-linejoin:round"
     inkscape:connector-curvature="0"
     id="path305"
     d="m 281.3902,130.01936 h 8.53543 v 10.64566 h -8.53543 z" />
  <path
     style="fill:#fff2cc;fill-rule:evenodd"
     inkscape:connector-curvature="0"
     id="path307"
     d="m 217.39021,146.01936 h 8.53543 v 10.64566 h -8.53543 z" />
  <path
     style="fill-rule:evenodd;stroke:#000000;stroke-width:1;stroke-linecap:butt;stroke-linejoin:round"
     inkscape:connector-curvature="0"
     id="path309"
     d="m 217.39021,146.01936 h 8.53543 v 10.64566 h -8.53543 z" />
  <path
     style="fill:#fff2cc;fill-rule:evenodd"
     inkscape:connector-curvature="0"
     id="path311"
     d="m 177.39021,162.01936 h 8.53543 v 10.64566 h -8.53543 z" />
  <path
     style="fill-rule:evenodd;stroke:#000000;stroke-width:1;stroke-linecap:butt;stroke-linejoin:round"
     inkscape:connector-curvature="0"
     id="path313"
     d="m 177.39021,162.01936 h 8.53543 v 10.64566 h -8.53543 z" />
  <path
     style="fill:#fff2cc;fill-rule:evenodd"
     inkscape:connector-curvature="0"
     id="path315"
     d="m 153.39021,178.01936 h 8.53543 v 10.64566 h -8.53543 z" />
  <path
     style="fill-rule:evenodd;stroke:#000000;stroke-width:1;stroke-linecap:butt;stroke-linejoin:round"
     inkscape:connector-curvature="0"
     id="path317"
     d="m 153.39021,178.01936 h 8.53543 v 10.64566 h -8.53543 z" />
  <path
     style="fill:#fff2cc;fill-rule:evenodd"
     inkscape:connector-curvature="0"
     id="path319"
     d="m 169.39021,170.01936 h 8.53543 v 10.64566 h -8.53543 z" />
  <path
     style="fill-rule:evenodd;stroke:#000000;stroke-width:1;stroke-linecap:butt;stroke-linejoin:round"
     inkscape:connector-curvature="0"
     id="path321"
     d="m 169.39021,170.01936 h 8.53543 v 10.64566 h -8.53543 z" />
  <path
     style="fill:#fff2cc;fill-rule:evenodd"
     inkscape:connector-curvature="0"
     id="path323"
     d="m 169.39021,186.01936 h 8.53543 v 10.64566 h -8.53543 z" />
  <path
     style="fill-rule:evenodd;stroke:#000000;stroke-width:1;stroke-linecap:butt;stroke-linejoin:round"
     inkscape:connector-curvature="0"
     id="path325"
     d="m 169.39021,186.01936 h 8.53543 v 10.64566 h -8.53543 z" />
  <path
     style="fill:#fff2cc;fill-rule:evenodd"
     inkscape:connector-curvature="0"
     id="path327"
     d="m 193.39021,154.01936 h 8.53543 v 10.64566 h -8.53543 z" />
  <path
     style="fill-rule:evenodd;stroke:#000000;stroke-width:1;stroke-linecap:butt;stroke-linejoin:round"
     inkscape:connector-curvature="0"
     id="path329"
     d="m 193.39021,154.01936 h 8.53543 v 10.64566 h -8.53543 z" />
  <path
     style="fill:#fff2cc;fill-rule:evenodd"
     inkscape:connector-curvature="0"
     id="path331"
     d="m 217.39021,186.01936 h 8.53543 v 10.64566 h -8.53543 z" />
  <path
     style="fill-rule:evenodd;stroke:#000000;stroke-width:1;stroke-linecap:butt;stroke-linejoin:round"
     inkscape:connector-curvature="0"
     id="path333"
     d="m 217.39021,186.01936 h 8.53543 v 10.64566 h -8.53543 z" />
  <path
     style="fill:#fff2cc;fill-rule:evenodd"
     inkscape:connector-curvature="0"
     id="path335"
     d="m 180.44258,178.01936 h 8.53543 v 10.64566 h -8.53543 z" />
  <path
     style="fill-rule:evenodd;stroke:#000000;stroke-width:1;stroke-linecap:butt;stroke-linejoin:round"
     inkscape:connector-curvature="0"
     id="path337"
     d="m 180.44258,178.01936 h 8.53543 v 10.64566 h -8.53543 z" />
  <path
     style="fill:#fff2cc;fill-rule:evenodd"
     inkscape:connector-curvature="0"
     id="path339"
     d="m 265.3902,162.01936 h 8.53543 v 10.64566 h -8.53543 z" />
  <path
     style="fill-rule:evenodd;stroke:#000000;stroke-width:1;stroke-linecap:butt;stroke-linejoin:round"
     inkscape:connector-curvature="0"
     id="path341"
     d="m 265.3902,162.01936 h 8.53543 v 10.64566 h -8.53543 z" />
  <path
     style="fill:#cfe2f3;fill-rule:evenodd"
     inkscape:connector-curvature="0"
     id="path343"
     d="m 273.3902,98.019356 h 8.53543 v 10.645674 h -8.53543 z" />
  <path
     style="fill-rule:evenodd;stroke:#000000;stroke-width:1;stroke-linecap:butt;stroke-linejoin:round"
     inkscape:connector-curvature="0"
     id="path345"
     d="m 273.3902,98.019356 h 8.53543 v 10.645674 h -8.53543 z" />
  <path
     style="fill:#fff2cc;fill-rule:evenodd"
     inkscape:connector-curvature="0"
     id="path347"
     d="m 161.39021,210.01936 h 8.53543 v 10.64566 h -8.53543 z" />
  <path
     style="fill-rule:evenodd;stroke:#000000;stroke-width:1;stroke-linecap:butt;stroke-linejoin:round"
     inkscape:connector-curvature="0"
     id="path349"
     d="m 161.39021,210.01936 h 8.53543 v 10.64566 h -8.53543 z" />
  <path
     style="fill:#fff2cc;fill-rule:evenodd"
     inkscape:connector-curvature="0"
     id="path351"
     d="m 153.39021,194.01936 h 8.53543 v 10.64566 h -8.53543 z" />
  <path
     style="fill-rule:evenodd;stroke:#000000;stroke-width:1;stroke-linecap:butt;stroke-linejoin:round"
     inkscape:connector-curvature="0"
     id="path353"
     d="m 153.39021,194.01936 h 8.53543 v 10.64566 h -8.53543 z" />
  <path
     style="fill:#cfe2f3;fill-rule:evenodd"
     inkscape:connector-curvature="0"
     id="path355"
     d="m 313.3902,42.01936 h 8.53543 v 10.645668 h -8.53543 z" />
  <path
     style="fill-rule:evenodd;stroke:#000000;stroke-width:1;stroke-linecap:butt;stroke-linejoin:round"
     inkscape:connector-curvature="0"
     id="path357"
     d="m 313.3902,42.01936 h 8.53543 v 10.645668 h -8.53543 z" />
  <path
     style="fill:#fff2cc;fill-rule:evenodd"
     inkscape:connector-curvature="0"
     id="path359"
     d="m 178.4952,138.01936 h 8.53543 v 10.64566 h -8.53543 z" />
  <path
     style="fill-rule:evenodd;stroke:#000000;stroke-width:1;stroke-linecap:butt;stroke-linejoin:round"
     inkscape:connector-curvature="0"
     id="path361"
     d="m 178.4952,138.01936 h 8.53543 v 10.64566 h -8.53543 z" />
  <path
     style="fill:#fff2cc;fill-rule:evenodd"
     inkscape:connector-curvature="0"
     id="path363"
     d="m 169.39021,194.01936 h 8.53543 v 10.64566 h -8.53543 z" />
  <path
     style="fill-rule:evenodd;stroke:#000000;stroke-width:1;stroke-linecap:butt;stroke-linejoin:round"
     inkscape:connector-curvature="0"
     id="path365"
     d="m 169.39021,194.01936 h 8.53543 v 10.64566 h -8.53543 z" />
  <path
     style="fill:#fff2cc;fill-rule:evenodd"
     inkscape:connector-curvature="0"
     id="path367"
     d="m 183.98425,186.01936 h 8.53543 v 10.64566 h -8.53543 z" />
  <path
     style="fill-rule:evenodd;stroke:#000000;stroke-width:1;stroke-linecap:butt;stroke-linejoin:round"
     inkscape:connector-curvature="0"
     id="path369"
     d="m 183.98425,186.01936 h 8.53543 v 10.64566 h -8.53543 z" />
  <path
     style="fill:#fff2cc;fill-rule:evenodd"
     inkscape:connector-curvature="0"
     id="path371"
     d="m 185.39021,202.01936 h 8.53543 v 10.64566 h -8.53543 z" />
  <path
     style="fill-rule:evenodd;stroke:#000000;stroke-width:1;stroke-linecap:butt;stroke-linejoin:round"
     inkscape:connector-curvature="0"
     id="path373"
     d="m 185.39021,202.01936 h 8.53543 v 10.64566 h -8.53543 z" />
  <path
     style="fill:#fff2cc;fill-rule:evenodd"
     inkscape:connector-curvature="0"
     id="path375"
     d="m 177.39021,226.01936 h 8.53543 v 10.64566 h -8.53543 z" />
  <path
     style="fill-rule:evenodd;stroke:#000000;stroke-width:1;stroke-linecap:butt;stroke-linejoin:round"
     inkscape:connector-curvature="0"
     id="path377"
     d="m 177.39021,226.01936 h 8.53543 v 10.64566 h -8.53543 z" />
  <path
     style="fill:#fff2cc;fill-rule:evenodd"
     inkscape:connector-curvature="0"
     id="path379"
     d="m 169.39021,210.01936 h 8.53543 v 10.64566 h -8.53543 z" />
  <path
     style="fill-rule:evenodd;stroke:#000000;stroke-width:1;stroke-linecap:butt;stroke-linejoin:round"
     inkscape:connector-curvature="0"
     id="path381"
     d="m 169.39021,210.01936 h 8.53543 v 10.64566 h -8.53543 z" />
  <path
     style="fill:#fff2cc;fill-rule:evenodd"
     inkscape:connector-curvature="0"
     id="path383"
     d="m 265.3902,210.01936 h 8.53543 v 10.64566 h -8.53543 z" />
  <path
     style="fill-rule:evenodd;stroke:#000000;stroke-width:1;stroke-linecap:butt;stroke-linejoin:round"
     inkscape:connector-curvature="0"
     id="path385"
     d="m 265.3902,210.01936 h 8.53543 v 10.64566 h -8.53543 z" />
  <path
     style="fill:#ff0000;fill-rule:evenodd"
     inkscape:connector-curvature="0"
     id="path387"
     d="m 200.3517,180.38058 v 0 c 0,-2.93973 2.1434,-5.32285 4.78741,-5.32285 v 0 c 1.26969,0 2.48739,0.56081 3.3852,1.55903 0.89781,0.99823 1.4022,2.35211 1.4022,3.76382 v 0 c 0,2.93971 -2.1434,5.32283 -4.7874,5.32283 v 0 c -2.64401,0 -4.78741,-2.38312 -4.78741,-5.32283 z" />
  <path
     style="fill-rule:evenodd;stroke:#000000;stroke-width:1;stroke-linecap:butt;stroke-linejoin:round"
     inkscape:connector-curvature="0"
     id="path389"
     d="m 200.3517,180.38058 v 0 c 0,-2.93973 2.1434,-5.32285 4.78741,-5.32285 v 0 c 1.26969,0 2.48739,0.56081 3.3852,1.55903 0.89781,0.99823 1.4022,2.35211 1.4022,3.76382 v 0 c 0,2.93971 -2.1434,5.32283 -4.7874,5.32283 v 0 c -2.64401,0 -4.78741,-2.38312 -4.78741,-5.32283 z" />
  <path
     style="fill:#ff0000;fill-rule:evenodd"
     inkscape:connector-curvature="0"
     id="path391"
     d="m 304.3517,100.38058 v 0 c 0,-2.93972 2.14337,-5.322838 4.78738,-5.322838 v 0 c 1.26972,0 2.4874,0.560799 3.38523,1.559029 0.89779,0.998222 1.40219,2.352104 1.40219,3.763809 v 0 c 0,2.93972 -2.1434,5.32284 -4.78742,5.32284 v 0 c -2.64401,0 -4.78738,-2.38312 -4.78738,-5.32284 z" />
  <path
     style="fill-rule:evenodd;stroke:#000000;stroke-width:1;stroke-linecap:butt;stroke-linejoin:round"
     inkscape:connector-curvature="0"
     id="path393"
     d="m 304.3517,100.38058 v 0 c 0,-2.93972 2.14337,-5.322838 4.78738,-5.322838 v 0 c 1.26972,0 2.4874,0.560799 3.38523,1.559029 0.89779,0.998222 1.40219,2.352104 1.40219,3.763809 v 0 c 0,2.93972 -2.1434,5.32284 -4.78742,5.32284 v 0 c -2.64401,0 -4.78738,-2.38312 -4.78738,-5.32284 z" />
  <path
     style="fill:#ff0000;fill-rule:evenodd"
     inkscape:connector-curvature="0"
     id="path395"
     d="m 352.3517,228.38058 v 0 c 0,-2.93973 2.14337,-5.32285 4.78738,-5.32285 v 0 c 1.26972,0 2.4874,0.56081 3.38523,1.55903 0.89779,0.99823 1.40219,2.35211 1.40219,3.76382 v 0 c 0,2.93971 -2.1434,5.32283 -4.78742,5.32283 v 0 c -2.64401,0 -4.78738,-2.38312 -4.78738,-5.32283 z" />
  <path
     style="fill-rule:evenodd;stroke:#000000;stroke-width:1;stroke-linecap:butt;stroke-linejoin:round"
     inkscape:connector-curvature="0"
     id="path397"
     d="m 352.3517,228.38058 v 0 c 0,-2.93973 2.14337,-5.32285 4.78738,-5.32285 v 0 c 1.26972,0 2.4874,0.56081 3.38523,1.55903 0.89779,0.99823 1.40219,2.35211 1.40219,3.76382 v 0 c 0,2.93971 -2.1434,5.32283 -4.78742,5.32283 v 0 c -2.64401,0 -4.78738,-2.38312 -4.78738,-5.32283 z" />
  <path
     style="fill:#000000;fill-opacity:0;fill-rule:evenodd"
     inkscape:connector-curvature="0"
     id="path399"
     d="m 358.13217,216.9798 h 89.19684 v 14.07873 h -89.19684 z" />
  <path
     style="fill:#fff2cc;fill-rule:evenodd"
     inkscape:connector-curvature="0"
     id="path403"
     d="m 233.39021,234.01936 h 8.53543 v 10.64566 h -8.53543 z" />
  <path
     style="fill-rule:evenodd;stroke:#000000;stroke-width:1;stroke-linecap:butt;stroke-linejoin:round"
     inkscape:connector-curvature="0"
     id="path405"
     d="m 233.39021,234.01936 h 8.53543 v 10.64566 h -8.53543 z" />
  <path
     style="fill:#fff2cc;fill-rule:evenodd"
     inkscape:connector-curvature="0"
     id="path407"
     d="m 145.39021,226.01936 h 8.53543 v 10.64566 h -8.53543 z" />
  <path
     style="fill-rule:evenodd;stroke:#000000;stroke-width:1;stroke-linecap:butt;stroke-linejoin:round"
     inkscape:connector-curvature="0"
     id="path409"
     d="m 145.39021,226.01936 h 8.53543 v 10.64566 h -8.53543 z" />
  <path
     style="fill:#fff2cc;fill-rule:evenodd"
     inkscape:connector-curvature="0"
     id="path411"
     d="m 161.39021,242.01936 h 8.53543 v 10.64566 h -8.53543 z" />
  <path
     style="fill-rule:evenodd;stroke:#000000;stroke-width:1;stroke-linecap:butt;stroke-linejoin:round"
     inkscape:connector-curvature="0"
     id="path413"
     d="m 161.39021,242.01936 h 8.53543 v 10.64566 h -8.53543 z" />
  <text
     xml:space="preserve"
     style="font-style:normal;font-weight:normal;font-size:40px;line-height:125%;font-family:sans-serif;letter-spacing:0px;word-spacing:0px;fill:#000000;fill-opacity:1;stroke:none;stroke-width:1px;stroke-linecap:butt;stroke-linejoin:miter;stroke-opacity:1"
     x="17.209122"
     y="148.25957"
     id="text1436"><tspan
       sodipodi:role="line"
       id="tspan1434"
       x="17.209122"
       y="148.25957"
       style="font-size:16px">tree</tspan></text>
  <text
     id="text1440"
     y="162.25957"
     x="17.209122"
     style="font-style:normal;font-weight:normal;font-size:40px;line-height:125%;font-family:sans-serif;letter-spacing:0px;word-spacing:0px;fill:#000000;fill-opacity:1;stroke:none;stroke-width:1px;stroke-linecap:butt;stroke-linejoin:miter;stroke-opacity:1"
     xml:space="preserve"><tspan
       style="font-size:16px"
       y="162.25957"
       x="17.209122"
       id="tspan1438"
       sodipodi:role="line">height</tspan></text>
  <text
     id="text1444"
     y="317.6904"
     x="208.99216"
     style="font-style:normal;font-weight:normal;font-size:40px;line-height:125%;font-family:sans-serif;letter-spacing:0px;word-spacing:0px;fill:#000000;fill-opacity:1;stroke:none;stroke-width:1px;stroke-linecap:butt;stroke-linejoin:miter;stroke-opacity:1"
     xml:space="preserve"><tspan
       style="font-size:16px"
       y="317.6904"
       x="208.99216"
       id="tspan1442"
       sodipodi:role="line">tree width</tspan></text>
  <text
     xml:space="preserve"
     style="font-style:normal;font-weight:normal;font-size:40px;line-height:125%;font-family:sans-serif;letter-spacing:0px;word-spacing:0px;fill:#000000;fill-opacity:1;stroke:none;stroke-width:1px;stroke-linecap:butt;stroke-linejoin:miter;stroke-opacity:1"
     x="365.96228"
     y="232.28316"
     id="text1448"><tspan
       sodipodi:role="line"
       id="tspan1446"
       x="365.96228"
       y="232.28316"
       style="font-size:13.33333302px">centroid</tspan></text>
  <text
     id="text1498"
     y="256.28314"
     x="365.96228"
     style="font-style:normal;font-weight:normal;font-size:40px;line-height:125%;font-family:sans-serif;letter-spacing:0px;word-spacing:0px;fill:#000000;fill-opacity:1;stroke:none;stroke-width:1px;stroke-linecap:butt;stroke-linejoin:miter;stroke-opacity:1"
     xml:space="preserve"><tspan
       style="font-size:13.33333302px"
       y="256.28314"
       x="365.96228"
       id="tspan1496"
       sodipodi:role="line">cluster 1</tspan></text>
  <text
     xml:space="preserve"
     style="font-style:normal;font-weight:normal;font-size:40px;line-height:125%;font-family:sans-serif;letter-spacing:0px;word-spacing:0px;fill:#000000;fill-opacity:1;stroke:none;stroke-width:1px;stroke-linecap:butt;stroke-linejoin:miter;stroke-opacity:1"
     x="365.96228"
     y="284.28314"
     id="text1502"><tspan
       sodipodi:role="line"
       id="tspan1500"
       x="365.96228"
       y="284.28314"
       style="font-size:13.33333302px">cluster 2</tspan></text>
</svg>
