<?xml version="1.0" standalone="yes"?>

<svg height="120px" version="1.1" viewBox="0.0 0.0 100.0 100.0" fill="none" stroke="none" stroke-linecap="square" stroke-miterlimit="10" xmlns="http://www.w3.org/2000/svg" xmlns:xlink="http://www.w3.org/1999/xlink"><desc>A 2x2 matrix. The top left and bottom right cells contain a 1; the bottom left and top right cells contain a 0.</desc><clipPath id="p.0"><path d="m0 0l100.0 0l0 100.0l-100.0 0l0 -100.0z" clip-rule="nonzero"></path></clipPath><g clip-path="url(#p.0)"><path fill="#000000" fill-opacity="0.0" d="m0 0l100.0 0l0 100.0l-100.0 0z" fill-rule="evenodd"></path><path stroke="#9e9e9e" stroke-width="1.0" stroke-linecap="butt" d="m3.4873688 2.8447108l0 80.997375" fill-rule="nonzero"></path><path stroke="#9e9e9e" stroke-width="1.0" stroke-linecap="butt" d="m50.041176 2.8447108l0 80.997375" fill-rule="nonzero"></path><path stroke="#9e9e9e" stroke-width="1.0" stroke-linecap="butt" d="m96.59498 2.8447108l0 80.997375" fill-rule="nonzero"></path><path stroke="#9e9e9e" stroke-width="1.0" stroke-linecap="butt" d="m2.988681 3.3433983l94.10499 0" fill-rule="nonzero"></path><path stroke="#9e9e9e" stroke-width="1.0" stroke-linecap="butt" d="m2.988681 43.3434l94.10499 0" fill-rule="nonzero"></path><path stroke="#9e9e9e" stroke-width="1.0" stroke-linecap="butt" d="m2.988681 83.3434l94.10499 0" fill-rule="nonzero"></path><path fill="#000000" d="m29.584715 28.143398l-5.34375 0l0 -1.046875l2.1875 0l0 -6.21875l-2.03125 1.109375l-0.421875 -0.96875l2.703125 -1.421875l1.015625 0l0 7.5l1.890625 0l0 1.046875z" fill-rule="nonzero"></path><path fill="#000000" d="m76.404144 23.893398q0 0.96875 -0.203125 1.78125q-0.1875 0.796875 -0.578125 1.375q-0.390625 0.578125 -0.984375 0.890625q-0.59375 0.3125 -1.390625 0.3125q-0.671875 0 -1.234375 -0.25q-0.5625 -0.25 -0.96875 -0.78125q-0.390625 -0.546875 -0.609375 -1.375q-0.203125 -0.828125 -0.203125 -1.953125q0 -0.96875 0.1875 -1.78125q0.203125 -0.8125 0.59375 -1.375q0.390625 -0.578125 0.984375 -0.890625q0.59375 -0.328125 1.390625 -0.328125q0.671875 0 1.234375 0.265625q0.5625 0.25 0.953125 0.796875q0.40625 0.53125 0.609375 1.359375q0.21875 0.828125 0.21875 1.953125zm-1.140625 0.046875q0 -0.234375 -0.015625 -0.453125q-0.015625 -0.21875 -0.03125 -0.421875l-3.609375 2.671875q0.109375 0.34375 0.25 0.640625q0.15625 0.28125 0.359375 0.484375q0.21875 0.203125 0.484375 0.3125q0.265625 0.109375 0.609375 0.109375q0.453125 0 0.8125 -0.203125q0.359375 -0.21875 0.609375 -0.640625q0.265625 -0.421875 0.390625 -1.046875q0.140625 -0.640625 0.140625 -1.453125zm-3.890625 -0.078125q0 0.1875 0 0.390625q0 0.203125 0.03125 0.390625l3.59375 -2.65625q-0.09375 -0.328125 -0.25 -0.59375q-0.140625 -0.28125 -0.359375 -0.484375q-0.203125 -0.203125 -0.46875 -0.3125q-0.265625 -0.109375 -0.609375 -0.109375q-0.4375 0 -0.796875 0.21875q-0.359375 0.21875 -0.625 0.640625q-0.25 0.421875 -0.390625 1.0625q-0.125 0.625 -0.125 1.453125z" fill-rule="nonzero"></path><path fill="#000000" d="m29.85034 63.8934q0 0.9687462 -0.203125 1.7812462q-0.1875 0.796875 -0.578125 1.375q-0.390625 0.578125 -0.984375 0.890625q-0.59375 0.3125 -1.390625 0.3125q-0.671875 0 -1.234375 -0.25q-0.5625 -0.25 -0.96875 -0.78125q-0.390625 -0.546875 -0.609375 -1.375q-0.203125 -0.828125 -0.203125 -1.9531212q0 -0.96875 0.1875 -1.78125q0.203125 -0.8125 0.59375 -1.375q0.390625 -0.578125 0.984375 -0.890625q0.59375 -0.328125 1.390625 -0.328125q0.671875 0 1.234375 0.265625q0.5625 0.25 0.953125 0.796875q0.40625 0.53125 0.609375 1.359375q0.21875 0.828125 0.21875 1.953125zm-1.140625 0.046875q0 -0.234375 -0.015625 -0.453125q-0.015625 -0.21875 -0.03125 -0.421875l-3.609375 2.6718712q0.109375 0.34375 0.25 0.640625q0.15625 0.28125 0.359375 0.484375q0.21875 0.203125 0.484375 0.3125q0.265625 0.109375 0.609375 0.109375q0.453125 0 0.8125 -0.203125q0.359375 -0.21875 0.609375 -0.640625q0.265625 -0.421875 0.390625 -1.046875q0.140625 -0.640625 0.140625 -1.4531212zm-3.890625 -0.078125q0 0.18749619 0 0.3906212q0 0.203125 0.03125 0.390625l3.59375 -2.6562462q-0.09375 -0.328125 -0.25 -0.59375q-0.140625 -0.28125 -0.359375 -0.484375q-0.203125 -0.203125 -0.46875 -0.3125q-0.265625 -0.109375 -0.609375 -0.109375q-0.4375 0 -0.796875 0.21875q-0.359375 0.21875 -0.625 0.640625q-0.25 0.421875 -0.390625 1.0625q-0.125 0.625 -0.125 1.453125z" fill-rule="nonzero"></path><path fill="#000000" d="m76.13852 68.143394l-5.34375 0l0 -1.046875l2.1875 0l0 -6.218746l-2.03125 1.109375l-0.421875 -0.96875l2.703125 -1.421875l1.015625 0l0 7.499996l1.890625 0l0 1.046875z" fill-rule="nonzero"></path></g></svg>
