<?xml version="1.0" standalone="yes"?>

<svg height="120px" version="1.1" viewBox="0.0 0.0 442.9711286089239 100.0" fill="none" stroke="none" stroke-linecap="square" stroke-miterlimit="10" xmlns="http://www.w3.org/2000/svg" xmlns:xlink="http://www.w3.org/1999/xlink"><desc>A 2x2 matrix multiplied by a 2x2 matrix, yielding two values, which are then summed.</desc><clipPath id="p.0"><path d="m0 0l442.97113 0l0 100.0l-442.97113 0l0 -100.0z" clip-rule="nonzero"></path></clipPath><g clip-path="url(#p.0)"><path fill="#000000" fill-opacity="0.0" d="m0 0l442.97113 0l0 100.0l-442.97113 0z" fill-rule="evenodd"></path><path stroke="#9e9e9e" stroke-width="1.0" stroke-linecap="butt" d="m8.124657 7.273665l0 80.997375" fill-rule="nonzero"></path><path stroke="#9e9e9e" stroke-width="1.0" stroke-linecap="butt" d="m54.678463 7.273665l0 80.997375" fill-rule="nonzero"></path><path stroke="#9e9e9e" stroke-width="1.0" stroke-linecap="butt" d="m101.23227 7.273665l0 80.997375" fill-rule="nonzero"></path><path stroke="#9e9e9e" stroke-width="1.0" stroke-linecap="butt" d="m7.625969 7.7723527l94.10499 0" fill-rule="nonzero"></path><path stroke="#9e9e9e" stroke-width="1.0" stroke-linecap="butt" d="m7.625969 47.772354l94.10499 0" fill-rule="nonzero"></path><path stroke="#9e9e9e" stroke-width="1.0" stroke-linecap="butt" d="m7.625969 87.772354l94.10499 0" fill-rule="nonzero"></path><path fill="#000000" d="m26.894136 32.572353l-5.34375 0l0 -1.0468769l2.1875 0l0 -6.21875l-2.03125 1.109375l-0.421875 -0.96875l2.703125 -1.421875l1.015625 0l0 7.5l1.890625 0l0 1.0468769zm7.4059925 0l-5.609377 0l0 -1.0156269l2.203125 -2.1875q0.546875 -0.53125 0.875 -0.921875q0.3437519 -0.390625 0.5312519 -0.703125q0.1875 -0.328125 0.25 -0.609375q0.0625 -0.296875 0.0625 -0.625q0 -0.3125 -0.078125 -0.59375q-0.078125 -0.28125 -0.265625 -0.5q-0.171875 -0.21875 -0.4531269 -0.34375q-0.28125 -0.125 -0.671875 -0.125q-0.53125 0 -0.984375 0.25q-0.4375 0.234375 -0.8125 0.625l-0.625 -0.75q0.484375 -0.515625 1.109375 -0.8125q0.640625 -0.3125 1.46875 -0.3125q0.5625 0 1.0312519 0.171875q0.46875 0.171875 0.796875 0.5q0.34375 0.3125 0.53125 0.78125q0.1875 0.453125 0.1875 1.03125q0 0.484375 -0.140625 0.90625q-0.125 0.40625 -0.390625 0.828125q-0.265625 0.40625 -0.671875 0.859375q-0.390625 0.4375 -0.9375019 0.96875l-1.546875 1.5l4.140627 0l0 1.0781269zm7.327862 -2.140627q0 0.546875 -0.21875 0.96875q-0.21875 0.421875 -0.625 0.7031269q-0.390625 0.28125 -0.9374962 0.4375q-0.53125 0.140625 -1.171875 0.140625q-0.6875 0 -1.21875 -0.140625q-0.53125 -0.15625 -0.890625 -0.4375q-0.359375 -0.2812519 -0.546875 -0.6562519q-0.171875 -0.390625 -0.171875 -0.859375q0 -0.78125 0.421875 -1.34375q0.4375 -0.5625 1.359375 -1.03125q-0.84375 -0.421875 -1.234375 -0.9375q-0.375 -0.515625 -0.375 -1.1875q0 -0.40625 0.171875 -0.796875q0.171875 -0.390625 0.515625 -0.6875q0.34375 -0.296875 0.84375 -0.46875q0.515625 -0.1875 1.21875 -0.1875q0.65625 0 1.15625 0.140625q0.4999962 0.140625 0.8281212 0.40625q0.34375 0.25 0.515625 0.625q0.171875 0.375 0.171875 0.828125q0 0.734375 -0.421875 1.265625q-0.40625 0.515625 -1.1718712 0.90625q0.3749962 0.1875 0.7031212 0.421875q0.328125 0.21875 0.5625 0.5q0.25 0.28125 0.375 0.625q0.140625 0.34375 0.140625 0.765625zm-1.34375 -4.390625q0 -0.578125 -0.4062462 -0.859375q-0.40625 -0.28125 -1.15625 -0.28125q-0.71875 0 -1.125 0.28125q-0.40625 0.265625 -0.40625 0.828125q0 0.25 0.09375 0.46875q0.09375 0.21875 0.296875 0.40625q0.21875 0.1875 0.515625 0.375q0.3125 0.171875 0.734375 0.359375q0.734375 -0.34375 1.09375 -0.71875q0.3593712 -0.375 0.3593712 -0.859375zm0.109375 4.484375q0 -0.25 -0.078125 -0.46875q-0.078125 -0.234375 -0.2812462 -0.453125q-0.203125 -0.21875 -0.546875 -0.4375q-0.328125 -0.21875 -0.84375 -0.453125q-0.453125 0.203125 -0.75 0.421875q-0.296875 0.203125 -0.484375 0.421875q-0.1875 0.21875 -0.265625 0.453125q-0.078125 0.234375 -0.078125 0.5q0 0.296875 0.125 0.515625q0.125 0.21875 0.34375 0.375q0.21875 0.15625 0.53125 0.234375q0.3125 0.078125 0.65625 0.078125q0.359375 0 0.65625 -0.0625q0.3125 -0.078125 0.53125 -0.21875q0.21874619 -0.140625 0.3437462 -0.359375q0.140625 -0.234375 0.140625 -0.546875z" fill-rule="nonzero"></path><path fill="#000000" d="m77.14313 27.837976q0 1.25 -0.296875 2.140625q-0.296875 0.890625 -0.890625 1.46875q-0.578125 0.5781269 -1.453125 0.8593769q-0.859375 0.265625 -2.0 0.265625l-0.703125 0l0 -0.9843769l0.78125 0q0.84375 0 1.453125 -0.171875q0.609375 -0.171875 1.015625 -0.5q0.40625 -0.328125 0.625 -0.796875q0.21875 -0.46875 0.265625 -1.078125l0.03125 -0.265625q-0.40625 0.234375 -0.953125 0.390625q-0.53125 0.140625 -1.15625 0.140625q-0.640625 0 -1.125 -0.1875q-0.484375 -0.1875 -0.8125 -0.53125q-0.328125 -0.34375 -0.484375 -0.796875q-0.15625 -0.46875 -0.15625 -1.015625q0 -0.59375 0.203125 -1.109375q0.21875 -0.515625 0.609375 -0.890625q0.390625 -0.390625 0.921875 -0.609375q0.546875 -0.21875 1.1875 -0.21875q0.640625 0 1.171875 0.21875q0.546875 0.203125 0.9375 0.671875q0.390625 0.453125 0.609375 1.203125q0.21875 0.734375 0.21875 1.796875zm-2.984375 -2.953125q-0.359375 0 -0.671875 0.125q-0.3125 0.109375 -0.53125 0.34375q-0.21875 0.234375 -0.359375 0.578125q-0.125 0.328125 -0.125 0.765625q0 0.390625 0.09375 0.703125q0.09375 0.3125 0.28125 0.53125q0.203125 0.21875 0.515625 0.34375q0.3125 0.109375 0.75 0.109375q0.234375 0 0.484375 -0.046875q0.265625 -0.046875 0.5 -0.125q0.25 -0.078125 0.46875 -0.171875q0.234375 -0.109375 0.40625 -0.21875q0 -0.84375 -0.125 -1.40625q-0.125 -0.5625 -0.359375 -0.90625q-0.234375 -0.34375 -0.578125 -0.484375q-0.328125 -0.140625 -0.75 -0.140625zm10.312241 0.234375l-3.5625 7.453127l-1.296875 0l3.703125 -7.453127l-4.59375 0l0 -1.046875l5.75 0l0 1.046875z" fill-rule="nonzero"></path><path fill="#000000" d="m30.46432 69.994225q0 0.546875 -0.234375 1.046875q-0.21875 0.484375 -0.671875 0.859375q-0.453125 0.359375 -1.140625 0.578125q-0.6875 0.203125 -1.609375 0.203125q-0.515625 0 -0.921875 -0.03125q-0.390625 -0.03125 -0.75 -0.078125l0 -1.015625q0.40625 0.078125 0.859375 0.125q0.453125 0.03125 0.921875 0.03125q0.625 0 1.078125 -0.109375q0.453125 -0.125 0.734375 -0.328125q0.296875 -0.21875 0.421875 -0.53125q0.140625 -0.3125 0.140625 -0.6875q0 -0.359375 -0.15625 -0.609375q-0.15625 -0.265625 -0.453125 -0.4375q-0.28125 -0.171875 -0.671875 -0.265625q-0.390625 -0.09375 -0.859375 -0.09375l-0.96875 0l0 -0.921875l0.984375 0q0.375 0 0.6875 -0.09375q0.328125 -0.109375 0.546875 -0.296875q0.234375 -0.1875 0.34375 -0.46875q0.125 -0.28125 0.125 -0.625q0 -0.6875 -0.421875 -1.0q-0.40625 -0.3125 -1.21875 -0.3125q-0.421875 0 -0.890625 0.09375q-0.453125 0.078125 -0.96875 0.25l0 -1.0q0.21875 -0.078125 0.46875 -0.140625q0.25 -0.0625 0.5 -0.09375q0.25 -0.046871185 0.5 -0.062496185q0.25 -0.03125 0.46875 -0.03125q0.6875 0 1.203125 0.15624619q0.515625 0.140625 0.859375 0.421875q0.34375 0.265625 0.515625 0.65625q0.171875 0.390625 0.171875 0.875q0 0.734375 -0.375 1.234375q-0.375 0.484375 -1.015625 0.78125q0.328125 0.046875 0.640625 0.203125q0.328125 0.15625 0.578125 0.40625q0.265625 0.234375 0.421875 0.578125q0.15625 0.328125 0.15625 0.734375zm7.2809925 -0.140625q0 0.625 -0.28125 1.15625q-0.265625 0.515625 -0.75 0.890625q-0.46875 0.375 -1.125 0.578125q-0.640625 0.203125 -1.40625 0.203125q-0.1875 0 -0.40625 -0.015625q-0.21875 0 -0.4375 -0.015625q-0.203125 -0.015625 -0.40625 -0.03125q-0.203125 -0.015625 -0.375 -0.046875l0 -1.03125q0.359375 0.09375 0.8125 0.140625q0.453125 0.03125 0.90625 0.03125q0.515625 0 0.9375 -0.125q0.421875 -0.125 0.703125 -0.359375q0.296875 -0.234375 0.453125 -0.5625q0.15625 -0.328125 0.15625 -0.734375q0 -0.796875 -0.578125 -1.15625q-0.5625 -0.359375 -1.625 -0.359375l-1.609375 0l0 -4.34375l4.578125 0l0 0.984375l-3.515625 0l0 2.390625l0.75 0q0.609375 0 1.1875 0.109375q0.578125 0.109375 1.03125 0.390625q0.453125 0.265625 0.71875 0.734375q0.28125 0.46875 0.28125 1.171875z" fill-rule="nonzero"></path><path fill="#000000" d="m77.19 72.57235l-5.609375 0l0 -1.015625l2.203125 -2.1875q0.546875 -0.53125 0.875 -0.921875q0.34375 -0.390625 0.53125 -0.703125q0.1875 -0.328125 0.25 -0.609375q0.0625 -0.296875 0.0625 -0.625q0 -0.3125 -0.078125 -0.59375q-0.078125 -0.28125 -0.265625 -0.5q-0.171875 -0.21875 -0.453125 -0.34375q-0.28125 -0.125 -0.671875 -0.125q-0.53125 0 -0.984375 0.25q-0.4375 0.234375 -0.8125 0.625l-0.625 -0.75q0.484375 -0.515625 1.109375 -0.8125q0.640625 -0.3124962 1.46875 -0.3124962q0.5625 0 1.03125 0.17187119q0.46875 0.171875 0.796875 0.5q0.34375 0.3125 0.53125 0.78125q0.1875 0.453125 0.1875 1.03125q0 0.484375 -0.140625 0.90625q-0.125 0.40625 -0.390625 0.828125q-0.265625 0.40625 -0.671875 0.859375q-0.390625 0.4375 -0.9375 0.96875l-1.546875 1.5l4.140625 0l0 1.078125zm7.3278656 0l-5.609375 0l0 -1.015625l2.203125 -2.1875q0.546875 -0.53125 0.875 -0.921875q0.34375 -0.390625 0.53125 -0.703125q0.1875 -0.328125 0.25 -0.609375q0.0625 -0.296875 0.0625 -0.625q0 -0.3125 -0.078125 -0.59375q-0.078125 -0.28125 -0.265625 -0.5q-0.171875 -0.21875 -0.453125 -0.34375q-0.28125 -0.125 -0.671875 -0.125q-0.53125 0 -0.984375 0.25q-0.4375 0.234375 -0.8125 0.625l-0.625 -0.75q0.484375 -0.515625 1.109375 -0.8125q0.640625 -0.3124962 1.46875 -0.3124962q0.5625 0 1.03125 0.17187119q0.46875 0.171875 0.796875 0.5q0.34375 0.3125 0.53125 0.78125q0.1875 0.453125 0.1875 1.03125q0 0.484375 -0.140625 0.90625q-0.125 0.40625 -0.390625 0.828125q-0.265625 0.40625 -0.671875 0.859375q-0.390625 0.4375 -0.9375 0.96875l-1.546875 1.5l4.140625 0l0 1.078125z" fill-rule="nonzero"></path><path stroke="#9e9e9e" stroke-width="1.0" stroke-linecap="butt" d="m120.12466 7.273665l0 80.997375" fill-rule="nonzero"></path><path stroke="#9e9e9e" stroke-width="1.0" stroke-linecap="butt" d="m166.67847 7.273665l0 80.997375" fill-rule="nonzero"></path><path stroke="#9e9e9e" stroke-width="1.0" stroke-linecap="butt" d="m213.23227 7.273665l0 80.997375" fill-rule="nonzero"></path><path stroke="#9e9e9e" stroke-width="1.0" stroke-linecap="butt" d="m119.62597 7.7723527l94.10499 0" fill-rule="nonzero"></path><path stroke="#9e9e9e" stroke-width="1.0" stroke-linecap="butt" d="m119.62597 47.772354l94.10499 0" fill-rule="nonzero"></path><path stroke="#9e9e9e" stroke-width="1.0" stroke-linecap="butt" d="m119.62597 87.772354l94.10499 0" fill-rule="nonzero"></path><path fill="#000000" d="m146.222 32.572353l-5.34375 0l0 -1.0468769l2.1875 0l0 -6.21875l-2.03125 1.109375l-0.421875 -0.96875l2.703125 -1.421875l1.015625 0l0 7.5l1.890625 0l0 1.0468769z" fill-rule="nonzero"></path><path fill="#000000" d="m193.04143 28.322351q0 0.96875 -0.203125 1.78125q-0.1875 0.796875 -0.578125 1.375q-0.390625 0.5781269 -0.984375 0.8906269q-0.59375 0.3125 -1.390625 0.3125q-0.671875 0 -1.234375 -0.25q-0.5625 -0.25 -0.96875 -0.7812519q-0.390625 -0.546875 -0.609375 -1.375q-0.203125 -0.828125 -0.203125 -1.953125q0 -0.96875 0.1875 -1.78125q0.203125 -0.8125 0.59375 -1.375q0.390625 -0.578125 0.984375 -0.890625q0.59375 -0.328125 1.390625 -0.328125q0.671875 0 1.234375 0.265625q0.5625 0.25 0.953125 0.796875q0.40625 0.53125 0.609375 1.359375q0.21875 0.828125 0.21875 1.953125zm-1.140625 0.046875q0 -0.234375 -0.015625 -0.453125q-0.015625 -0.21875 -0.03125 -0.421875l-3.609375 2.671875q0.109375 0.34375 0.25 0.640625q0.15625 0.28125 0.359375 0.484375q0.21875 0.203125 0.484375 0.3125q0.265625 0.109375 0.609375 0.109375q0.453125 0 0.8125 -0.203125q0.359375 -0.21875 0.609375 -0.640625q0.265625 -0.421875 0.390625 -1.046875q0.140625 -0.640625 0.140625 -1.453125zm-3.890625 -0.078125q0 0.1875 0 0.390625q0 0.203125 0.03125 0.390625l3.59375 -2.65625q-0.09375 -0.328125 -0.25 -0.59375q-0.140625 -0.28125 -0.359375 -0.484375q-0.203125 -0.203125 -0.46875 -0.3125q-0.265625 -0.109375 -0.609375 -0.109375q-0.4375 0 -0.796875 0.21875q-0.359375 0.21875 -0.625 0.640625q-0.25 0.421875 -0.390625 1.0625q-0.125 0.625 -0.125 1.453125z" fill-rule="nonzero"></path><path fill="#000000" d="m146.48763 68.32235q0 0.96875 -0.203125 1.78125q-0.1875 0.796875 -0.578125 1.375q-0.390625 0.578125 -0.984375 0.890625q-0.59375 0.3125 -1.390625 0.3125q-0.671875 0 -1.234375 -0.25q-0.5625 -0.25 -0.96875 -0.78125q-0.390625 -0.546875 -0.609375 -1.375q-0.203125 -0.828125 -0.203125 -1.953125q0 -0.96875 0.1875 -1.78125q0.203125 -0.8125 0.59375 -1.375q0.390625 -0.578125 0.984375 -0.890625q0.59375 -0.3281212 1.390625 -0.3281212q0.671875 0 1.234375 0.2656212q0.5625 0.25 0.953125 0.796875q0.40625 0.53125 0.609375 1.359375q0.21875 0.828125 0.21875 1.953125zm-1.140625 0.046875q0 -0.234375 -0.015625 -0.453125q-0.015625 -0.21875 -0.03125 -0.421875l-3.609375 2.671875q0.109375 0.34375 0.25 0.640625q0.15625 0.28125 0.359375 0.484375q0.21875 0.203125 0.484375 0.3125q0.265625 0.109375 0.609375 0.109375q0.453125 0 0.8125 -0.203125q0.359375 -0.21875 0.609375 -0.640625q0.265625 -0.421875 0.390625 -1.046875q0.140625 -0.640625 0.140625 -1.453125zm-3.890625 -0.078125q0 0.1875 0 0.390625q0 0.203125 0.03125 0.390625l3.59375 -2.65625q-0.09375 -0.328125 -0.25 -0.59375q-0.140625 -0.28125 -0.359375 -0.484375q-0.203125 -0.203125 -0.46875 -0.3125q-0.265625 -0.109375 -0.609375 -0.109375q-0.4375 0 -0.796875 0.21875q-0.359375 0.21875 -0.625 0.640625q-0.25 0.421875 -0.390625 1.0625q-0.125 0.625 -0.125 1.453125z" fill-rule="nonzero"></path><path fill="#000000" d="m192.7758 72.57235l-5.34375 0l0 -1.046875l2.1875 0l0 -6.21875l-2.03125 1.109375l-0.421875 -0.96875l2.703125 -1.421875l1.015625 0l0 7.5l1.890625 0l0 1.046875z" fill-rule="nonzero"></path><path stroke="#9e9e9e" stroke-width="1.0" stroke-linecap="butt" d="m232.12466 7.273665l0 80.997375" fill-rule="nonzero"></path><path stroke="#9e9e9e" stroke-width="1.0" stroke-linecap="butt" d="m278.67847 7.273665l0 80.997375" fill-rule="nonzero"></path><path stroke="#9e9e9e" stroke-width="1.0" stroke-linecap="butt" d="m325.23227 7.273665l0 80.997375" fill-rule="nonzero"></path><path stroke="#9e9e9e" stroke-width="1.0" stroke-linecap="butt" d="m231.62598 7.7723527l94.10498 0" fill-rule="nonzero"></path><path stroke="#9e9e9e" stroke-width="1.0" stroke-linecap="butt" d="m231.62598 47.772354l94.10498 0" fill-rule="nonzero"></path><path stroke="#9e9e9e" stroke-width="1.0" stroke-linecap="butt" d="m231.62598 87.772354l94.10498 0" fill-rule="nonzero"></path><path fill="#000000" d="m250.89413 32.572353l-5.34375 0l0 -1.0468769l2.1875 0l0 -6.21875l-2.03125 1.109375l-0.421875 -0.96875l2.703125 -1.421875l1.015625 0l0 7.5l1.890625 0l0 1.0468769zm7.406006 0l-5.6093903 0l0 -1.0156269l2.203125 -2.1875q0.546875 -0.53125 0.875 -0.921875q0.34376526 -0.390625 0.53126526 -0.703125q0.1875 -0.328125 0.25 -0.609375q0.0625 -0.296875 0.0625 -0.625q0 -0.3125 -0.078125 -0.59375q-0.078125 -0.28125 -0.265625 -0.5q-0.171875 -0.21875 -0.45314026 -0.34375q-0.28125 -0.125 -0.671875 -0.125q-0.53125 0 -0.984375 0.25q-0.4375 0.234375 -0.8125 0.625l-0.625 -0.75q0.484375 -0.515625 1.109375 -0.8125q0.640625 -0.3125 1.46875 -0.3125q0.5625 0 1.0312653 0.171875q0.46875 0.171875 0.796875 0.5q0.34375 0.3125 0.53125 0.78125q0.1875 0.453125 0.1875 1.03125q0 0.484375 -0.140625 0.90625q-0.125 0.40625 -0.390625 0.828125q-0.265625 0.40625 -0.671875 0.859375q-0.390625 0.4375 -0.93751526 0.96875l-1.546875 1.5l4.1406403 0l0 1.0781269zm7.3278503 -2.140627q0 0.546875 -0.21875 0.96875q-0.21875 0.421875 -0.625 0.7031269q-0.390625 0.28125 -0.9375 0.4375q-0.53125 0.140625 -1.171875 0.140625q-0.6875 0 -1.21875 -0.140625q-0.53125 -0.15625 -0.890625 -0.4375q-0.359375 -0.2812519 -0.546875 -0.6562519q-0.171875 -0.390625 -0.171875 -0.859375q0 -0.78125 0.421875 -1.34375q0.4375 -0.5625 1.359375 -1.03125q-0.84375 -0.421875 -1.234375 -0.9375q-0.375 -0.515625 -0.375 -1.1875q0 -0.40625 0.171875 -0.796875q0.171875 -0.390625 0.515625 -0.6875q0.34375 -0.296875 0.84375 -0.46875q0.515625 -0.1875 1.21875 -0.1875q0.65625 0 1.15625 0.140625q0.5 0.140625 0.828125 0.40625q0.34375 0.25 0.515625 0.625q0.171875 0.375 0.171875 0.828125q0 0.734375 -0.421875 1.265625q-0.40625 0.515625 -1.171875 0.90625q0.375 0.1875 0.703125 0.421875q0.328125 0.21875 0.5625 0.5q0.25 0.28125 0.375 0.625q0.140625 0.34375 0.140625 0.765625zm-1.34375 -4.390625q0 -0.578125 -0.40625 -0.859375q-0.40625 -0.28125 -1.15625 -0.28125q-0.71875 0 -1.125 0.28125q-0.40625 0.265625 -0.40625 0.828125q0 0.25 0.09375 0.46875q0.09375 0.21875 0.296875 0.40625q0.21875 0.1875 0.515625 0.375q0.3125 0.171875 0.734375 0.359375q0.734375 -0.34375 1.09375 -0.71875q0.359375 -0.375 0.359375 -0.859375zm0.109375 4.484375q0 -0.25 -0.078125 -0.46875q-0.078125 -0.234375 -0.28125 -0.453125q-0.203125 -0.21875 -0.546875 -0.4375q-0.328125 -0.21875 -0.84375 -0.453125q-0.453125 0.203125 -0.75 0.421875q-0.296875 0.203125 -0.484375 0.421875q-0.1875 0.21875 -0.265625 0.453125q-0.078125 0.234375 -0.078125 0.5q0 0.296875 0.125 0.515625q0.125 0.21875 0.34375 0.375q0.21875 0.15625 0.53125 0.234375q0.3125 0.078125 0.65625 0.078125q0.359375 0 0.65625 -0.0625q0.3125 -0.078125 0.53125 -0.21875q0.21875 -0.140625 0.34375 -0.359375q0.140625 -0.234375 0.140625 -0.546875z" fill-rule="nonzero"></path><path fill="#000000" d="m305.04144 28.322351q0 0.96875 -0.203125 1.78125q-0.1875 0.796875 -0.578125 1.375q-0.390625 0.5781269 -0.984375 0.8906269q-0.59375 0.3125 -1.390625 0.3125q-0.671875 0 -1.234375 -0.25q-0.5625 -0.25 -0.96875 -0.7812519q-0.390625 -0.546875 -0.609375 -1.375q-0.203125 -0.828125 -0.203125 -1.953125q0 -0.96875 0.1875 -1.78125q0.203125 -0.8125 0.59375 -1.375q0.390625 -0.578125 0.984375 -0.890625q0.59375 -0.328125 1.390625 -0.328125q0.671875 0 1.234375 0.265625q0.5625 0.25 0.953125 0.796875q0.40625 0.53125 0.609375 1.359375q0.21875 0.828125 0.21875 1.953125zm-1.140625 0.046875q0 -0.234375 -0.015625 -0.453125q-0.015625 -0.21875 -0.03125 -0.421875l-3.609375 2.671875q0.109375 0.34375 0.25 0.640625q0.15625 0.28125 0.359375 0.484375q0.21875 0.203125 0.484375 0.3125q0.265625 0.109375 0.609375 0.109375q0.453125 0 0.8125 -0.203125q0.359375 -0.21875 0.609375 -0.640625q0.265625 -0.421875 0.390625 -1.046875q0.140625 -0.640625 0.140625 -1.453125zm-3.890625 -0.078125q0 0.1875 0 0.390625q0 0.203125 0.03125 0.390625l3.59375 -2.65625q-0.09375 -0.328125 -0.25 -0.59375q-0.140625 -0.28125 -0.359375 -0.484375q-0.203125 -0.203125 -0.46875 -0.3125q-0.265625 -0.109375 -0.609375 -0.109375q-0.4375 0 -0.796875 0.21875q-0.359375 0.21875 -0.625 0.640625q-0.25 0.421875 -0.390625 1.0625q-0.125 0.625 -0.125 1.453125z" fill-rule="nonzero"></path><path fill="#000000" d="m258.48764 68.32235q0 0.96875 -0.203125 1.78125q-0.1875 0.796875 -0.578125 1.375q-0.390625 0.578125 -0.984375 0.890625q-0.59375 0.3125 -1.3906403 0.3125q-0.671875 0 -1.234375 -0.25q-0.5625 -0.25 -0.96875 -0.78125q-0.390625 -0.546875 -0.609375 -1.375q-0.203125 -0.828125 -0.203125 -1.953125q0 -0.96875 0.1875 -1.78125q0.203125 -0.8125 0.59375 -1.375q0.390625 -0.578125 0.984375 -0.890625q0.59375 -0.3281212 1.390625 -0.3281212q0.67189026 0 1.2343903 0.2656212q0.5625 0.25 0.953125 0.796875q0.40625 0.53125 0.609375 1.359375q0.21875 0.828125 0.21875 1.953125zm-1.140625 0.046875q0 -0.234375 -0.015625 -0.453125q-0.015625 -0.21875 -0.03125 -0.421875l-3.6093903 2.671875q0.109375 0.34375 0.25 0.640625q0.15625 0.28125 0.359375 0.484375q0.21875 0.203125 0.484375 0.3125q0.265625 0.109375 0.609375 0.109375q0.453125 0 0.81251526 -0.203125q0.359375 -0.21875 0.609375 -0.640625q0.265625 -0.421875 0.390625 -1.046875q0.140625 -0.640625 0.140625 -1.453125zm-3.8906403 -0.078125q0 0.1875 0 0.390625q0 0.203125 0.03125 0.390625l3.5937653 -2.65625q-0.09375 -0.328125 -0.25 -0.59375q-0.140625 -0.28125 -0.359375 -0.484375q-0.203125 -0.203125 -0.46875 -0.3125q-0.26564026 -0.109375 -0.60939026 -0.109375q-0.4375 0 -0.796875 0.21875q-0.359375 0.21875 -0.625 0.640625q-0.25 0.421875 -0.390625 1.0625q-0.125 0.625 -0.125 1.453125z" fill-rule="nonzero"></path><path fill="#000000" d="m301.19 72.57235l-5.609375 0l0 -1.015625l2.203125 -2.1875q0.546875 -0.53125 0.875 -0.921875q0.34375 -0.390625 0.53125 -0.703125q0.1875 -0.328125 0.25 -0.609375q0.0625 -0.296875 0.0625 -0.625q0 -0.3125 -0.078125 -0.59375q-0.078125 -0.28125 -0.265625 -0.5q-0.171875 -0.21875 -0.453125 -0.34375q-0.28125 -0.125 -0.671875 -0.125q-0.53125 0 -0.984375 0.25q-0.4375 0.234375 -0.8125 0.625l-0.625 -0.75q0.484375 -0.515625 1.109375 -0.8125q0.640625 -0.3124962 1.46875 -0.3124962q0.5625 0 1.03125 0.17187119q0.46875 0.171875 0.796875 0.5q0.34375 0.3125 0.53125 0.78125q0.1875 0.453125 0.1875 1.03125q0 0.484375 -0.140625 0.90625q-0.125 0.40625 -0.390625 0.828125q-0.265625 0.40625 -0.671875 0.859375q-0.390625 0.4375 -0.9375 0.96875l-1.546875 1.5l4.140625 0l0 1.078125zm7.3278503 0l-5.609375 0l0 -1.015625l2.203125 -2.1875q0.546875 -0.53125 0.875 -0.921875q0.34375 -0.390625 0.53125 -0.703125q0.1875 -0.328125 0.25 -0.609375q0.0625 -0.296875 0.0625 -0.625q0 -0.3125 -0.078125 -0.59375q-0.078125 -0.28125 -0.265625 -0.5q-0.171875 -0.21875 -0.453125 -0.34375q-0.28125 -0.125 -0.671875 -0.125q-0.53125 0 -0.984375 0.25q-0.4375 0.234375 -0.8125 0.625l-0.625 -0.75q0.484375 -0.515625 1.109375 -0.8125q0.640625 -0.3124962 1.46875 -0.3124962q0.5625 0 1.03125 0.17187119q0.46875 0.171875 0.796875 0.5q0.34375 0.3125 0.53125 0.78125q0.1875 0.453125 0.1875 1.03125q0 0.484375 -0.140625 0.90625q-0.125 0.40625 -0.390625 0.828125q-0.265625 0.40625 -0.671875 0.859375q-0.390625 0.4375 -0.9375 0.96875l-1.546875 1.5l4.140625 0l0 1.078125z" fill-rule="nonzero"></path><path fill="#000000" fill-opacity="0.0" d="m205.52487 30.774279l37.85826 0l0 24.409449l-37.85826 0z" fill-rule="evenodd"></path><path fill="#000000" d="m221.57175 46.9649l-6.3125 0l0 -1.09375l6.3125 0l0 1.09375zm0 2.890625l-6.3125 0l0 -1.09375l6.3125 0l0 1.09375zm7.7834167 -1.453125l-6.3125 2.703125l0 -1.171875l5.0 -2.078125l-5.0 -2.046875l0 -1.171875l6.3125 2.671875l0 1.09375z" fill-rule="nonzero"></path><path fill="#000000" fill-opacity="0.0" d="m97.1515 28.594238l21.41732 0l0 24.40945l-21.41732 0z" fill-rule="evenodd"></path><path fill="#000000" d="m106.24525 50.394238l2.53125 -3.59375l-2.34375 -3.3125l1.46875 0l1.0625 1.609375q0.296875 0.46875 0.484375 0.78125q0.28125 -0.4375 0.515625 -0.765625l1.171875 -1.625l1.40625 0l-2.390625 3.25l2.5625 3.65625l-1.4375 0l-1.421875 -2.140625l-0.375 -0.59375l-1.8125 2.734375l-1.421875 0z" fill-rule="nonzero"></path><path stroke="#9e9e9e" stroke-width="1.0" stroke-linecap="butt" d="m342.18372 30.597113l0 36.19422" fill-rule="nonzero"></path><path stroke="#9e9e9e" stroke-width="1.0" stroke-linecap="butt" d="m439.18372 30.597113l0 36.19422" fill-rule="nonzero"></path><path stroke="#9e9e9e" stroke-width="1.0" stroke-linecap="butt" d="m341.68503 31.0958l97.997375 0" fill-rule="nonzero"></path><path stroke="#9e9e9e" stroke-width="1.0" stroke-linecap="butt" d="m341.68503 66.29265l97.997375 0" fill-rule="nonzero"></path><path fill="#000000" d="m357.6681 52.8958l-5.34375 0l0 -1.046875l2.1875 0l0 -6.21875l-2.03125 1.109375l-0.421875 -0.96875l2.703125 -1.421875l1.015625 0l0 7.5l1.890625 0l0 1.046875zm7.406006 0l-5.609375 0l0 -1.015625l2.203125 -2.1875q0.546875 -0.53125 0.875 -0.921875q0.34375 -0.390625 0.53125 -0.703125q0.1875 -0.328125 0.25 -0.609375q0.0625 -0.296875 0.0625 -0.625q0 -0.3125 -0.078125 -0.59375q-0.078125 -0.28125 -0.265625 -0.5q-0.171875 -0.21875 -0.453125 -0.34375q-0.28125 -0.125 -0.671875 -0.125q-0.53125 0 -0.984375 0.25q-0.4375 0.234375 -0.8125 0.625l-0.625 -0.75q0.484375 -0.515625 1.109375 -0.8125q0.640625 -0.3125 1.46875 -0.3125q0.5625 0 1.03125 0.171875q0.46875 0.171875 0.796875 0.5q0.34375 0.3125 0.53125 0.78125q0.1875 0.453125 0.1875 1.03125q0 0.484375 -0.140625 0.90625q-0.125 0.40625 -0.390625 0.828125q-0.265625 0.40625 -0.671875 0.859375q-0.390625 0.4375 -0.9375 0.96875l-1.546875 1.5l4.140625 0l0 1.078125zm7.3278503 -2.140625q0 0.546875 -0.21875 0.96875q-0.21875 0.421875 -0.625 0.703125q-0.390625 0.28125 -0.9375 0.4375q-0.53125 0.140625 -1.171875 0.140625q-0.6875 0 -1.21875 -0.140625q-0.53125 -0.15625 -0.890625 -0.4375q-0.359375 -0.28125 -0.546875 -0.65625q-0.171875 -0.390625 -0.171875 -0.859375q0 -0.78125 0.421875 -1.34375q0.4375 -0.5625 1.359375 -1.03125q-0.84375 -0.421875 -1.234375 -0.9375q-0.375 -0.515625 -0.375 -1.1875q0 -0.40625 0.171875 -0.796875q0.171875 -0.390625 0.515625 -0.6875q0.34375 -0.296875 0.84375 -0.46875q0.515625 -0.1875 1.21875 -0.1875q0.65625 0 1.15625 0.140625q0.5 0.140625 0.828125 0.40625q0.34375 0.25 0.515625 0.625q0.171875 0.375 0.171875 0.828125q0 0.734375 -0.421875 1.265625q-0.40625 0.515625 -1.171875 0.90625q0.375 0.1875 0.703125 0.421875q0.328125 0.21875 0.5625 0.5q0.25 0.28125 0.375 0.625q0.140625 0.34375 0.140625 0.765625zm-1.34375 -4.390625q0 -0.578125 -0.40625 -0.859375q-0.40625 -0.28125 -1.15625 -0.28125q-0.71875 0 -1.125 0.28125q-0.40625 0.265625 -0.40625 0.828125q0 0.25 0.09375 0.46875q0.09375 0.21875 0.296875 0.40625q0.21875 0.1875 0.515625 0.375q0.3125 0.171875 0.734375 0.359375q0.734375 -0.34375 1.09375 -0.71875q0.359375 -0.375 0.359375 -0.859375zm0.109375 4.484375q0 -0.25 -0.078125 -0.46875q-0.078125 -0.234375 -0.28125 -0.453125q-0.203125 -0.21875 -0.546875 -0.4375q-0.328125 -0.21875 -0.84375 -0.453125q-0.453125 0.203125 -0.75 0.421875q-0.296875 0.203125 -0.484375 0.421875q-0.1875 0.21875 -0.265625 0.453125q-0.078125 0.234375 -0.078125 0.5q0 0.296875 0.125 0.515625q0.125 0.21875 0.34375 0.375q0.21875 0.15625 0.53125 0.234375q0.3125 0.078125 0.65625 0.078125q0.359375 0 0.65625 -0.0625q0.3125 -0.078125 0.53125 -0.21875q0.21875 -0.140625 0.34375 -0.359375q0.140625 -0.234375 0.140625 -0.546875zm8.781006 -1.0l-2.5625 0l0 2.65625l-1.109375 0l0 -2.65625l-2.5625 0l0 -1.0l2.5625 0l0 -2.625l1.109375 0l0 2.625l2.5625 0l0 1.0zm7.1091003 3.046875l-5.609375 0l0 -1.015625l2.203125 -2.1875q0.546875 -0.53125 0.875 -0.921875q0.34375 -0.390625 0.53125 -0.703125q0.1875 -0.328125 0.25 -0.609375q0.0625 -0.296875 0.0625 -0.625q0 -0.3125 -0.078125 -0.59375q-0.078125 -0.28125 -0.265625 -0.5q-0.171875 -0.21875 -0.453125 -0.34375q-0.28125 -0.125 -0.671875 -0.125q-0.53125 0 -0.984375 0.25q-0.4375 0.234375 -0.8125 0.625l-0.625 -0.75q0.484375 -0.515625 1.109375 -0.8125q0.640625 -0.3125 1.46875 -0.3125q0.5625 0 1.03125 0.171875q0.46875 0.171875 0.796875 0.5q0.34375 0.3125 0.53125 0.78125q0.1875 0.453125 0.1875 1.03125q0 0.484375 -0.140625 0.90625q-0.125 0.40625 -0.390625 0.828125q-0.265625 0.40625 -0.671875 0.859375q-0.390625 0.4375 -0.9375 0.96875l-1.546875 1.5l4.140625 0l0 1.078125zm7.327881 0l-5.609375 0l0 -1.015625l2.203125 -2.1875q0.546875 -0.53125 0.875 -0.921875q0.34375 -0.390625 0.53125 -0.703125q0.1875 -0.328125 0.25 -0.609375q0.0625 -0.296875 0.0625 -0.625q0 -0.3125 -0.078125 -0.59375q-0.078125 -0.28125 -0.265625 -0.5q-0.171875 -0.21875 -0.453125 -0.34375q-0.28125 -0.125 -0.671875 -0.125q-0.53125 0 -0.984375 0.25q-0.4375 0.234375 -0.8125 0.625l-0.625 -0.75q0.484375 -0.515625 1.109375 -0.8125q0.640625 -0.3125 1.46875 -0.3125q0.5625 0 1.03125 0.171875q0.46875 0.171875 0.796875 0.5q0.34375 0.3125 0.53125 0.78125q0.1875 0.453125 0.1875 1.03125q0 0.484375 -0.140625 0.90625q-0.125 0.40625 -0.390625 0.828125q-0.265625 0.40625 -0.671875 0.859375q-0.390625 0.4375 -0.9375 0.96875l-1.546875 1.5l4.140625 0l0 1.078125zm7.2341003 -4.203125l-5.609375 0l0 -0.953125l5.609375 0l0 0.953125zm0 2.265625l-5.609375 0l0 -0.953125l5.609375 0l0 0.953125zm7.343506 1.9375l-5.34375 0l0 -1.046875l2.1875 0l0 -6.21875l-2.03125 1.109375l-0.421875 -0.96875l2.703125 -1.421875l1.015625 0l0 7.5l1.890625 0l0 1.046875zm7.1872253 -2.71875q0 0.625 -0.28125 1.15625q-0.265625 0.515625 -0.75 0.890625q-0.46875 0.375 -1.125 0.578125q-0.640625 0.203125 -1.40625 0.203125q-0.1875 0 -0.40625 -0.015625q-0.21875 0 -0.4375 -0.015625q-0.203125 -0.015625 -0.40625 -0.03125q-0.203125 -0.015625 -0.375 -0.046875l0 -1.03125q0.359375 0.09375 0.8125 0.140625q0.453125 0.03125 0.90625 0.03125q0.515625 0 0.9375 -0.125q0.421875 -0.125 0.703125 -0.359375q0.296875 -0.234375 0.453125 -0.5625q0.15625 -0.328125 0.15625 -0.734375q0 -0.796875 -0.578125 -1.15625q-0.5625 -0.359375 -1.625 -0.359375l-1.609375 0l0 -4.34375l4.578125 0l0 0.984375l-3.515625 0l0 2.390625l0.75 0q0.609375 0 1.1875 0.109375q0.578125 0.109375 1.03125 0.390625q0.453125 0.265625 0.71875 0.734375q0.28125 0.46875 0.28125 1.171875zm7.734131 -1.53125q0 0.96875 -0.203125 1.78125q-0.1875 0.796875 -0.578125 1.375q-0.390625 0.578125 -0.984375 0.890625q-0.59375 0.3125 -1.390625 0.3125q-0.671875 0 -1.234375 -0.25q-0.5625 -0.25 -0.96875 -0.78125q-0.390625 -0.546875 -0.609375 -1.375q-0.203125 -0.828125 -0.203125 -1.953125q0 -0.96875 0.1875 -1.78125q0.203125 -0.8125 0.59375 -1.375q0.390625 -0.578125 0.984375 -0.890625q0.59375 -0.328125 1.390625 -0.328125q0.671875 0 1.234375 0.265625q0.5625 0.25 0.953125 0.796875q0.40625 0.53125 0.609375 1.359375q0.21875 0.828125 0.21875 1.953125zm-1.140625 0.046875q0 -0.234375 -0.015625 -0.453125q-0.015625 -0.21875 -0.03125 -0.421875l-3.609375 2.671875q0.109375 0.34375 0.25 0.640625q0.15625 0.28125 0.359375 0.484375q0.21875 0.203125 0.484375 0.3125q0.265625 0.109375 0.609375 0.109375q0.453125 0 0.8125 -0.203125q0.359375 -0.21875 0.609375 -0.640625q0.265625 -0.421875 0.390625 -1.046875q0.140625 -0.640625 0.140625 -1.453125zm-3.890625 -0.078125q0 0.1875 0 0.390625q0 0.203125 0.03125 0.390625l3.59375 -2.65625q-0.09375 -0.328125 -0.25 -0.59375q-0.140625 -0.28125 -0.359375 -0.484375q-0.203125 -0.203125 -0.46875 -0.3125q-0.265625 -0.109375 -0.609375 -0.109375q-0.4375 0 -0.796875 0.21875q-0.359375 0.21875 -0.625 0.640625q-0.25 0.421875 -0.390625 1.0625q-0.125 0.625 -0.125 1.453125z" fill-rule="nonzero"></path><path fill="#000000" fill-opacity="0.0" d="m319.69284 30.774279l26.456696 0l0 24.409449l-26.456696 0z" fill-rule="evenodd"></path><path fill="#000000" d="m335.73972 46.9649l-6.3125 0l0 -1.09375l6.3125 0l0 1.09375zm0 2.890625l-6.3125 0l0 -1.09375l6.3125 0l0 1.09375z" fill-rule="nonzero"></path></g></svg>
