<svg version="1.1" viewBox="0.0 0.0 444.33858267716533 337.4278215223097" fill="none" stroke="none" stroke-linecap="square" stroke-miterlimit="10" xmlns:xlink="http://www.w3.org/1999/xlink" xmlns="http://www.w3.org/2000/svg"><clipPath id="p.0"><path d="m0 0l444.3386 0l0 337.42783l-444.3386 0l0 -337.42783z" clip-rule="nonzero"/></clipPath><g clip-path="url(#p.0)"><path fill="#000000" fill-opacity="0.0" d="m0 0l444.3386 0l0 337.42783l-444.3386 0z" fill-rule="evenodd"/><path fill="#000000" fill-opacity="0.0" d="m76.13614 8.670278l0 289.70078" fill-rule="evenodd"/><path stroke="#000000" stroke-width="1.0" stroke-linejoin="round" stroke-linecap="butt" d="m76.13614 8.670278l0 289.70078" fill-rule="evenodd"/><path fill="#000000" fill-opacity="0.0" d="m76.13614 298.3742l358.92914 0" fill-rule="evenodd"/><path stroke="#000000" stroke-width="1.0" stroke-linejoin="round" stroke-linecap="butt" d="m76.13614 298.3742l358.92914 0" fill-rule="evenodd"/><path fill="#fff2cc" d="m129.39021 258.01935l8.535431 0l0 10.645691l-8.535431 0z" fill-rule="evenodd"/><path stroke="#000000" stroke-width="1.0" stroke-linejoin="round" stroke-linecap="butt" d="m129.39021 258.01935l8.535431 0l0 10.645691l-8.535431 0z" fill-rule="evenodd"/><path fill="#fff2cc" d="m145.39021 266.01935l8.535431 0l0 10.645691l-8.535431 0z" fill-rule="evenodd"/><path stroke="#000000" stroke-width="1.0" stroke-linejoin="round" stroke-linecap="butt" d="m145.39021 266.01935l8.535431 0l0 10.645691l-8.535431 0z" fill-rule="evenodd"/><path fill="#fff2cc" d="m153.39021 250.01936l8.535431 0l0 10.645676l-8.535431 0z" fill-rule="evenodd"/><path stroke="#000000" stroke-width="1.0" stroke-linejoin="round" stroke-linecap="butt" d="m153.39021 250.01936l8.535431 0l0 10.645676l-8.535431 0z" fill-rule="evenodd"/><path fill="#fff2cc" d="m153.39021 234.01936l8.535431 0l0 10.64566l-8.535431 0z" fill-rule="evenodd"/><path stroke="#000000" stroke-width="1.0" stroke-linejoin="round" stroke-linecap="butt" d="m153.39021 234.01936l8.535431 0l0 10.64566l-8.535431 0z" fill-rule="evenodd"/><path fill="#fff2cc" d="m169.39021 226.01936l8.535431 0l0 10.64566l-8.535431 0z" fill-rule="evenodd"/><path stroke="#000000" stroke-width="1.0" stroke-linejoin="round" stroke-linecap="butt" d="m169.39021 226.01936l8.535431 0l0 10.64566l-8.535431 0z" fill-rule="evenodd"/><path fill="#fff2cc" d="m161.39021 210.01936l8.535431 0l0 10.64566l-8.535431 0z" fill-rule="evenodd"/><path stroke="#000000" stroke-width="1.0" stroke-linejoin="round" stroke-linecap="butt" d="m161.39021 210.01936l8.535431 0l0 10.64566l-8.535431 0z" fill-rule="evenodd"/><path fill="#fff2cc" d="m137.39021 186.01936l8.535431 0l0 10.64566l-8.535431 0z" fill-rule="evenodd"/><path stroke="#000000" stroke-width="1.0" stroke-linejoin="round" stroke-linecap="butt" d="m137.39021 186.01936l8.535431 0l0 10.64566l-8.535431 0z" fill-rule="evenodd"/><path fill="#fff2cc" d="m193.39021 202.01936l8.535431 0l0 10.64566l-8.535431 0z" fill-rule="evenodd"/><path stroke="#000000" stroke-width="1.0" stroke-linejoin="round" stroke-linecap="butt" d="m193.39021 202.01936l8.535431 0l0 10.64566l-8.535431 0z" fill-rule="evenodd"/><path fill="#fff2cc" d="m201.39021 186.01936l8.535431 0l0 10.64566l-8.535431 0z" fill-rule="evenodd"/><path stroke="#000000" stroke-width="1.0" stroke-linejoin="round" stroke-linecap="butt" d="m201.39021 186.01936l8.535431 0l0 10.64566l-8.535431 0z" fill-rule="evenodd"/><path fill="#fff2cc" d="m177.39021 202.01936l8.535431 0l0 10.64566l-8.535431 0z" fill-rule="evenodd"/><path stroke="#000000" stroke-width="1.0" stroke-linejoin="round" stroke-linecap="butt" d="m177.39021 202.01936l8.535431 0l0 10.64566l-8.535431 0z" fill-rule="evenodd"/><path fill="#cfe2f3" d="m225.39021 162.01936l8.535431 0l0 10.64566l-8.535431 0z" fill-rule="evenodd"/><path stroke="#000000" stroke-width="1.0" stroke-linejoin="round" stroke-linecap="butt" d="m225.39021 162.01936l8.535431 0l0 10.64566l-8.535431 0z" fill-rule="evenodd"/><path fill="#fff2cc" d="m161.39021 266.01935l8.535431 0l0 10.645691l-8.535431 0z" fill-rule="evenodd"/><path stroke="#000000" stroke-width="1.0" stroke-linejoin="round" stroke-linecap="butt" d="m161.39021 266.01935l8.535431 0l0 10.645691l-8.535431 0z" fill-rule="evenodd"/><path fill="#fff2cc" d="m177.39021 274.01935l8.535431 0l0 10.645691l-8.535431 0z" fill-rule="evenodd"/><path stroke="#000000" stroke-width="1.0" stroke-linejoin="round" stroke-linecap="butt" d="m177.39021 274.01935l8.535431 0l0 10.645691l-8.535431 0z" fill-rule="evenodd"/><path fill="#fff2cc" d="m185.39021 258.01935l8.535431 0l0 10.645691l-8.535431 0z" fill-rule="evenodd"/><path stroke="#000000" stroke-width="1.0" stroke-linejoin="round" stroke-linecap="butt" d="m185.39021 258.01935l8.535431 0l0 10.645691l-8.535431 0z" fill-rule="evenodd"/><path fill="#fff2cc" d="m185.39021 242.01936l8.535431 0l0 10.64566l-8.535431 0z" fill-rule="evenodd"/><path stroke="#000000" stroke-width="1.0" stroke-linejoin="round" stroke-linecap="butt" d="m185.39021 242.01936l8.535431 0l0 10.64566l-8.535431 0z" fill-rule="evenodd"/><path fill="#fff2cc" d="m193.39021 226.01936l8.535431 0l0 10.64566l-8.535431 0z" fill-rule="evenodd"/><path stroke="#000000" stroke-width="1.0" stroke-linejoin="round" stroke-linecap="butt" d="m193.39021 226.01936l8.535431 0l0 10.64566l-8.535431 0z" fill-rule="evenodd"/><path fill="#fff2cc" d="m209.39021 218.01936l8.535431 0l0 10.64566l-8.535431 0z" fill-rule="evenodd"/><path stroke="#000000" stroke-width="1.0" stroke-linejoin="round" stroke-linecap="butt" d="m209.39021 218.01936l8.535431 0l0 10.64566l-8.535431 0z" fill-rule="evenodd"/><path fill="#cfe2f3" d="m231.39359 188.01598l8.535446 0l0 10.64566l-8.535446 0z" fill-rule="evenodd"/><path stroke="#000000" stroke-width="1.0" stroke-linejoin="round" stroke-linecap="butt" d="m231.39359 188.01598l8.535446 0l0 10.64566l-8.535446 0z" fill-rule="evenodd"/><path fill="#fff2cc" d="m217.39021 242.01936l8.535431 0l0 10.64566l-8.535431 0z" fill-rule="evenodd"/><path stroke="#000000" stroke-width="1.0" stroke-linejoin="round" stroke-linecap="butt" d="m217.39021 242.01936l8.535431 0l0 10.64566l-8.535431 0z" fill-rule="evenodd"/><path fill="#fff2cc" d="m185.39021 214.01936l8.535431 0l0 10.64566l-8.535431 0z" fill-rule="evenodd"/><path stroke="#000000" stroke-width="1.0" stroke-linejoin="round" stroke-linecap="butt" d="m185.39021 214.01936l8.535431 0l0 10.64566l-8.535431 0z" fill-rule="evenodd"/><path fill="#cfe2f3" d="m249.39021 186.01936l8.535416 0l0 10.64566l-8.535416 0z" fill-rule="evenodd"/><path stroke="#000000" stroke-width="1.0" stroke-linejoin="round" stroke-linecap="butt" d="m249.39021 186.01936l8.535416 0l0 10.64566l-8.535416 0z" fill-rule="evenodd"/><path fill="#cfe2f3" d="m257.3902 170.01936l8.535431 0l0 10.64566l-8.535431 0z" fill-rule="evenodd"/><path stroke="#000000" stroke-width="1.0" stroke-linejoin="round" stroke-linecap="butt" d="m257.3902 170.01936l8.535431 0l0 10.64566l-8.535431 0z" fill-rule="evenodd"/><path fill="#fff2cc" d="m177.39021 178.01936l8.535431 0l0 10.64566l-8.535431 0z" fill-rule="evenodd"/><path stroke="#000000" stroke-width="1.0" stroke-linejoin="round" stroke-linecap="butt" d="m177.39021 178.01936l8.535431 0l0 10.64566l-8.535431 0z" fill-rule="evenodd"/><path fill="#cfe2f3" d="m241.39021 170.01936l8.535431 0l0 10.64566l-8.535431 0z" fill-rule="evenodd"/><path stroke="#000000" stroke-width="1.0" stroke-linejoin="round" stroke-linecap="butt" d="m241.39021 170.01936l8.535431 0l0 10.64566l-8.535431 0z" fill-rule="evenodd"/><path fill="#fff2cc" d="m165.53194 242.19783l8.535431 0l0 10.645676l-8.535431 0z" fill-rule="evenodd"/><path stroke="#000000" stroke-width="1.0" stroke-linejoin="round" stroke-linecap="butt" d="m165.53194 242.19783l8.535431 0l0 10.645676l-8.535431 0z" fill-rule="evenodd"/><path fill="#cfe2f3" d="m249.39021 138.01936l8.535416 0l0 10.64566l-8.535416 0z" fill-rule="evenodd"/><path stroke="#000000" stroke-width="1.0" stroke-linejoin="round" stroke-linecap="butt" d="m249.39021 138.01936l8.535416 0l0 10.64566l-8.535416 0z" fill-rule="evenodd"/><path fill="#d9ead3" d="m289.3902 82.019356l8.535431 0l0 10.645676l-8.535431 0z" fill-rule="evenodd"/><path stroke="#000000" stroke-width="1.0" stroke-linejoin="round" stroke-linecap="butt" d="m289.3902 82.019356l8.535431 0l0 10.645676l-8.535431 0z" fill-rule="evenodd"/><path fill="#cfe2f3" d="m265.3902 138.01936l8.535431 0l0 10.64566l-8.535431 0z" fill-rule="evenodd"/><path stroke="#000000" stroke-width="1.0" stroke-linejoin="round" stroke-linecap="butt" d="m265.3902 138.01936l8.535431 0l0 10.64566l-8.535431 0z" fill-rule="evenodd"/><path fill="#d9ead3" d="m273.3902 98.019356l8.535431 0l0 10.645676l-8.535431 0z" fill-rule="evenodd"/><path stroke="#000000" stroke-width="1.0" stroke-linejoin="round" stroke-linecap="butt" d="m273.3902 98.019356l8.535431 0l0 10.645676l-8.535431 0z" fill-rule="evenodd"/><path fill="#d9ead3" d="m289.3902 106.019356l8.535431 0l0 10.645676l-8.535431 0z" fill-rule="evenodd"/><path stroke="#000000" stroke-width="1.0" stroke-linejoin="round" stroke-linecap="butt" d="m289.3902 106.019356l8.535431 0l0 10.645676l-8.535431 0z" fill-rule="evenodd"/><path fill="#d9ead3" d="m297.3902 90.019356l8.535431 0l0 10.645676l-8.535431 0z" fill-rule="evenodd"/><path stroke="#000000" stroke-width="1.0" stroke-linejoin="round" stroke-linecap="butt" d="m297.3902 90.019356l8.535431 0l0 10.645676l-8.535431 0z" fill-rule="evenodd"/><path fill="#d9ead3" d="m297.3902 66.019356l8.535431 0l0 10.645676l-8.535431 0z" fill-rule="evenodd"/><path stroke="#000000" stroke-width="1.0" stroke-linejoin="round" stroke-linecap="butt" d="m297.3902 66.019356l8.535431 0l0 10.645676l-8.535431 0z" fill-rule="evenodd"/><path fill="#d9ead3" d="m313.3902 82.019356l8.535431 0l0 10.645676l-8.535431 0z" fill-rule="evenodd"/><path stroke="#000000" stroke-width="1.0" stroke-linejoin="round" stroke-linecap="butt" d="m313.3902 82.019356l8.535431 0l0 10.645676l-8.535431 0z" fill-rule="evenodd"/><path fill="#d9ead3" d="m321.3902 66.019356l8.535431 0l0 10.645676l-8.535431 0z" fill-rule="evenodd"/><path stroke="#000000" stroke-width="1.0" stroke-linejoin="round" stroke-linecap="butt" d="m321.3902 66.019356l8.535431 0l0 10.645676l-8.535431 0z" fill-rule="evenodd"/><path fill="#cfe2f3" d="m257.3902 170.01936l8.535431 0l0 10.64566l-8.535431 0z" fill-rule="evenodd"/><path stroke="#000000" stroke-width="1.0" stroke-linejoin="round" stroke-linecap="butt" d="m257.3902 170.01936l8.535431 0l0 10.64566l-8.535431 0z" fill-rule="evenodd"/><path fill="#cfe2f3" d="m273.3902 178.01936l8.535431 0l0 10.64566l-8.535431 0z" fill-rule="evenodd"/><path stroke="#000000" stroke-width="1.0" stroke-linejoin="round" stroke-linecap="butt" d="m273.3902 178.01936l8.535431 0l0 10.64566l-8.535431 0z" fill-rule="evenodd"/><path fill="#cfe2f3" d="m281.3902 162.01936l8.535431 0l0 10.64566l-8.535431 0z" fill-rule="evenodd"/><path stroke="#000000" stroke-width="1.0" stroke-linejoin="round" stroke-linecap="butt" d="m281.3902 162.01936l8.535431 0l0 10.64566l-8.535431 0z" fill-rule="evenodd"/><path fill="#cfe2f3" d="m281.3902 146.01936l8.535431 0l0 10.64566l-8.535431 0z" fill-rule="evenodd"/><path stroke="#000000" stroke-width="1.0" stroke-linejoin="round" stroke-linecap="butt" d="m281.3902 146.01936l8.535431 0l0 10.64566l-8.535431 0z" fill-rule="evenodd"/><path fill="#cfe2f3" d="m279.98425 130.01936l8.535431 0l0 10.64566l-8.535431 0z" fill-rule="evenodd"/><path stroke="#000000" stroke-width="1.0" stroke-linejoin="round" stroke-linecap="butt" d="m279.98425 130.01936l8.535431 0l0 10.64566l-8.535431 0z" fill-rule="evenodd"/><path fill="#d9ead3" d="m305.3902 122.019356l8.535431 0l0 10.645668l-8.535431 0z" fill-rule="evenodd"/><path stroke="#000000" stroke-width="1.0" stroke-linejoin="round" stroke-linecap="butt" d="m305.3902 122.019356l8.535431 0l0 10.645668l-8.535431 0z" fill-rule="evenodd"/><path fill="#d9ead3" d="m305.3902 106.019356l8.535431 0l0 10.645676l-8.535431 0z" fill-rule="evenodd"/><path stroke="#000000" stroke-width="1.0" stroke-linejoin="round" stroke-linecap="butt" d="m305.3902 106.019356l8.535431 0l0 10.645676l-8.535431 0z" fill-rule="evenodd"/><path fill="#d9ead3" d="m321.3902 122.019356l8.535431 0l0 10.645668l-8.535431 0z" fill-rule="evenodd"/><path stroke="#000000" stroke-width="1.0" stroke-linejoin="round" stroke-linecap="butt" d="m321.3902 122.019356l8.535431 0l0 10.645668l-8.535431 0z" fill-rule="evenodd"/><path fill="#d9ead3" d="m321.3902 106.019356l8.535431 0l0 10.645676l-8.535431 0z" fill-rule="evenodd"/><path stroke="#000000" stroke-width="1.0" stroke-linejoin="round" stroke-linecap="butt" d="m321.3902 106.019356l8.535431 0l0 10.645676l-8.535431 0z" fill-rule="evenodd"/><path fill="#d9ead3" d="m329.3902 82.019356l8.535431 0l0 10.645676l-8.535431 0z" fill-rule="evenodd"/><path stroke="#000000" stroke-width="1.0" stroke-linejoin="round" stroke-linecap="butt" d="m329.3902 82.019356l8.535431 0l0 10.645676l-8.535431 0z" fill-rule="evenodd"/><path fill="#d9ead3" d="m345.3902 90.019356l8.535431 0l0 10.645676l-8.535431 0z" fill-rule="evenodd"/><path stroke="#000000" stroke-width="1.0" stroke-linejoin="round" stroke-linecap="butt" d="m345.3902 90.019356l8.535431 0l0 10.645676l-8.535431 0z" fill-rule="evenodd"/><path fill="#d9ead3" d="m353.3902 74.019356l8.535431 0l0 10.645676l-8.535431 0z" fill-rule="evenodd"/><path stroke="#000000" stroke-width="1.0" stroke-linejoin="round" stroke-linecap="butt" d="m353.3902 74.019356l8.535431 0l0 10.645676l-8.535431 0z" fill-rule="evenodd"/><path fill="#000000" fill-opacity="0.0" d="m230.69205 307.41568l58.70865 0l0 27.685059l-58.70865 0z" fill-rule="evenodd"/><path fill="#000000" d="m242.06705 330.4957l-2.328125 -7.59375l1.328125 0l1.203125 4.375l0.453125 1.640625q0.03125 -0.125 0.390625 -1.578125l1.21875 -4.4375l1.328125 0l1.125 4.40625l0.390625 1.453125l0.4375 -1.46875l1.296875 -4.390625l1.25 0l-2.375 7.59375l-1.34375 0l-1.203125 -4.546875l-0.296875 -1.296875l-1.53125 5.84375l-1.34375 0zm9.178024 -9.015625l0 -1.46875l1.296875 0l0 1.46875l-1.296875 0zm0 9.015625l0 -7.59375l1.296875 0l0 7.59375l-1.296875 0zm8.178024 0l0 -0.953125q-0.71875 1.125 -2.125 1.125q-0.90625 0 -1.671875 -0.5q-0.75 -0.5 -1.171875 -1.390625q-0.421875 -0.90625 -0.421875 -2.078125q0 -1.140625 0.375 -2.0625q0.390625 -0.921875 1.140625 -1.40625q0.765625 -0.5 1.703125 -0.5q0.6875 0 1.21875 0.296875q0.53125 0.28125 0.875 0.734375l0 -3.75l1.28125 0l0 10.484375l-1.203125 0zm-4.0625 -3.796875q0 1.46875 0.609375 2.1875q0.625 0.71875 1.453125 0.71875q0.84375 0 1.4375 -0.6875q0.59375 -0.6875 0.59375 -2.109375q0 -1.5625 -0.609375 -2.28125q-0.59375 -0.734375 -1.484375 -0.734375q-0.84375 0 -1.421875 0.703125q-0.578125 0.703125 -0.578125 2.203125zm10.104218 2.640625l0.1875 1.140625q-0.546875 0.109375 -0.984375 0.109375q-0.6875 0 -1.078125 -0.21875q-0.390625 -0.21875 -0.546875 -0.578125q-0.15625 -0.359375 -0.15625 -1.515625l0 -4.375l-0.953125 0l0 -1.0l0.953125 0l0 -1.890625l1.28125 -0.765625l0 2.65625l1.296875 0l0 1.0l-1.296875 0l0 4.4375q0 0.546875 0.0625 0.71875q0.078125 0.15625 0.21875 0.25q0.15625 0.078125 0.453125 0.078125q0.203125 0 0.5625 -0.046875zm1.259491 1.15625l0 -10.484375l1.28125 0l0 3.75q0.90625 -1.03125 2.28125 -1.03125q0.84375 0 1.46875 0.328125q0.625 0.328125 0.890625 0.921875q0.265625 0.578125 0.265625 1.703125l0 4.8125l-1.28125 0l0 -4.8125q0 -0.96875 -0.421875 -1.40625q-0.421875 -0.4375 -1.1875 -0.4375q-0.578125 0 -1.078125 0.296875q-0.5 0.296875 -0.71875 0.8125q-0.21875 0.5 -0.21875 1.390625l0 4.15625l-1.28125 0z" fill-rule="nonzero"/><path fill="#000000" fill-opacity="0.0" d="m9.035876 131.41568l64.37795 0l0 27.685043l-64.37795 0z" fill-rule="evenodd"/><path fill="#000000" d="m19.004625 154.49568l0 -10.484375l1.28125 0l0 3.75q0.90625 -1.03125 2.28125 -1.03125q0.84375 0 1.46875 0.328125q0.625 0.328125 0.890625 0.921875q0.265625 0.578125 0.265625 1.703125l0 4.8125l-1.28125 0l0 -4.8125q0 -0.96875 -0.421875 -1.40625q-0.421875 -0.4375 -1.1875 -0.4375q-0.578125 0 -1.078125 0.296875q-0.5 0.296875 -0.71875 0.8125q-0.21875 0.5 -0.21875 1.390625l0 4.15625l-1.28125 0zm13.354235 -2.453125l1.328125 0.171875q-0.3125 1.171875 -1.171875 1.8125q-0.8437519 0.640625 -2.171877 0.640625q-1.671875 0 -2.65625 -1.015625q-0.96875 -1.03125 -0.96875 -2.890625q0 -1.921875 0.984375 -2.96875q1.0 -1.0625 2.578125 -1.0625q1.515625 0 2.484377 1.03125q0.96875 1.03125 0.96875 2.921875q0 0.109375 -0.015625 0.34375l-5.656252 0q0.0625 1.25 0.703125 1.921875q0.640625 0.65625 1.59375 0.65625q0.703125 0 1.203125 -0.359375q0.5000019 -0.375 0.7968769 -1.203125zm-4.234377 -2.078125l4.250002 0q-0.09375 -0.953125 -0.4843769 -1.4375q-0.625 -0.75 -1.609375 -0.75q-0.875 0 -1.484375 0.59375q-0.609375 0.59375 -0.671875 1.59375zm7.1823597 -4.484375l0 -1.46875l1.296875 0l0 1.46875l-1.296875 0zm0 9.015625l0 -7.59375l1.296875 0l0 7.59375l-1.296875 0zm3.0217743 0.625l1.25 0.1875q0.078125 0.578125 0.4375 0.84375q0.46875 0.359375 1.3125 0.359375q0.890625 0 1.375 -0.359375q0.484375 -0.359375 0.65625 -1.0q0.109375 -0.390625 0.09375 -1.65625q-0.84375 1.0 -2.109375 1.0q-1.5625 0 -2.421875 -1.125q-0.859375 -1.140625 -0.859375 -2.71875q0 -1.09375 0.390625 -2.0q0.40625 -0.921875 1.140625 -1.421875q0.75 -0.5 1.765625 -0.5q1.34375 0 2.21875 1.078125l0 -0.90625l1.1875 0l0 6.5625q0 1.78125 -0.359375 2.515625q-0.359375 0.734375 -1.15625 1.15625q-0.78125 0.4375 -1.921875 0.4375q-1.359375 0 -2.203125 -0.609375q-0.828125 -0.609375 -0.796875 -1.84375zm1.0625 -4.5625q0 1.5 0.59375 2.1875q0.59375 0.6875 1.484375 0.6875q0.890625 0 1.484375 -0.6875q0.609375 -0.6875 0.609375 -2.140625q0 -1.390625 -0.625 -2.09375q-0.609375 -0.71875 -1.484375 -0.71875q-0.859375 0 -1.46875 0.703125q-0.59375 0.6875 -0.59375 2.0625zm7.322983 3.9375l0 -10.484375l1.28125 0l0 3.75q0.90625 -1.03125 2.28125 -1.03125q0.84375 0 1.46875 0.328125q0.625 0.328125 0.890625 0.921875q0.265625 0.578125 0.265625 1.703125l0 4.8125l-1.28125 0l0 -4.8125q0 -0.96875 -0.421875 -1.40625q-0.421875 -0.4375 -1.1875 -0.4375q-0.578125 0 -1.078125 0.296875q-0.5 0.296875 -0.71875 0.8125q-0.21875 0.5 -0.21875 1.390625l0 4.15625l-1.28125 0zm10.963608 -1.15625l0.1875 1.140625q-0.546875 0.109375 -0.984375 0.109375q-0.6875 0 -1.078125 -0.21875q-0.390625 -0.21875 -0.546875 -0.578125q-0.15625 -0.359375 -0.15625 -1.515625l0 -4.375l-0.953125 0l0 -1.0l0.953125 0l0 -1.890625l1.28125 -0.765625l0 2.65625l1.296875 0l0 1.0l-1.296875 0l0 4.4375q0 0.546875 0.0625 0.71875q0.078125 0.15625 0.21875 0.25q0.15625 0.078125 0.453125 0.078125q0.203125 0 0.5625 -0.046875z" fill-rule="nonzero"/><path fill="#fff2cc" d="m209.39021 226.01936l8.535431 0l0 10.64566l-8.535431 0z" fill-rule="evenodd"/><path stroke="#000000" stroke-width="1.0" stroke-linejoin="round" stroke-linecap="butt" d="m209.39021 226.01936l8.535431 0l0 10.64566l-8.535431 0z" fill-rule="evenodd"/><path fill="#fff2cc" d="m201.39021 210.01936l8.535431 0l0 10.64566l-8.535431 0z" fill-rule="evenodd"/><path stroke="#000000" stroke-width="1.0" stroke-linejoin="round" stroke-linecap="butt" d="m201.39021 210.01936l8.535431 0l0 10.64566l-8.535431 0z" fill-rule="evenodd"/><path fill="#cfe2f3" d="m201.39021 149.29642l8.535431 0l0 10.645676l-8.535431 0z" fill-rule="evenodd"/><path stroke="#000000" stroke-width="1.0" stroke-linejoin="round" stroke-linecap="butt" d="m201.39021 149.29642l8.535431 0l0 10.645676l-8.535431 0z" fill-rule="evenodd"/><path fill="#fff2cc" d="m233.39021 202.01936l8.535431 0l0 10.64566l-8.535431 0z" fill-rule="evenodd"/><path stroke="#000000" stroke-width="1.0" stroke-linejoin="round" stroke-linecap="butt" d="m233.39021 202.01936l8.535431 0l0 10.64566l-8.535431 0z" fill-rule="evenodd"/><path fill="#cfe2f3" d="m241.39021 186.01936l8.535431 0l0 10.64566l-8.535431 0z" fill-rule="evenodd"/><path stroke="#000000" stroke-width="1.0" stroke-linejoin="round" stroke-linecap="butt" d="m241.39021 186.01936l8.535431 0l0 10.64566l-8.535431 0z" fill-rule="evenodd"/><path fill="#fff2cc" d="m217.39021 202.01936l8.535431 0l0 10.64566l-8.535431 0z" fill-rule="evenodd"/><path stroke="#000000" stroke-width="1.0" stroke-linejoin="round" stroke-linecap="butt" d="m217.39021 202.01936l8.535431 0l0 10.64566l-8.535431 0z" fill-rule="evenodd"/><path fill="#fff2cc" d="m233.39021 226.01936l8.535431 0l0 10.64566l-8.535431 0z" fill-rule="evenodd"/><path stroke="#000000" stroke-width="1.0" stroke-linejoin="round" stroke-linecap="butt" d="m233.39021 226.01936l8.535431 0l0 10.64566l-8.535431 0z" fill-rule="evenodd"/><path fill="#cfe2f3" d="m249.39021 214.50449l8.535416 0l0 10.645676l-8.535416 0z" fill-rule="evenodd"/><path stroke="#000000" stroke-width="1.0" stroke-linejoin="round" stroke-linecap="butt" d="m249.39021 214.50449l8.535416 0l0 10.645676l-8.535416 0z" fill-rule="evenodd"/><path fill="#fff2cc" d="m241.39021 227.42531l8.535431 0l0 10.645676l-8.535431 0z" fill-rule="evenodd"/><path stroke="#000000" stroke-width="1.0" stroke-linejoin="round" stroke-linecap="butt" d="m241.39021 227.42531l8.535431 0l0 10.645676l-8.535431 0z" fill-rule="evenodd"/><path fill="#fff2cc" d="m225.39021 214.01936l8.535431 0l0 10.64566l-8.535431 0z" fill-rule="evenodd"/><path stroke="#000000" stroke-width="1.0" stroke-linejoin="round" stroke-linecap="butt" d="m225.39021 214.01936l8.535431 0l0 10.64566l-8.535431 0z" fill-rule="evenodd"/><path fill="#cfe2f3" d="m217.39021 178.01936l8.535431 0l0 10.64566l-8.535431 0z" fill-rule="evenodd"/><path stroke="#000000" stroke-width="1.0" stroke-linejoin="round" stroke-linecap="butt" d="m217.39021 178.01936l8.535431 0l0 10.64566l-8.535431 0z" fill-rule="evenodd"/><path fill="#cfe2f3" d="m241.39021 154.01936l8.535431 0l0 10.64566l-8.535431 0z" fill-rule="evenodd"/><path stroke="#000000" stroke-width="1.0" stroke-linejoin="round" stroke-linecap="butt" d="m241.39021 154.01936l8.535431 0l0 10.64566l-8.535431 0z" fill-rule="evenodd"/><path fill="#d9ead3" d="m257.3902 82.019356l8.535431 0l0 10.645676l-8.535431 0z" fill-rule="evenodd"/><path stroke="#000000" stroke-width="1.0" stroke-linejoin="round" stroke-linecap="butt" d="m257.3902 82.019356l8.535431 0l0 10.645676l-8.535431 0z" fill-rule="evenodd"/><path fill="#cfe2f3" d="m248.25154 109.53423l8.535416 0l0 10.645668l-8.535416 0z" fill-rule="evenodd"/><path stroke="#000000" stroke-width="1.0" stroke-linejoin="round" stroke-linecap="butt" d="m248.25154 109.53423l8.535416 0l0 10.645668l-8.535416 0z" fill-rule="evenodd"/><path fill="#cfe2f3" d="m233.39021 138.01936l8.535431 0l0 10.64566l-8.535431 0z" fill-rule="evenodd"/><path stroke="#000000" stroke-width="1.0" stroke-linejoin="round" stroke-linecap="butt" d="m233.39021 138.01936l8.535431 0l0 10.64566l-8.535431 0z" fill-rule="evenodd"/><path fill="#cfe2f3" d="m257.3902 154.01936l8.535431 0l0 10.64566l-8.535431 0z" fill-rule="evenodd"/><path stroke="#000000" stroke-width="1.0" stroke-linejoin="round" stroke-linecap="butt" d="m257.3902 154.01936l8.535431 0l0 10.64566l-8.535431 0z" fill-rule="evenodd"/><path fill="#cfe2f3" d="m270.5783 170.72234l8.535431 0l0 10.64566l-8.535431 0z" fill-rule="evenodd"/><path stroke="#000000" stroke-width="1.0" stroke-linejoin="round" stroke-linecap="butt" d="m270.5783 170.72234l8.535431 0l0 10.64566l-8.535431 0z" fill-rule="evenodd"/><path fill="#cfe2f3" d="m257.3902 122.019356l8.535431 0l0 10.645668l-8.535431 0z" fill-rule="evenodd"/><path stroke="#000000" stroke-width="1.0" stroke-linejoin="round" stroke-linecap="butt" d="m257.3902 122.019356l8.535431 0l0 10.645668l-8.535431 0z" fill-rule="evenodd"/><path fill="#d9ead3" d="m369.3902 90.019356l8.535431 0l0 10.645676l-8.535431 0z" fill-rule="evenodd"/><path stroke="#000000" stroke-width="1.0" stroke-linejoin="round" stroke-linecap="butt" d="m369.3902 90.019356l8.535431 0l0 10.645676l-8.535431 0z" fill-rule="evenodd"/><path fill="#d9ead3" d="m277.87534 111.20746l8.535431 0l0 10.645668l-8.535431 0z" fill-rule="evenodd"/><path stroke="#000000" stroke-width="1.0" stroke-linejoin="round" stroke-linecap="butt" d="m277.87534 111.20746l8.535431 0l0 10.645668l-8.535431 0z" fill-rule="evenodd"/><path fill="#d9ead3" d="m293.87534 127.20746l8.535431 0l0 10.645676l-8.535431 0z" fill-rule="evenodd"/><path stroke="#000000" stroke-width="1.0" stroke-linejoin="round" stroke-linecap="butt" d="m293.87534 127.20746l8.535431 0l0 10.645676l-8.535431 0z" fill-rule="evenodd"/><path fill="#d9ead3" d="m369.3902 50.01936l8.535431 0l0 10.645668l-8.535431 0z" fill-rule="evenodd"/><path stroke="#000000" stroke-width="1.0" stroke-linejoin="round" stroke-linecap="butt" d="m369.3902 50.01936l8.535431 0l0 10.645668l-8.535431 0z" fill-rule="evenodd"/><path fill="#ff0000" d="m309.83728 100.98425l0 0c0 -4.235634 3.461853 -7.6692886 7.7322693 -7.6692886l0 0c2.0507202 0 4.017456 0.8080063 5.46756 2.2462769c1.4500732 1.4382706 2.26474 3.3889847 2.26474 5.423012l0 0c0 4.235634 -3.4618835 7.6692886 -7.7323 7.6692886l0 0c-4.2704163 0 -7.7322693 -3.4336548 -7.7322693 -7.6692886z" fill-rule="evenodd"/><path stroke="#000000" stroke-width="1.0" stroke-linejoin="round" stroke-linecap="butt" d="m309.83728 100.98425l0 0c0 -4.235634 3.461853 -7.6692886 7.7322693 -7.6692886l0 0c2.0507202 0 4.017456 0.8080063 5.46756 2.2462769c1.4500732 1.4382706 2.26474 3.3889847 2.26474 5.423012l0 0c0 4.235634 -3.4618835 7.6692886 -7.7323 7.6692886l0 0c-4.2704163 0 -7.7322693 -3.4336548 -7.7322693 -7.6692886z" fill-rule="evenodd"/><path fill="#ff0000" d="m245.83727 164.98425l0 0c0 -4.235626 3.4618683 -7.6692963 7.7322845 -7.6692963l0 0c2.0507355 0 4.017456 0.8080139 5.46756 2.246292c1.4500732 1.4382629 2.26474 3.388977 2.26474 5.423004l0 0c0 4.235626 -3.4618835 7.6692963 -7.7323 7.6692963l0 0c-4.2704163 0 -7.7322845 -3.43367 -7.7322845 -7.6692963z" fill-rule="evenodd"/><path stroke="#000000" stroke-width="1.0" stroke-linejoin="round" stroke-linecap="butt" d="m245.83727 164.98425l0 0c0 -4.235626 3.4618683 -7.6692963 7.7322845 -7.6692963l0 0c2.0507355 0 4.017456 0.8080139 5.46756 2.246292c1.4500732 1.4382629 2.26474 3.388977 2.26474 5.423004l0 0c0 4.235626 -3.4618835 7.6692963 -7.7323 7.6692963l0 0c-4.2704163 0 -7.7322845 -3.43367 -7.7322845 -7.6692963z" fill-rule="evenodd"/><path fill="#ff0000" d="m181.83727 228.98425l0 0c0 -4.235626 3.4618683 -7.6692963 7.7322845 -7.6692963l0 0c2.0507355 0 4.0174713 0.8080139 5.46756 2.246292c1.4500732 1.4382629 2.2647247 3.388977 2.2647247 5.423004l0 0c0 4.235626 -3.461853 7.6692963 -7.7322845 7.6692963l0 0c-4.2704163 0 -7.7322845 -3.43367 -7.7322845 -7.6692963z" fill-rule="evenodd"/><path stroke="#000000" stroke-width="1.0" stroke-linejoin="round" stroke-linecap="butt" d="m181.83727 228.98425l0 0c0 -4.235626 3.4618683 -7.6692963 7.7322845 -7.6692963l0 0c2.0507355 0 4.0174713 0.8080139 5.46756 2.246292c1.4500732 1.4382629 2.2647247 3.388977 2.2647247 5.423004l0 0c0 4.235626 -3.461853 7.6692963 -7.7322845 7.6692963l0 0c-4.2704163 0 -7.7322845 -3.43367 -7.7322845 -7.6692963z" fill-rule="evenodd"/><path fill="#fff2cc" d="m345.3902 223.34503l8.535431 0l0 10.645676l-8.535431 0z" fill-rule="evenodd"/><path stroke="#000000" stroke-width="1.0" stroke-linejoin="round" stroke-linecap="butt" d="m345.3902 223.34503l8.535431 0l0 10.645676l-8.535431 0z" fill-rule="evenodd"/><path fill="#cfe2f3" d="m345.3902 244.68219l8.535431 0l0 10.645676l-8.535431 0z" fill-rule="evenodd"/><path stroke="#000000" stroke-width="1.0" stroke-linejoin="round" stroke-linecap="butt" d="m345.3902 244.68219l8.535431 0l0 10.645676l-8.535431 0z" fill-rule="evenodd"/><path fill="#d9ead3" d="m345.3902 266.01935l8.535431 0l0 10.645691l-8.535431 0z" fill-rule="evenodd"/><path stroke="#000000" stroke-width="1.0" stroke-linejoin="round" stroke-linecap="butt" d="m345.3902 266.01935l8.535431 0l0 10.645691l-8.535431 0z" fill-rule="evenodd"/><path fill="#ff0000" d="m341.83728 204.98425l0 0c0 -4.235626 3.461853 -7.6692963 7.7322693 -7.6692963l0 0c2.0507202 0 4.017456 0.8080139 5.46756 2.246292c1.4500732 1.4382629 2.26474 3.388977 2.26474 5.423004l0 0c0 4.235626 -3.4618835 7.6692963 -7.7323 7.6692963l0 0c-4.2704163 0 -7.7322693 -3.43367 -7.7322693 -7.6692963z" fill-rule="evenodd"/><path stroke="#000000" stroke-width="1.0" stroke-linejoin="round" stroke-linecap="butt" d="m341.83728 204.98425l0 0c0 -4.235626 3.461853 -7.6692963 7.7322693 -7.6692963l0 0c2.0507202 0 4.017456 0.8080139 5.46756 2.246292c1.4500732 1.4382629 2.26474 3.388977 2.26474 5.423004l0 0c0 4.235626 -3.4618835 7.6692963 -7.7323 7.6692963l0 0c-4.2704163 0 -7.7322693 -3.43367 -7.7322693 -7.6692963z" fill-rule="evenodd"/><path fill="#000000" fill-opacity="0.0" d="m352.08487 197.31496l76.44095 0l0 15.338593l-76.44095 0z" fill-rule="evenodd"/><path fill="#000000" d="m366.4755 207.253l1.15625 0.15625q-0.1875 1.1875 -0.96875 1.859375q-0.78125 0.671875 -1.921875 0.671875q-1.40625 0 -2.28125 -0.921875q-0.859375 -0.9375 -0.859375 -2.65625q0 -1.125 0.375 -1.96875q0.375 -0.84375 1.125 -1.25q0.765625 -0.421875 1.65625 -0.421875q1.125 0 1.84375 0.578125q0.71875 0.5625 0.921875 1.609375l-1.140625 0.171875q-0.171875 -0.703125 -0.59375 -1.046875q-0.40625 -0.359375 -0.984375 -0.359375q-0.890625 0 -1.453125 0.640625q-0.546875 0.640625 -0.546875 2.0q0 1.40625 0.53125 2.03125q0.546875 0.625 1.40625 0.625q0.6875 0 1.140625 -0.421875q0.46875 -0.421875 0.59375 -1.296875zm6.8828125 0.3125l1.203125 0.140625q-0.28125 1.0625 -1.0625 1.65625q-0.765625 0.578125 -1.96875 0.578125q-1.515625 0 -2.40625 -0.9375q-0.890625 -0.9375 -0.890625 -2.609375q0 -1.75 0.890625 -2.703125q0.90625 -0.96875 2.34375 -0.96875q1.390625 0 2.265625 0.9375q0.875 0.9375 0.875 2.65625q0 0.109375 0 0.3125l-5.15625 0q0.0625 1.140625 0.640625 1.75q0.578125 0.59375 1.4375 0.59375q0.65625 0 1.109375 -0.328125q0.453125 -0.34375 0.71875 -1.078125zm-3.84375 -1.90625l3.859375 0q-0.078125 -0.859375 -0.4375 -1.296875q-0.5625 -0.6875 -1.453125 -0.6875q-0.8125 0 -1.359375 0.546875q-0.546875 0.53125 -0.609375 1.4375zm6.5218506 4.125l0 -6.90625l1.0625 0l0 0.984375q0.75 -1.140625 2.1875 -1.140625q0.625 0 1.15625 0.21875q0.53125 0.21875 0.78125 0.59375q0.265625 0.359375 0.375 0.859375q0.0625 0.328125 0.0625 1.140625l0 4.25l-1.171875 0l0 -4.203125q0 -0.71875 -0.140625 -1.0625q-0.140625 -0.359375 -0.484375 -0.5625q-0.34375 -0.21875 -0.8125 -0.21875q-0.75 0 -1.296875 0.46875q-0.546875 0.46875 -0.546875 1.796875l0 3.78125l-1.171875 0zm9.974976 -1.046875l0.171875 1.03125q-0.5 0.109375 -0.890625 0.109375q-0.640625 0 -1.0 -0.203125q-0.34375 -0.203125 -0.484375 -0.53125q-0.140625 -0.328125 -0.140625 -1.390625l0 -3.96875l-0.859375 0l0 -0.90625l0.859375 0l0 -1.71875l1.171875 -0.703125l0 2.421875l1.171875 0l0 0.90625l-1.171875 0l0 4.046875q0 0.5 0.046875 0.640625q0.0625 0.140625 0.203125 0.234375q0.140625 0.078125 0.40625 0.078125q0.203125 0 0.515625 -0.046875zm1.1248474 1.046875l0 -6.90625l1.0625 0l0 1.046875q0.40625 -0.734375 0.734375 -0.96875q0.34375 -0.234375 0.765625 -0.234375q0.59375 0 1.203125 0.375l-0.40625 1.078125q-0.4375 -0.25 -0.859375 -0.25q-0.390625 0 -0.703125 0.234375q-0.296875 0.234375 -0.421875 0.640625q-0.203125 0.625 -0.203125 1.359375l0 3.625l-1.171875 0zm4.01651 -3.453125q0 -1.921875 1.078125 -2.84375q0.890625 -0.765625 2.171875 -0.765625q1.421875 0 2.328125 0.9375q0.90625 0.921875 0.90625 2.578125q0 1.328125 -0.40625 2.09375q-0.390625 0.765625 -1.15625 1.1875q-0.765625 0.421875 -1.671875 0.421875q-1.453125 0 -2.359375 -0.921875q-0.890625 -0.9375 -0.890625 -2.6875zm1.203125 0q0 1.328125 0.578125 1.984375q0.59375 0.65625 1.46875 0.65625q0.875 0 1.453125 -0.65625q0.578125 -0.671875 0.578125 -2.03125q0 -1.28125 -0.59375 -1.9375q-0.578125 -0.65625 -1.4375 -0.65625q-0.875 0 -1.46875 0.65625q-0.578125 0.65625 -0.578125 1.984375zm6.6624756 -4.734375l0 -1.359375l1.171875 0l0 1.359375l-1.171875 0zm0 8.1875l0 -6.90625l1.171875 0l0 6.90625l-1.171875 0zm7.42984 0l0 -0.875q-0.65625 1.03125 -1.9375 1.03125q-0.8125 0 -1.515625 -0.453125q-0.6875 -0.453125 -1.078125 -1.265625q-0.375 -0.828125 -0.375 -1.890625q0 -1.03125 0.34375 -1.875q0.34375 -0.84375 1.03125 -1.28125q0.703125 -0.453125 1.546875 -0.453125q0.625 0 1.109375 0.265625q0.5 0.25 0.796875 0.671875l0 -3.421875l1.171875 0l0 9.546875l-1.09375 0zm-3.703125 -3.453125q0 1.328125 0.5625 1.984375q0.5625 0.65625 1.328125 0.65625q0.765625 0 1.296875 -0.625q0.53125 -0.625 0.53125 -1.90625q0 -1.421875 -0.546875 -2.078125q-0.546875 -0.671875 -1.34375 -0.671875q-0.78125 0 -1.3125 0.640625q-0.515625 0.625 -0.515625 2.0z" fill-rule="nonzero"/><path fill="#000000" fill-opacity="0.0" d="m352.08487 219.67468l76.44095 0l0 15.338593l-76.44095 0z" fill-rule="evenodd"/><path fill="#000000" d="m366.4755 229.61273l1.15625 0.15625q-0.1875 1.1875 -0.96875 1.859375q-0.78125 0.671875 -1.921875 0.671875q-1.40625 0 -2.28125 -0.921875q-0.859375 -0.9375 -0.859375 -2.65625q0 -1.125 0.375 -1.96875q0.375 -0.84375 1.125 -1.25q0.765625 -0.421875 1.65625 -0.421875q1.125 0 1.84375 0.578125q0.71875 0.5625 0.921875 1.609375l-1.140625 0.171875q-0.171875 -0.703125 -0.59375 -1.046875q-0.40625 -0.359375 -0.984375 -0.359375q-0.890625 0 -1.453125 0.640625q-0.546875 0.640625 -0.546875 2.0q0 1.40625 0.53125 2.03125q0.546875 0.625 1.40625 0.625q0.6875 0 1.140625 -0.421875q0.46875 -0.421875 0.59375 -1.296875zm2.1328125 2.53125l0 -9.546875l1.171875 0l0 9.546875l-1.171875 0zm7.507965 0l0 -1.015625q-0.8125 1.171875 -2.1875 1.171875q-0.609375 0 -1.140625 -0.234375q-0.53125 -0.234375 -0.796875 -0.578125q-0.25 -0.359375 -0.359375 -0.875q-0.0625 -0.34375 -0.0625 -1.09375l0 -4.28125l1.171875 0l0 3.828125q0 0.921875 0.0625 1.234375q0.109375 0.46875 0.46875 0.734375q0.359375 0.25 0.890625 0.25q0.515625 0 0.984375 -0.265625q0.46875 -0.265625 0.65625 -0.734375q0.1875 -0.46875 0.1875 -1.34375l0 -3.703125l1.171875 0l0 6.90625l-1.046875 0zm2.4124756 -2.0625l1.15625 -0.1875q0.109375 0.703125 0.546875 1.078125q0.453125 0.359375 1.25 0.359375q0.8125 0 1.203125 -0.328125q0.390625 -0.328125 0.390625 -0.765625q0 -0.390625 -0.359375 -0.625q-0.234375 -0.15625 -1.1875 -0.390625q-1.296875 -0.328125 -1.796875 -0.5625q-0.484375 -0.25 -0.75 -0.65625q-0.25 -0.421875 -0.25 -0.9375q0 -0.453125 0.203125 -0.84375q0.21875 -0.40625 0.578125 -0.671875q0.28125 -0.1875 0.75 -0.328125q0.46875 -0.140625 1.015625 -0.140625q0.8125 0 1.421875 0.234375q0.609375 0.234375 0.90625 0.640625q0.296875 0.390625 0.40625 1.0625l-1.140625 0.15625q-0.078125 -0.53125 -0.453125 -0.828125q-0.375 -0.3125 -1.0625 -0.3125q-0.8125 0 -1.15625 0.265625q-0.34375 0.265625 -0.34375 0.625q0 0.234375 0.140625 0.421875q0.15625 0.1875 0.453125 0.3125q0.171875 0.0625 1.03125 0.296875q1.25 0.328125 1.734375 0.546875q0.5 0.203125 0.78125 0.609375q0.28125 0.40625 0.28125 1.0q0 0.59375 -0.34375 1.109375q-0.34375 0.515625 -1.0 0.796875q-0.640625 0.28125 -1.453125 0.28125q-1.34375 0 -2.046875 -0.5625q-0.703125 -0.5625 -0.90625 -1.65625zm9.6953125 1.015625l0.171875 1.03125q-0.5 0.109375 -0.890625 0.109375q-0.640625 0 -1.0 -0.203125q-0.34375 -0.203125 -0.484375 -0.53125q-0.140625 -0.328125 -0.140625 -1.390625l0 -3.96875l-0.859375 0l0 -0.90625l0.859375 0l0 -1.71875l1.171875 -0.703125l0 2.421875l1.171875 0l0 0.90625l-1.171875 0l0 4.046875q0 0.5 0.046875 0.640625q0.0625 0.140625 0.203125 0.234375q0.140625 0.078125 0.40625 0.078125q0.203125 0 0.515625 -0.046875zm5.8748474 -1.171875l1.203125 0.140625q-0.28125 1.0625 -1.0625 1.65625q-0.765625 0.578125 -1.96875 0.578125q-1.515625 0 -2.40625 -0.9375q-0.890625 -0.9375 -0.890625 -2.609375q0 -1.75 0.890625 -2.703125q0.90625 -0.96875 2.34375 -0.96875q1.390625 0 2.265625 0.9375q0.875 0.9375 0.875 2.65625q0 0.109375 0 0.3125l-5.15625 0q0.0625 1.140625 0.640625 1.75q0.578125 0.59375 1.4375 0.59375q0.65625 0 1.109375 -0.328125q0.453125 -0.34375 0.71875 -1.078125zm-3.84375 -1.90625l3.859375 0q-0.078125 -0.859375 -0.4375 -1.296875q-0.5625 -0.6875 -1.453125 -0.6875q-0.8125 0 -1.359375 0.546875q-0.546875 0.53125 -0.609375 1.4375zm6.5062256 4.125l0 -6.90625l1.0625 0l0 1.046875q0.40625 -0.734375 0.734375 -0.96875q0.34375 -0.234375 0.765625 -0.234375q0.59375 0 1.203125 0.375l-0.40625 1.078125q-0.4375 -0.25 -0.859375 -0.25q-0.390625 0 -0.703125 0.234375q-0.296875 0.234375 -0.421875 0.640625q-0.203125 0.625 -0.203125 1.359375l0 3.625l-1.171875 0zm12.250732 0l-1.171875 0l0 -7.46875q-0.421875 0.40625 -1.109375 0.8125q-0.6875 0.40625 -1.234375 0.609375l0 -1.140625q0.984375 -0.453125 1.71875 -1.109375q0.734375 -0.671875 1.03125 -1.28125l0.765625 0l0 9.578125z" fill-rule="nonzero"/><path fill="#000000" fill-opacity="0.0" d="m352.08487 242.03441l76.44095 0l0 15.338577l-76.44095 0z" fill-rule="evenodd"/><path fill="#000000" d="m366.4755 251.97246l1.15625 0.15625q-0.1875 1.1875 -0.96875 1.859375q-0.78125 0.671875 -1.921875 0.671875q-1.40625 0 -2.28125 -0.921875q-0.859375 -0.9375 -0.859375 -2.65625q0 -1.125 0.375 -1.96875q0.375 -0.84375 1.125 -1.25q0.765625 -0.421875 1.65625 -0.421875q1.125 0 1.84375 0.578125q0.71875 0.5625 0.921875 1.609375l-1.140625 0.171875q-0.171875 -0.703125 -0.59375 -1.046875q-0.40625 -0.359375 -0.984375 -0.359375q-0.890625 0 -1.453125 0.640625q-0.546875 0.640625 -0.546875 2.0q0 1.40625 0.53125 2.03125q0.546875 0.625 1.40625 0.625q0.6875 0 1.140625 -0.421875q0.46875 -0.421875 0.59375 -1.296875zm2.1328125 2.53125l0 -9.546875l1.171875 0l0 9.546875l-1.171875 0zm7.507965 0l0 -1.015625q-0.8125 1.171875 -2.1875 1.171875q-0.609375 0 -1.140625 -0.234375q-0.53125 -0.234375 -0.796875 -0.578125q-0.25 -0.359375 -0.359375 -0.875q-0.0625 -0.34375 -0.0625 -1.09375l0 -4.28125l1.171875 0l0 3.828125q0 0.921875 0.0625 1.234375q0.109375 0.46875 0.46875 0.734375q0.359375 0.25 0.890625 0.25q0.515625 0 0.984375 -0.265625q0.46875 -0.265625 0.65625 -0.734375q0.1875 -0.46875 0.1875 -1.34375l0 -3.703125l1.171875 0l0 6.90625l-1.046875 0zm2.4124756 -2.0625l1.15625 -0.1875q0.109375 0.703125 0.546875 1.078125q0.453125 0.359375 1.25 0.359375q0.8125 0 1.203125 -0.328125q0.390625 -0.328125 0.390625 -0.765625q0 -0.390625 -0.359375 -0.625q-0.234375 -0.15625 -1.1875 -0.390625q-1.296875 -0.328125 -1.796875 -0.5625q-0.484375 -0.25 -0.75 -0.65625q-0.25 -0.421875 -0.25 -0.9375q0 -0.453125 0.203125 -0.84375q0.21875 -0.40625 0.578125 -0.671875q0.28125 -0.1875 0.75 -0.328125q0.46875 -0.140625 1.015625 -0.140625q0.8125 0 1.421875 0.234375q0.609375 0.234375 0.90625 0.640625q0.296875 0.390625 0.40625 1.0625l-1.140625 0.15625q-0.078125 -0.53125 -0.453125 -0.828125q-0.375 -0.3125 -1.0625 -0.3125q-0.8125 0 -1.15625 0.265625q-0.34375 0.265625 -0.34375 0.625q0 0.234375 0.140625 0.421875q0.15625 0.1875 0.453125 0.3125q0.171875 0.0625 1.03125 0.296875q1.25 0.328125 1.734375 0.546875q0.5 0.203125 0.78125 0.609375q0.28125 0.40625 0.28125 1.0q0 0.59375 -0.34375 1.109375q-0.34375 0.515625 -1.0 0.796875q-0.640625 0.28125 -1.453125 0.28125q-1.34375 0 -2.046875 -0.5625q-0.703125 -0.5625 -0.90625 -1.65625zm9.6953125 1.015625l0.171875 1.03125q-0.5 0.109375 -0.890625 0.109375q-0.640625 0 -1.0 -0.203125q-0.34375 -0.203125 -0.484375 -0.53125q-0.140625 -0.328125 -0.140625 -1.390625l0 -3.96875l-0.859375 0l0 -0.90625l0.859375 0l0 -1.71875l1.171875 -0.703125l0 2.421875l1.171875 0l0 0.90625l-1.171875 0l0 4.046875q0 0.5 0.046875 0.640625q0.0625 0.140625 0.203125 0.234375q0.140625 0.078125 0.40625 0.078125q0.203125 0 0.515625 -0.046875zm5.8748474 -1.171875l1.203125 0.140625q-0.28125 1.0625 -1.0625 1.65625q-0.765625 0.578125 -1.96875 0.578125q-1.515625 0 -2.40625 -0.9375q-0.890625 -0.9375 -0.890625 -2.609375q0 -1.75 0.890625 -2.703125q0.90625 -0.96875 2.34375 -0.96875q1.390625 0 2.265625 0.9375q0.875 0.9375 0.875 2.65625q0 0.109375 0 0.3125l-5.15625 0q0.0625 1.140625 0.640625 1.75q0.578125 0.59375 1.4375 0.59375q0.65625 0 1.109375 -0.328125q0.453125 -0.34375 0.71875 -1.078125zm-3.84375 -1.90625l3.859375 0q-0.078125 -0.859375 -0.4375 -1.296875q-0.5625 -0.6875 -1.453125 -0.6875q-0.8125 0 -1.359375 0.546875q-0.546875 0.53125 -0.609375 1.4375zm6.5062256 4.125l0 -6.90625l1.0625 0l0 1.046875q0.40625 -0.734375 0.734375 -0.96875q0.34375 -0.234375 0.765625 -0.234375q0.59375 0 1.203125 0.375l-0.40625 1.078125q-0.4375 -0.25 -0.859375 -0.25q-0.390625 0 -0.703125 0.234375q-0.296875 0.234375 -0.421875 0.640625q-0.203125 0.625 -0.203125 1.359375l0 3.625l-1.171875 0zm13.985107 -1.125l0 1.125l-6.296875 0q-0.015625 -0.421875 0.140625 -0.8125q0.234375 -0.640625 0.765625 -1.265625q0.53125 -0.625 1.53125 -1.453125q1.5625 -1.265625 2.109375 -2.015625q0.546875 -0.75 0.546875 -1.40625q0 -0.703125 -0.5 -1.171875q-0.5 -0.484375 -1.296875 -0.484375q-0.859375 0 -1.375 0.515625q-0.5 0.5 -0.5 1.390625l-1.203125 -0.109375q0.125 -1.359375 0.921875 -2.0625q0.8125 -0.703125 2.171875 -0.703125q1.375 0 2.171875 0.765625q0.8125 0.75 0.8125 1.875q0 0.578125 -0.234375 1.140625q-0.234375 0.546875 -0.78125 1.15625q-0.546875 0.609375 -1.8125 1.671875q-1.046875 0.890625 -1.359375 1.21875q-0.296875 0.3125 -0.484375 0.625l4.671875 0z" fill-rule="nonzero"/><path fill="#000000" fill-opacity="0.0" d="m352.08487 264.39413l76.44095 0l0 15.338593l-76.44095 0z" fill-rule="evenodd"/><path fill="#000000" d="m366.4755 274.33218l1.15625 0.15625q-0.1875 1.1875 -0.96875 1.859375q-0.78125 0.671875 -1.921875 0.671875q-1.40625 0 -2.28125 -0.921875q-0.859375 -0.9375 -0.859375 -2.65625q0 -1.125 0.375 -1.96875q0.375 -0.84375 1.125 -1.25q0.765625 -0.421875 1.65625 -0.421875q1.125 0 1.84375 0.578125q0.71875 0.5625 0.921875 1.609375l-1.140625 0.171875q-0.171875 -0.703125 -0.59375 -1.046875q-0.40625 -0.359375 -0.984375 -0.359375q-0.890625 0 -1.453125 0.640625q-0.546875 0.640625 -0.546875 2.0q0 1.40625 0.53125 2.03125q0.546875 0.625 1.40625 0.625q0.6875 0 1.140625 -0.421875q0.46875 -0.421875 0.59375 -1.296875zm2.1328125 2.53125l0 -9.546875l1.171875 0l0 9.546875l-1.171875 0zm7.507965 0l0 -1.015625q-0.8125 1.171875 -2.1875 1.171875q-0.609375 0 -1.140625 -0.234375q-0.53125 -0.234375 -0.796875 -0.578125q-0.25 -0.359375 -0.359375 -0.875q-0.0625 -0.34375 -0.0625 -1.09375l0 -4.28125l1.171875 0l0 3.828125q0 0.921875 0.0625 1.234375q0.109375 0.46875 0.46875 0.734375q0.359375 0.25 0.890625 0.25q0.515625 0 0.984375 -0.265625q0.46875 -0.265625 0.65625 -0.734375q0.1875 -0.46875 0.1875 -1.34375l0 -3.703125l1.171875 0l0 6.90625l-1.046875 0zm2.4124756 -2.0625l1.15625 -0.1875q0.109375 0.703125 0.546875 1.078125q0.453125 0.359375 1.25 0.359375q0.8125 0 1.203125 -0.328125q0.390625 -0.328125 0.390625 -0.765625q0 -0.390625 -0.359375 -0.625q-0.234375 -0.15625 -1.1875 -0.390625q-1.296875 -0.328125 -1.796875 -0.5625q-0.484375 -0.25 -0.75 -0.65625q-0.25 -0.421875 -0.25 -0.9375q0 -0.453125 0.203125 -0.84375q0.21875 -0.40625 0.578125 -0.671875q0.28125 -0.1875 0.75 -0.328125q0.46875 -0.140625 1.015625 -0.140625q0.8125 0 1.421875 0.234375q0.609375 0.234375 0.90625 0.640625q0.296875 0.390625 0.40625 1.0625l-1.140625 0.15625q-0.078125 -0.53125 -0.453125 -0.828125q-0.375 -0.3125 -1.0625 -0.3125q-0.8125 0 -1.15625 0.265625q-0.34375 0.265625 -0.34375 0.625q0 0.234375 0.140625 0.421875q0.15625 0.1875 0.453125 0.3125q0.171875 0.0625 1.03125 0.296875q1.25 0.328125 1.734375 0.546875q0.5 0.203125 0.78125 0.609375q0.28125 0.40625 0.28125 1.0q0 0.59375 -0.34375 1.109375q-0.34375 0.515625 -1.0 0.796875q-0.640625 0.28125 -1.453125 0.28125q-1.34375 0 -2.046875 -0.5625q-0.703125 -0.5625 -0.90625 -1.65625zm9.6953125 1.015625l0.171875 1.03125q-0.5 0.109375 -0.890625 0.109375q-0.640625 0 -1.0 -0.203125q-0.34375 -0.203125 -0.484375 -0.53125q-0.140625 -0.328125 -0.140625 -1.390625l0 -3.96875l-0.859375 0l0 -0.90625l0.859375 0l0 -1.71875l1.171875 -0.703125l0 2.421875l1.171875 0l0 0.90625l-1.171875 0l0 4.046875q0 0.5 0.046875 0.640625q0.0625 0.140625 0.203125 0.234375q0.140625 0.078125 0.40625 0.078125q0.203125 0 0.515625 -0.046875zm5.8748474 -1.171875l1.203125 0.140625q-0.28125 1.0625 -1.0625 1.65625q-0.765625 0.578125 -1.96875 0.578125q-1.515625 0 -2.40625 -0.9375q-0.890625 -0.9375 -0.890625 -2.609375q0 -1.75 0.890625 -2.703125q0.90625 -0.96875 2.34375 -0.96875q1.390625 0 2.265625 0.9375q0.875 0.9375 0.875 2.65625q0 0.109375 0 0.3125l-5.15625 0q0.0625 1.140625 0.640625 1.75q0.578125 0.59375 1.4375 0.59375q0.65625 0 1.109375 -0.328125q0.453125 -0.34375 0.71875 -1.078125zm-3.84375 -1.90625l3.859375 0q-0.078125 -0.859375 -0.4375 -1.296875q-0.5625 -0.6875 -1.453125 -0.6875q-0.8125 0 -1.359375 0.546875q-0.546875 0.53125 -0.609375 1.4375zm6.5062256 4.125l0 -6.90625l1.0625 0l0 1.046875q0.40625 -0.734375 0.734375 -0.96875q0.34375 -0.234375 0.765625 -0.234375q0.59375 0 1.203125 0.375l-0.40625 1.078125q-0.4375 -0.25 -0.859375 -0.25q-0.390625 0 -0.703125 0.234375q-0.296875 0.234375 -0.421875 0.640625q-0.203125 0.625 -0.203125 1.359375l0 3.625l-1.171875 0zm7.8444824 -2.515625l1.171875 -0.15625q0.203125 1.0 0.6875 1.4375q0.484375 0.4375 1.171875 0.4375q0.828125 0 1.390625 -0.578125q0.578125 -0.578125 0.578125 -1.421875q0 -0.796875 -0.53125 -1.3125q-0.515625 -0.53125 -1.328125 -0.53125q-0.34375 0 -0.828125 0.125l0.125 -1.03125q0.125 0.015625 0.1875 0.015625q0.75 0 1.34375 -0.390625q0.609375 -0.390625 0.609375 -1.203125q0 -0.640625 -0.4375 -1.0625q-0.4375 -0.421875 -1.125 -0.421875q-0.6875 0 -1.140625 0.4375q-0.453125 0.421875 -0.59375 1.28125l-1.171875 -0.21875q0.21875 -1.171875 0.984375 -1.8125q0.765625 -0.65625 1.890625 -0.65625q0.78125 0 1.4375 0.34375q0.65625 0.328125 1.0 0.90625q0.359375 0.578125 0.359375 1.234375q0 0.609375 -0.34375 1.125q-0.328125 0.5 -0.96875 0.796875q0.84375 0.203125 1.3125 0.828125q0.46875 0.609375 0.46875 1.53125q0 1.25 -0.921875 2.125q-0.90625 0.859375 -2.296875 0.859375q-1.25 0 -2.09375 -0.75q-0.828125 -0.75 -0.9375 -1.9375z" fill-rule="nonzero"/></g></svg>