<?xml version="1.0" encoding="UTF-8" standalone="no"?>
<svg
   xmlns:dc="http://purl.org/dc/elements/1.1/"
   xmlns:cc="http://creativecommons.org/ns#"
   xmlns:rdf="http://www.w3.org/1999/02/22-rdf-syntax-ns#"
   xmlns:svg="http://www.w3.org/2000/svg"
   xmlns="http://www.w3.org/2000/svg"
   xmlns:sodipodi="http://sodipodi.sourceforge.net/DTD/sodipodi-0.dtd"
   xmlns:inkscape="http://www.inkscape.org/namespaces/inkscape"
   version="1.1"
   viewBox="0.0 0.0 362.0866141732283 276.15223097112863"
   fill="none"
   stroke="none"
   stroke-linecap="square"
   stroke-miterlimit="10"
   id="svg137"
   sodipodi:docname="en-GeneralizationCurve.svg"
   inkscape:version="0.92.2 5c3e80d, 2017-08-06">
  <metadata
     id="metadata143">
    <rdf:RDF>
      <cc:Work
         rdf:about="">
        <dc:format>image/svg+xml</dc:format>
        <dc:type
           rdf:resource="http://purl.org/dc/dcmitype/StillImage" />
      </cc:Work>
    </rdf:RDF>
  </metadata>
  <defs
     id="defs141" />
  <sodipodi:namedview
     pagecolor="#ffffff"
     bordercolor="#666666"
     borderopacity="1"
     objecttolerance="10"
     gridtolerance="10"
     guidetolerance="10"
     inkscape:pageopacity="0"
     inkscape:pageshadow="2"
     inkscape:window-width="1343"
     inkscape:window-height="775"
     id="namedview139"
     showgrid="false"
     inkscape:zoom="2"
     inkscape:cx="181.0433"
     inkscape:cy="138.07611"
     inkscape:window-x="258"
     inkscape:window-y="1227"
     inkscape:window-maximized="0"
     inkscape:current-layer="g135" />
  <clipPath
     id="p.0">
    <path
       d="m0 0l362.0866 0l0 276.15222l-362.0866 0l0 -276.15222z"
       clip-rule="nonzero"
       id="path2" />
  </clipPath>
  <g
     clip-path="url(#p.0)"
     id="g135">
    <path
       fill="#000000"
       fill-opacity="0.0"
       d="m0 0l362.0866 0l0 276.15222l-362.0866 0z"
       fill-rule="evenodd"
       id="path5" />
    <path
       fill="#000000"
       fill-opacity="0.0"
       d="m70.0 8.800525l0 221.00787"
       fill-rule="evenodd"
       id="path7" />
    <path
       stroke="#000000"
       stroke-width="1.0"
       stroke-linejoin="round"
       stroke-linecap="butt"
       d="m70.0 8.800525l0 221.00787"
       fill-rule="evenodd"
       id="path9" />
    <path
       fill="#000000"
       fill-opacity="0.0"
       d="m70.0 229.80052l270.99213 0"
       fill-rule="evenodd"
       id="path11" />
    <path
       stroke="#000000"
       stroke-width="1.0"
       stroke-linejoin="round"
       stroke-linecap="butt"
       d="m70.0 229.80052l270.99213 0"
       fill-rule="evenodd"
       id="path13" />
    <path
       fill="#cfe2f3"
       d="m83.0 11.296588l0 0c0 -1.9308224 1.565239 -3.4960632 3.4960632 -3.4960632l0 0c0.9272156 0 1.816452 0.36833477 2.4720917 1.0239735c0.65563965 0.6556387 1.0239716 1.5448761 1.0239716 2.4720898l0 0c0 1.9308224 -1.565239 3.4960632 -3.4960632 3.4960632l0 0c-1.9308243 0 -3.4960632 -1.5652409 -3.4960632 -3.4960632z"
       fill-rule="evenodd"
       id="path15" />
    <path
       stroke="#000000"
       stroke-width="1.0"
       stroke-linejoin="round"
       stroke-linecap="butt"
       d="m83.0 11.296588l0 0c0 -1.9308224 1.565239 -3.4960632 3.4960632 -3.4960632l0 0c0.9272156 0 1.816452 0.36833477 2.4720917 1.0239735c0.65563965 0.6556387 1.0239716 1.5448761 1.0239716 2.4720898l0 0c0 1.9308224 -1.565239 3.4960632 -3.4960632 3.4960632l0 0c-1.9308243 0 -3.4960632 -1.5652409 -3.4960632 -3.4960632z"
       fill-rule="evenodd"
       id="path17" />
    <path
       fill="#cfe2f3"
       d="m99.0 83.296585l0 0c0 -1.9308167 1.565239 -3.4960632 3.4960632 -3.4960632l0 0c0.9272156 0 1.816452 0.36833954 2.4720917 1.0239792c0.65563965 0.65563965 1.0239716 1.5448761 1.0239716 2.472084l0 0c0 1.9308243 -1.565239 3.4960632 -3.4960632 3.4960632l0 0c-1.9308243 0 -3.4960632 -1.565239 -3.4960632 -3.4960632z"
       fill-rule="evenodd"
       id="path19" />
    <path
       stroke="#000000"
       stroke-width="1.0"
       stroke-linejoin="round"
       stroke-linecap="butt"
       d="m99.0 83.296585l0 0c0 -1.9308167 1.565239 -3.4960632 3.4960632 -3.4960632l0 0c0.9272156 0 1.816452 0.36833954 2.4720917 1.0239792c0.65563965 0.65563965 1.0239716 1.5448761 1.0239716 2.472084l0 0c0 1.9308243 -1.565239 3.4960632 -3.4960632 3.4960632l0 0c-1.9308243 0 -3.4960632 -1.565239 -3.4960632 -3.4960632z"
       fill-rule="evenodd"
       id="path21" />
    <path
       fill="#cfe2f3"
       d="m115.0 107.296585l0 0c0 -1.9308167 1.565239 -3.4960632 3.4960632 -3.4960632l0 0c0.9272156 0 1.816452 0.36833954 2.4720917 1.0239792c0.65563965 0.65563965 1.0239716 1.5448761 1.0239716 2.472084l0 0c0 1.9308243 -1.565239 3.4960632 -3.4960632 3.4960632l0 0c-1.9308243 0 -3.4960632 -1.565239 -3.4960632 -3.4960632z"
       fill-rule="evenodd"
       id="path23" />
    <path
       stroke="#000000"
       stroke-width="1.0"
       stroke-linejoin="round"
       stroke-linecap="butt"
       d="m115.0 107.296585l0 0c0 -1.9308167 1.565239 -3.4960632 3.4960632 -3.4960632l0 0c0.9272156 0 1.816452 0.36833954 2.4720917 1.0239792c0.65563965 0.65563965 1.0239716 1.5448761 1.0239716 2.472084l0 0c0 1.9308243 -1.565239 3.4960632 -3.4960632 3.4960632l0 0c-1.9308243 0 -3.4960632 -1.565239 -3.4960632 -3.4960632z"
       fill-rule="evenodd"
       id="path25" />
    <path
       fill="#cfe2f3"
       d="m131.0 128.29659l0 0c0 -1.9308167 1.5652466 -3.4960632 3.4960632 -3.4960632l0 0c0.9272156 0 1.816452 0.36833954 2.4720917 1.0239792c0.65563965 0.65563965 1.0239716 1.5448761 1.0239716 2.472084l0 0c0 1.9308319 -1.5652466 3.4960632 -3.4960632 3.4960632l0 0c-1.9308167 0 -3.4960632 -1.5652313 -3.4960632 -3.4960632z"
       fill-rule="evenodd"
       id="path27" />
    <path
       stroke="#000000"
       stroke-width="1.0"
       stroke-linejoin="round"
       stroke-linecap="butt"
       d="m131.0 128.29659l0 0c0 -1.9308167 1.5652466 -3.4960632 3.4960632 -3.4960632l0 0c0.9272156 0 1.816452 0.36833954 2.4720917 1.0239792c0.65563965 0.65563965 1.0239716 1.5448761 1.0239716 2.472084l0 0c0 1.9308319 -1.5652466 3.4960632 -3.4960632 3.4960632l0 0c-1.9308167 0 -3.4960632 -1.5652313 -3.4960632 -3.4960632z"
       fill-rule="evenodd"
       id="path29" />
    <path
       fill="#cfe2f3"
       d="m147.0 142.29659l0 0c0 -1.9308167 1.5652466 -3.4960632 3.4960632 -3.4960632l0 0c0.9272156 0 1.816452 0.3683319 2.4720917 1.0239716c0.65563965 0.65563965 1.0239716 1.5448761 1.0239716 2.4720917l0 0c0 1.9308319 -1.5652466 3.4960632 -3.4960632 3.4960632l0 0c-1.9308167 0 -3.4960632 -1.5652313 -3.4960632 -3.4960632z"
       fill-rule="evenodd"
       id="path31" />
    <path
       stroke="#000000"
       stroke-width="1.0"
       stroke-linejoin="round"
       stroke-linecap="butt"
       d="m147.0 142.29659l0 0c0 -1.9308167 1.5652466 -3.4960632 3.4960632 -3.4960632l0 0c0.9272156 0 1.816452 0.3683319 2.4720917 1.0239716c0.65563965 0.65563965 1.0239716 1.5448761 1.0239716 2.4720917l0 0c0 1.9308319 -1.5652466 3.4960632 -3.4960632 3.4960632l0 0c-1.9308167 0 -3.4960632 -1.5652313 -3.4960632 -3.4960632z"
       fill-rule="evenodd"
       id="path33" />
    <path
       fill="#cfe2f3"
       d="m163.0 155.29659l0 0c0 -1.9308167 1.5652466 -3.4960632 3.4960632 -3.4960632l0 0c0.9272156 0 1.816452 0.3683319 2.4720917 1.0239716c0.65563965 0.65563965 1.0239716 1.5448761 1.0239716 2.4720917l0 0c0 1.9308319 -1.5652466 3.4960632 -3.4960632 3.4960632l0 0c-1.9308167 0 -3.4960632 -1.5652313 -3.4960632 -3.4960632z"
       fill-rule="evenodd"
       id="path35" />
    <path
       stroke="#000000"
       stroke-width="1.0"
       stroke-linejoin="round"
       stroke-linecap="butt"
       d="m163.0 155.29659l0 0c0 -1.9308167 1.5652466 -3.4960632 3.4960632 -3.4960632l0 0c0.9272156 0 1.816452 0.3683319 2.4720917 1.0239716c0.65563965 0.65563965 1.0239716 1.5448761 1.0239716 2.4720917l0 0c0 1.9308319 -1.5652466 3.4960632 -3.4960632 3.4960632l0 0c-1.9308167 0 -3.4960632 -1.5652313 -3.4960632 -3.4960632z"
       fill-rule="evenodd"
       id="path37" />
    <path
       fill="#cfe2f3"
       d="m179.0 161.29659l0 0c0 -1.9308167 1.5652466 -3.4960632 3.4960632 -3.4960632l0 0c0.9272156 0 1.816452 0.3683319 2.4720917 1.0239716c0.65563965 0.65563965 1.0239716 1.5448761 1.0239716 2.4720917l0 0c0 1.9308319 -1.5652466 3.4960632 -3.4960632 3.4960632l0 0c-1.9308167 0 -3.4960632 -1.5652313 -3.4960632 -3.4960632z"
       fill-rule="evenodd"
       id="path39" />
    <path
       stroke="#000000"
       stroke-width="1.0"
       stroke-linejoin="round"
       stroke-linecap="butt"
       d="m179.0 161.29659l0 0c0 -1.9308167 1.5652466 -3.4960632 3.4960632 -3.4960632l0 0c0.9272156 0 1.816452 0.3683319 2.4720917 1.0239716c0.65563965 0.65563965 1.0239716 1.5448761 1.0239716 2.4720917l0 0c0 1.9308319 -1.5652466 3.4960632 -3.4960632 3.4960632l0 0c-1.9308167 0 -3.4960632 -1.5652313 -3.4960632 -3.4960632z"
       fill-rule="evenodd"
       id="path41" />
    <path
       fill="#cfe2f3"
       d="m195.0 171.29659l0 0c0 -1.9308167 1.5652466 -3.4960632 3.4960632 -3.4960632l0 0c0.9272156 0 1.816452 0.3683319 2.4720917 1.0239716c0.65563965 0.65563965 1.0239716 1.5448761 1.0239716 2.4720917l0 0c0 1.9308319 -1.5652466 3.4960632 -3.4960632 3.4960632l0 0c-1.9308167 0 -3.4960632 -1.5652313 -3.4960632 -3.4960632z"
       fill-rule="evenodd"
       id="path43" />
    <path
       stroke="#000000"
       stroke-width="1.0"
       stroke-linejoin="round"
       stroke-linecap="butt"
       d="m195.0 171.29659l0 0c0 -1.9308167 1.5652466 -3.4960632 3.4960632 -3.4960632l0 0c0.9272156 0 1.816452 0.3683319 2.4720917 1.0239716c0.65563965 0.65563965 1.0239716 1.5448761 1.0239716 2.4720917l0 0c0 1.9308319 -1.5652466 3.4960632 -3.4960632 3.4960632l0 0c-1.9308167 0 -3.4960632 -1.5652313 -3.4960632 -3.4960632z"
       fill-rule="evenodd"
       id="path45" />
    <path
       fill="#cfe2f3"
       d="m211.0 175.29659l0 0c0 -1.9308167 1.5652466 -3.4960632 3.4960632 -3.4960632l0 0c0.9272156 0 1.816452 0.3683319 2.4720917 1.0239716c0.65563965 0.65563965 1.0239716 1.5448761 1.0239716 2.4720917l0 0c0 1.9308319 -1.5652466 3.4960632 -3.4960632 3.4960632l0 0c-1.9308167 0 -3.4960632 -1.5652313 -3.4960632 -3.4960632z"
       fill-rule="evenodd"
       id="path47" />
    <path
       stroke="#000000"
       stroke-width="1.0"
       stroke-linejoin="round"
       stroke-linecap="butt"
       d="m211.0 175.29659l0 0c0 -1.9308167 1.5652466 -3.4960632 3.4960632 -3.4960632l0 0c0.9272156 0 1.816452 0.3683319 2.4720917 1.0239716c0.65563965 0.65563965 1.0239716 1.5448761 1.0239716 2.4720917l0 0c0 1.9308319 -1.5652466 3.4960632 -3.4960632 3.4960632l0 0c-1.9308167 0 -3.4960632 -1.5652313 -3.4960632 -3.4960632z"
       fill-rule="evenodd"
       id="path49" />
    <path
       fill="#cfe2f3"
       d="m227.0 180.82567l0 0c0 -1.9308167 1.5652466 -3.4960632 3.4960632 -3.4960632l0 0c0.9272156 0 1.816452 0.3683319 2.4720917 1.0239716c0.65563965 0.65563965 1.0239716 1.5448761 1.0239716 2.4720917l0 0c0 1.9308319 -1.5652466 3.4960632 -3.4960632 3.4960632l0 0c-1.9308167 0 -3.4960632 -1.5652313 -3.4960632 -3.4960632z"
       fill-rule="evenodd"
       id="path51" />
    <path
       stroke="#000000"
       stroke-width="1.0"
       stroke-linejoin="round"
       stroke-linecap="butt"
       d="m227.0 180.82567l0 0c0 -1.9308167 1.5652466 -3.4960632 3.4960632 -3.4960632l0 0c0.9272156 0 1.816452 0.3683319 2.4720917 1.0239716c0.65563965 0.65563965 1.0239716 1.5448761 1.0239716 2.4720917l0 0c0 1.9308319 -1.5652466 3.4960632 -3.4960632 3.4960632l0 0c-1.9308167 0 -3.4960632 -1.5652313 -3.4960632 -3.4960632z"
       fill-rule="evenodd"
       id="path53" />
    <path
       fill="#cfe2f3"
       d="m243.0 187.29659l0 0c0 -1.9308167 1.5652466 -3.4960632 3.4960632 -3.4960632l0 0c0.9272156 0 1.816452 0.3683319 2.4720917 1.0239716c0.65563965 0.65563965 1.0239716 1.5448761 1.0239716 2.4720917l0 0c0 1.9308319 -1.5652466 3.4960632 -3.4960632 3.4960632l0 0c-1.9308167 0 -3.4960632 -1.5652313 -3.4960632 -3.4960632z"
       fill-rule="evenodd"
       id="path55" />
    <path
       stroke="#000000"
       stroke-width="1.0"
       stroke-linejoin="round"
       stroke-linecap="butt"
       d="m243.0 187.29659l0 0c0 -1.9308167 1.5652466 -3.4960632 3.4960632 -3.4960632l0 0c0.9272156 0 1.816452 0.3683319 2.4720917 1.0239716c0.65563965 0.65563965 1.0239716 1.5448761 1.0239716 2.4720917l0 0c0 1.9308319 -1.5652466 3.4960632 -3.4960632 3.4960632l0 0c-1.9308167 0 -3.4960632 -1.5652313 -3.4960632 -3.4960632z"
       fill-rule="evenodd"
       id="path57" />
    <path
       fill="#cfe2f3"
       d="m259.0 189.74312l0 0c0 -1.9308167 1.5652466 -3.4960632 3.4960632 -3.4960632l0 0c0.9272156 0 1.8164368 0.3683319 2.4720764 1.0239716c0.65563965 0.65563965 1.0239868 1.5448761 1.0239868 2.4720917l0 0c0 1.9308167 -1.5652466 3.4960632 -3.4960632 3.4960632l0 0c-1.9308167 0 -3.4960632 -1.5652466 -3.4960632 -3.4960632z"
       fill-rule="evenodd"
       id="path59" />
    <path
       stroke="#000000"
       stroke-width="1.0"
       stroke-linejoin="round"
       stroke-linecap="butt"
       d="m259.0 189.74312l0 0c0 -1.9308167 1.5652466 -3.4960632 3.4960632 -3.4960632l0 0c0.9272156 0 1.8164368 0.3683319 2.4720764 1.0239716c0.65563965 0.65563965 1.0239868 1.5448761 1.0239868 2.4720917l0 0c0 1.9308167 -1.5652466 3.4960632 -3.4960632 3.4960632l0 0c-1.9308167 0 -3.4960632 -1.5652466 -3.4960632 -3.4960632z"
       fill-rule="evenodd"
       id="path61" />
    <path
       fill="#cfe2f3"
       d="m275.0 191.37914l0 0c0 -1.9308167 1.5652466 -3.4960632 3.4960632 -3.4960632l0 0c0.9272156 0 1.8164368 0.3683319 2.4720764 1.0239716c0.65563965 0.65563965 1.0239868 1.5448761 1.0239868 2.4720917l0 0c0 1.9308319 -1.5652466 3.4960632 -3.4960632 3.4960632l0 0c-1.9308167 0 -3.4960632 -1.5652313 -3.4960632 -3.4960632z"
       fill-rule="evenodd"
       id="path63" />
    <path
       stroke="#000000"
       stroke-width="1.0"
       stroke-linejoin="round"
       stroke-linecap="butt"
       d="m275.0 191.37914l0 0c0 -1.9308167 1.5652466 -3.4960632 3.4960632 -3.4960632l0 0c0.9272156 0 1.8164368 0.3683319 2.4720764 1.0239716c0.65563965 0.65563965 1.0239868 1.5448761 1.0239868 2.4720917l0 0c0 1.9308319 -1.5652466 3.4960632 -3.4960632 3.4960632l0 0c-1.9308167 0 -3.4960632 -1.5652313 -3.4960632 -3.4960632z"
       fill-rule="evenodd"
       id="path65" />
    <path
       fill="#cfe2f3"
       d="m291.0 191.88383l0 0c0 -1.9308167 1.5652466 -3.4960632 3.4960632 -3.4960632l0 0c0.9272156 0 1.8164368 0.3683319 2.4720764 1.0239716c0.65563965 0.65563965 1.0239868 1.5448761 1.0239868 2.4720917l0 0c0 1.9308167 -1.5652466 3.4960632 -3.4960632 3.4960632l0 0c-1.9308167 0 -3.4960632 -1.5652466 -3.4960632 -3.4960632z"
       fill-rule="evenodd"
       id="path67" />
    <path
       stroke="#000000"
       stroke-width="1.0"
       stroke-linejoin="round"
       stroke-linecap="butt"
       d="m291.0 191.88383l0 0c0 -1.9308167 1.5652466 -3.4960632 3.4960632 -3.4960632l0 0c0.9272156 0 1.8164368 0.3683319 2.4720764 1.0239716c0.65563965 0.65563965 1.0239868 1.5448761 1.0239868 2.4720917l0 0c0 1.9308167 -1.5652466 3.4960632 -3.4960632 3.4960632l0 0c-1.9308167 0 -3.4960632 -1.5652466 -3.4960632 -3.4960632z"
       fill-rule="evenodd"
       id="path69" />
    <path
       fill="#cfe2f3"
       d="m307.0 191.82567l0 0c0 -1.9308167 1.5652466 -3.4960632 3.4960632 -3.4960632l0 0c0.9272156 0 1.8164368 0.3683319 2.4720764 1.0239716c0.65563965 0.65563965 1.0239868 1.5448761 1.0239868 2.4720917l0 0c0 1.9308319 -1.5652466 3.4960632 -3.4960632 3.4960632l0 0c-1.9308167 0 -3.4960632 -1.5652313 -3.4960632 -3.4960632z"
       fill-rule="evenodd"
       id="path71" />
    <path
       stroke="#000000"
       stroke-width="1.0"
       stroke-linejoin="round"
       stroke-linecap="butt"
       d="m307.0 191.82567l0 0c0 -1.9308167 1.5652466 -3.4960632 3.4960632 -3.4960632l0 0c0.9272156 0 1.8164368 0.3683319 2.4720764 1.0239716c0.65563965 0.65563965 1.0239868 1.5448761 1.0239868 2.4720917l0 0c0 1.9308319 -1.5652466 3.4960632 -3.4960632 3.4960632l0 0c-1.9308167 0 -3.4960632 -1.5652313 -3.4960632 -3.4960632z"
       fill-rule="evenodd"
       id="path73" />
    <path
       fill="#000000"
       fill-opacity="0.0"
       d="m70.01575 231.80052l270.99213 0l0 42.015762l-270.99213 0z"
       fill-rule="evenodd"
       id="path75" />
    <path
       fill="#000000"
       fill-opacity="0.0"
       d="m6.0 95.80052l61.984253 0l0 42.015747l-61.984253 0z"
       fill-rule="evenodd"
       id="path79" />
    <path
       fill="#cfe2f3"
       d="m323.0 193.66057l0 0c0 -1.9308167 1.5652466 -3.4960632 3.4960632 -3.4960632l0 0c0.9272156 0 1.8164368 0.3683319 2.4720764 1.0239716c0.65563965 0.65563965 1.0239868 1.5448761 1.0239868 2.4720917l0 0c0 1.9308167 -1.5652466 3.4960632 -3.4960632 3.4960632l0 0c-1.9308167 0 -3.4960632 -1.5652466 -3.4960632 -3.4960632z"
       fill-rule="evenodd"
       id="path83" />
    <path
       stroke="#000000"
       stroke-width="1.0"
       stroke-linejoin="round"
       stroke-linecap="butt"
       d="m323.0 193.66057l0 0c0 -1.9308167 1.5652466 -3.4960632 3.4960632 -3.4960632l0 0c0.9272156 0 1.8164368 0.3683319 2.4720764 1.0239716c0.65563965 0.65563965 1.0239868 1.5448761 1.0239868 2.4720917l0 0c0 1.9308167 -1.5652466 3.4960632 -3.4960632 3.4960632l0 0c-1.9308167 0 -3.4960632 -1.5652466 -3.4960632 -3.4960632z"
       fill-rule="evenodd"
       id="path85" />
    <path
       fill="#cfe2f3"
       d="m339.0 194.57802l0 0c0 -1.9308167 1.5652466 -3.4960632 3.4960632 -3.4960632l0 0c0.9272156 0 1.8164368 0.3683319 2.4720764 1.0239716c0.65563965 0.65563965 1.0239868 1.5448761 1.0239868 2.4720917l0 0c0 1.9308167 -1.5652466 3.4960632 -3.4960632 3.4960632l0 0c-1.9308167 0 -3.4960632 -1.5652466 -3.4960632 -3.4960632z"
       fill-rule="evenodd"
       id="path87" />
    <path
       stroke="#000000"
       stroke-width="1.0"
       stroke-linejoin="round"
       stroke-linecap="butt"
       d="m339.0 194.57802l0 0c0 -1.9308167 1.5652466 -3.4960632 3.4960632 -3.4960632l0 0c0.9272156 0 1.8164368 0.3683319 2.4720764 1.0239716c0.65563965 0.65563965 1.0239868 1.5448761 1.0239868 2.4720917l0 0c0 1.9308167 -1.5652466 3.4960632 -3.4960632 3.4960632l0 0c-1.9308167 0 -3.4960632 -1.5652466 -3.4960632 -3.4960632z"
       fill-rule="evenodd"
       id="path89" />
    <path
       fill="#ff9900"
       d="m83.0 8.850056l0 0c0 -1.9308224 1.565239 -3.4960632 3.4960632 -3.4960632l0 0c0.9272156 0 1.816452 0.3683343 2.4720917 1.0239735c0.65563965 0.6556387 1.0239716 1.5448761 1.0239716 2.4720898l0 0c0 1.9308224 -1.565239 3.4960632 -3.4960632 3.4960632l0 0c-1.9308243 0 -3.4960632 -1.5652409 -3.4960632 -3.4960632z"
       fill-rule="evenodd"
       id="path91" />
    <path
       fill="#ff9900"
       d="m99.0 77.74312l0 0c0 -1.9308167 1.565239 -3.4960632 3.4960632 -3.4960632l0 0c0.9272156 0 1.816452 0.36833954 2.4720917 1.0239716c0.65563965 0.65563965 1.0239716 1.5448837 1.0239716 2.4720917l0 0c0 1.9308243 -1.565239 3.4960632 -3.4960632 3.4960632l0 0c-1.9308243 0 -3.4960632 -1.565239 -3.4960632 -3.4960632z"
       fill-rule="evenodd"
       id="path93" />
    <path
       fill="#ff9900"
       d="m115.0 99.296585l0 0c0 -1.9308167 1.565239 -3.4960632 3.4960632 -3.4960632l0 0c0.9272156 0 1.816452 0.36833954 2.4720917 1.0239792c0.65563965 0.65563965 1.0239716 1.5448761 1.0239716 2.472084l0 0c0 1.9308243 -1.565239 3.4960632 -3.4960632 3.4960632l0 0c-1.9308243 0 -3.4960632 -1.565239 -3.4960632 -3.4960632z"
       fill-rule="evenodd"
       id="path95" />
    <path
       fill="#ff9900"
       d="m131.0 119.99077l0 0c0 -1.9308167 1.5652466 -3.4960632 3.4960632 -3.4960632l0 0c0.9272156 0 1.816452 0.36833954 2.4720917 1.0239792c0.65563965 0.65563965 1.0239716 1.5448761 1.0239716 2.472084l0 0c0 1.9308243 -1.5652466 3.4960632 -3.4960632 3.4960632l0 0c-1.9308167 0 -3.4960632 -1.565239 -3.4960632 -3.4960632z"
       fill-rule="evenodd"
       id="path97" />
    <path
       fill="#ff9900"
       d="m147.0 133.37914l0 0c0 -1.9308167 1.5652466 -3.4960632 3.4960632 -3.4960632l0 0c0.9272156 0 1.816452 0.3683319 2.4720917 1.0239716c0.65563965 0.65563965 1.0239716 1.5448761 1.0239716 2.4720917l0 0c0 1.9308319 -1.5652466 3.4960632 -3.4960632 3.4960632l0 0c-1.9308167 0 -3.4960632 -1.5652313 -3.4960632 -3.4960632z"
       fill-rule="evenodd"
       id="path99" />
    <path
       fill="#ff9900"
       d="m163.0 145.46169l0 0c0 -1.9308167 1.5652466 -3.4960632 3.4960632 -3.4960632l0 0c0.9272156 0 1.816452 0.3683319 2.4720917 1.0239716c0.65563965 0.65563965 1.0239716 1.5448761 1.0239716 2.4720917l0 0c0 1.9308319 -1.5652466 3.4960632 -3.4960632 3.4960632l0 0c-1.9308167 0 -3.4960632 -1.5652313 -3.4960632 -3.4960632z"
       fill-rule="evenodd"
       id="path101" />
    <path
       fill="#ff9900"
       d="m179.0 149.9326l0 0c0 -1.9308167 1.5652466 -3.4960632 3.4960632 -3.4960632l0 0c0.9272156 0 1.816452 0.3683319 2.4720917 1.0239716c0.65563965 0.65563965 1.0239716 1.5448761 1.0239716 2.4720917l0 0c0 1.9308319 -1.5652466 3.4960632 -3.4960632 3.4960632l0 0c-1.9308167 0 -3.4960632 -1.5652313 -3.4960632 -3.4960632z"
       fill-rule="evenodd"
       id="path103" />
    <path
       fill="#ff9900"
       d="m195.0 155.29659l0 0c0 -1.9308167 1.5652466 -3.4960632 3.4960632 -3.4960632l0 0c0.9272156 0 1.816452 0.3683319 2.4720917 1.0239716c0.65563965 0.65563965 1.0239716 1.5448761 1.0239716 2.4720917l0 0c0 1.9308319 -1.5652466 3.4960632 -3.4960632 3.4960632l0 0c-1.9308167 0 -3.4960632 -1.5652313 -3.4960632 -3.4960632z"
       fill-rule="evenodd"
       id="path105" />
    <path
       fill="#ff9900"
       d="m211.0 158.68495l0 0c0 -1.9308167 1.5652466 -3.4960632 3.4960632 -3.4960632l0 0c0.9272156 0 1.816452 0.3683319 2.4720917 1.0239716c0.65563965 0.65563965 1.0239716 1.5448761 1.0239716 2.4720917l0 0c0 1.9308319 -1.5652466 3.4960632 -3.4960632 3.4960632l0 0c-1.9308167 0 -3.4960632 -1.5652313 -3.4960632 -3.4960632z"
       fill-rule="evenodd"
       id="path107" />
    <path
       fill="#ff9900"
       d="m227.0 158.96638l0 0c0 -1.9308167 1.5652466 -3.4960632 3.4960632 -3.4960632l0 0c0.9272156 0 1.816452 0.3683319 2.4720917 1.0239716c0.65563965 0.65563965 1.0239716 1.5448761 1.0239716 2.4720917l0 0c0 1.9308167 -1.5652466 3.4960632 -3.4960632 3.4960632l0 0c-1.9308167 0 -3.4960632 -1.5652466 -3.4960632 -3.4960632z"
       fill-rule="evenodd"
       id="path109" />
    <path
       fill="#ff9900"
       d="m243.0 159.01515l0 0c0 -1.9308167 1.5652466 -3.4960632 3.4960632 -3.4960632l0 0c0.9272156 0 1.816452 0.3683319 2.4720917 1.0239716c0.65563965 0.65563965 1.0239716 1.5448761 1.0239716 2.4720917l0 0c0 1.9308319 -1.5652466 3.4960632 -3.4960632 3.4960632l0 0c-1.9308167 0 -3.4960632 -1.5652313 -3.4960632 -3.4960632z"
       fill-rule="evenodd"
       id="path111" />
    <path
       fill="#ff9900"
       d="m259.0 157.74312l0 0c0 -1.9308167 1.5652466 -3.4960632 3.4960632 -3.4960632l0 0c0.9272156 0 1.8164368 0.3683319 2.4720764 1.0239716c0.65563965 0.65563965 1.0239868 1.5448761 1.0239868 2.4720917l0 0c0 1.9308167 -1.5652466 3.4960632 -3.4960632 3.4960632l0 0c-1.9308167 0 -3.4960632 -1.5652466 -3.4960632 -3.4960632z"
       fill-rule="evenodd"
       id="path113" />
    <path
       fill="#ff9900"
       d="m275.0 154.4373l0 0c0 -1.9308167 1.5652466 -3.4960632 3.4960632 -3.4960632l0 0c0.9272156 0 1.8164368 0.3683319 2.4720764 1.0239716c0.65563965 0.65563965 1.0239868 1.5448761 1.0239868 2.4720917l0 0c0 1.9308319 -1.5652466 3.4960632 -3.4960632 3.4960632l0 0c-1.9308167 0 -3.4960632 -1.5652313 -3.4960632 -3.4960632z"
       fill-rule="evenodd"
       id="path115" />
    <path
       fill="#ff9900"
       d="m291.0 151.88383l0 0c0 -1.9308167 1.5652466 -3.4960632 3.4960632 -3.4960632l0 0c0.9272156 0 1.8164368 0.3683319 2.4720764 1.0239716c0.65563965 0.65563965 1.0239868 1.5448761 1.0239868 2.4720917l0 0c0 1.9308167 -1.5652466 3.4960632 -3.4960632 3.4960632l0 0c-1.9308167 0 -3.4960632 -1.5652466 -3.4960632 -3.4960632z"
       fill-rule="evenodd"
       id="path117" />
    <path
       fill="#ff9900"
       d="m307.0 147.49547l0 0c0 -1.9308167 1.5652466 -3.4960632 3.4960632 -3.4960632l0 0c0.9272156 0 1.8164368 0.3683319 2.4720764 1.0239716c0.65563965 0.65563965 1.0239868 1.5448761 1.0239868 2.4720917l0 0c0 1.9308167 -1.5652466 3.4960632 -3.4960632 3.4960632l0 0c-1.9308167 0 -3.4960632 -1.5652466 -3.4960632 -3.4960632z"
       fill-rule="evenodd"
       id="path119" />
    <path
       fill="#ff9900"
       d="m323.0 142.6024l0 0c0 -1.9308167 1.5652466 -3.4960632 3.4960632 -3.4960632l0 0c0.9272156 0 1.8164368 0.3683319 2.4720764 1.0239716c0.65563965 0.65563965 1.0239868 1.5448761 1.0239868 2.4720917l0 0c0 1.9308319 -1.5652466 3.4960632 -3.4960632 3.4960632l0 0c-1.9308167 0 -3.4960632 -1.5652313 -3.4960632 -3.4960632z"
       fill-rule="evenodd"
       id="path121" />
    <path
       fill="#ff9900"
       d="m339.0 136.4373l0 0c0 -1.9308167 1.5652466 -3.4960632 3.4960632 -3.4960632l0 0c0.9272156 0 1.8164368 0.3683319 2.4720764 1.0239716c0.65563965 0.65563965 1.0239868 1.5448761 1.0239868 2.4720917l0 0c0 1.9308319 -1.5652466 3.4960632 -3.4960632 3.4960632l0 0c-1.9308167 0 -3.4960632 -1.5652313 -3.4960632 -3.4960632z"
       fill-rule="evenodd"
       id="path123" />
    <path
       fill="#cfe2f3"
       d="m192.12514 199.12285l96.94487 0l0 16.094498l-96.94487 0z"
       fill-rule="evenodd"
       id="path125" />
    <path
       stroke="#000000"
       stroke-width="1.0"
       stroke-linejoin="round"
       stroke-linecap="butt"
       d="m192.12514 199.12285l96.94487 0l0 16.094498l-96.94487 0z"
       fill-rule="evenodd"
       id="path127" />
    <path
       fill="#ff9900"
       d="m190.24147 130.79265l103.33858 0l0 16.094498l-103.33858 0z"
       fill-rule="evenodd"
       id="path131" />
    <text
       xml:space="preserve"
       style="font-style:normal;font-variant:normal;font-weight:normal;font-stretch:normal;font-size:13.33333302px;line-height:1.25;font-family:sans-serif;-inkscape-font-specification:sans-serif;letter-spacing:0px;word-spacing:0px;fill:#000000;fill-opacity:1;stroke:none"
       x="25.896879"
       y="113.38967"
       id="text147"><tspan
         sodipodi:role="line"
         id="tspan145"
         x="25.896879"
         y="113.38967"
         style="font-style:normal;font-variant:normal;font-weight:bold;font-stretch:normal;font-family:sans-serif;-inkscape-font-specification:'sans-serif Bold'">loss</tspan></text>
    <flowRoot
       xml:space="preserve"
       id="flowRoot149"
       style="fill:black;fill-opacity:1;stroke:none;font-family:sans-serif;font-style:normal;font-weight:normal;font-size:18.66533333px;line-height:1.25;letter-spacing:0px;word-spacing:0px;-inkscape-font-specification:sans-serif;font-stretch:normal;font-variant:normal"><flowRegion
         id="flowRegion151"><rect
           id="rect153"
           width="84.410675"
           height="24.705563"
           x="159.04207"
           y="234.97629" /></flowRegion><flowPara
         id="flowPara155" /></flowRoot>    <text
       xml:space="preserve"
       style="font-style:normal;font-variant:normal;font-weight:normal;font-stretch:normal;font-size:13.33333302px;line-height:1.25;font-family:sans-serif;-inkscape-font-specification:sans-serif;letter-spacing:0px;word-spacing:0px;fill:#000000;fill-opacity:1;stroke:none"
       x="161.89597"
       y="250.41727"
       id="text159"><tspan
         sodipodi:role="line"
         id="tspan157"
         x="161.89597"
         y="250.41727"
         style="font-style:normal;font-variant:normal;font-weight:bold;font-stretch:normal;font-family:sans-serif;-inkscape-font-specification:'sans-serif Bold'">iterations</tspan></text>
    <text
       xml:space="preserve"
       style="font-style:normal;font-variant:normal;font-weight:normal;font-stretch:normal;font-size:13.33333302px;line-height:1.25;font-family:sans-serif;-inkscape-font-specification:sans-serif;letter-spacing:0px;word-spacing:0px;fill:#000000;fill-opacity:1;stroke:none"
       x="196.61511"
       y="143.87451"
       id="text163"><tspan
         sodipodi:role="line"
         id="tspan161"
         x="196.61511"
         y="143.87451">validation set</tspan></text>
    <text
       xml:space="preserve"
       style="font-style:normal;font-variant:normal;font-weight:normal;font-stretch:normal;font-size:13.33333302px;line-height:1.25;font-family:sans-serif;-inkscape-font-specification:sans-serif;letter-spacing:0px;word-spacing:0px;fill:#000000;fill-opacity:1;stroke:none"
       x="202.33559"
       y="210.78542"
       id="text167"><tspan
         sodipodi:role="line"
         id="tspan165"
         x="202.33559"
         y="210.78542">training set</tspan></text>
  </g>
</svg>
