<?xml version="1.0" encoding="UTF-8" standalone="no"?>
<svg
   xmlns:dc="http://purl.org/dc/elements/1.1/"
   xmlns:cc="http://creativecommons.org/ns#"
   xmlns:rdf="http://www.w3.org/1999/02/22-rdf-syntax-ns#"
   xmlns:svg="http://www.w3.org/2000/svg"
   xmlns="http://www.w3.org/2000/svg"
   xmlns:sodipodi="http://sodipodi.sourceforge.net/DTD/sodipodi-0.dtd"
   xmlns:inkscape="http://www.inkscape.org/namespaces/inkscape"
   version="1.1"
   viewBox="0.0 0.0 362.0866141732283 276.15223097112863"
   fill="none"
   stroke="none"
   stroke-linecap="square"
   stroke-miterlimit="10"
   id="svg85"
   sodipodi:docname="LossCurve.svg"
   inkscape:version="0.92.2 5c3e80d, 2017-08-06">
  <metadata
     id="metadata91">
    <rdf:RDF>
      <cc:Work
         rdf:about="">
        <dc:format>image/svg+xml</dc:format>
        <dc:type
           rdf:resource="http://purl.org/dc/dcmitype/StillImage" />
      </cc:Work>
    </rdf:RDF>
  </metadata>
  <defs
     id="defs89" />
  <sodipodi:namedview
     pagecolor="#ffffff"
     bordercolor="#666666"
     borderopacity="1"
     objecttolerance="10"
     gridtolerance="10"
     guidetolerance="10"
     inkscape:pageopacity="0"
     inkscape:pageshadow="2"
     inkscape:window-width="1276"
     inkscape:window-height="927"
     id="namedview87"
     showgrid="false"
     inkscape:zoom="1.5"
     inkscape:cx="181.0433"
     inkscape:cy="138.07611"
     inkscape:window-x="0"
     inkscape:window-y="0"
     inkscape:window-maximized="0"
     inkscape:current-layer="svg85" />
  <clipPath
     id="p.0">
    <path
       d="m0 0l362.0866 0l0 276.15222l-362.0866 0l0 -276.15222z"
       clip-rule="nonzero"
       id="path2" />
  </clipPath>
  <g
     clip-path="url(#p.0)"
     id="g83"
     style="">
    <path
       fill="#000000"
       fill-opacity="0.0"
       d="m0 0l362.0866 0l0 276.15222l-362.0866 0z"
       fill-rule="evenodd"
       id="path5"
       style="" />
    <path
       fill="#000000"
       fill-opacity="0.0"
       d="m70.0 8.800525l0 221.00787"
       fill-rule="evenodd"
       id="path7"
       style="" />
    <path
       stroke="#000000"
       stroke-width="1.0"
       stroke-linejoin="round"
       stroke-linecap="butt"
       d="m70.0 8.800525l0 221.00787"
       fill-rule="evenodd"
       id="path9"
       style="" />
    <path
       fill="#000000"
       fill-opacity="0.0"
       d="m70.0 229.80052l270.99213 0"
       fill-rule="evenodd"
       id="path11"
       style="" />
    <path
       stroke="#000000"
       stroke-width="1.0"
       stroke-linejoin="round"
       stroke-linecap="butt"
       d="m70.0 229.80052l270.99213 0"
       fill-rule="evenodd"
       id="path13"
       style="" />
    <path
       fill="#cfe2f3"
       d="m83.0 11.296588l0 0c0 -1.9308224 1.565239 -3.4960632 3.4960632 -3.4960632l0 0c0.9272156 0 1.816452 0.36833477 2.4720917 1.0239735c0.65563965 0.6556387 1.0239716 1.5448761 1.0239716 2.4720898l0 0c0 1.9308224 -1.565239 3.4960632 -3.4960632 3.4960632l0 0c-1.9308243 0 -3.4960632 -1.5652409 -3.4960632 -3.4960632z"
       fill-rule="evenodd"
       id="path15"
       style="" />
    <path
       stroke="#000000"
       stroke-width="1.0"
       stroke-linejoin="round"
       stroke-linecap="butt"
       d="m83.0 11.296588l0 0c0 -1.9308224 1.565239 -3.4960632 3.4960632 -3.4960632l0 0c0.9272156 0 1.816452 0.36833477 2.4720917 1.0239735c0.65563965 0.6556387 1.0239716 1.5448761 1.0239716 2.4720898l0 0c0 1.9308224 -1.565239 3.4960632 -3.4960632 3.4960632l0 0c-1.9308243 0 -3.4960632 -1.5652409 -3.4960632 -3.4960632z"
       fill-rule="evenodd"
       id="path17"
       style="" />
    <path
       fill="#cfe2f3"
       d="m99.0 83.296585l0 0c0 -1.9308167 1.565239 -3.4960632 3.4960632 -3.4960632l0 0c0.9272156 0 1.816452 0.36833954 2.4720917 1.0239792c0.65563965 0.65563965 1.0239716 1.5448761 1.0239716 2.472084l0 0c0 1.9308243 -1.565239 3.4960632 -3.4960632 3.4960632l0 0c-1.9308243 0 -3.4960632 -1.565239 -3.4960632 -3.4960632z"
       fill-rule="evenodd"
       id="path19"
       style="" />
    <path
       stroke="#000000"
       stroke-width="1.0"
       stroke-linejoin="round"
       stroke-linecap="butt"
       d="m99.0 83.296585l0 0c0 -1.9308167 1.565239 -3.4960632 3.4960632 -3.4960632l0 0c0.9272156 0 1.816452 0.36833954 2.4720917 1.0239792c0.65563965 0.65563965 1.0239716 1.5448761 1.0239716 2.472084l0 0c0 1.9308243 -1.565239 3.4960632 -3.4960632 3.4960632l0 0c-1.9308243 0 -3.4960632 -1.565239 -3.4960632 -3.4960632z"
       fill-rule="evenodd"
       id="path21"
       style="" />
    <path
       fill="#cfe2f3"
       d="m115.0 107.296585l0 0c0 -1.9308167 1.565239 -3.4960632 3.4960632 -3.4960632l0 0c0.9272156 0 1.816452 0.36833954 2.4720917 1.0239792c0.65563965 0.65563965 1.0239716 1.5448761 1.0239716 2.472084l0 0c0 1.9308243 -1.565239 3.4960632 -3.4960632 3.4960632l0 0c-1.9308243 0 -3.4960632 -1.565239 -3.4960632 -3.4960632z"
       fill-rule="evenodd"
       id="path23"
       style="" />
    <path
       stroke="#000000"
       stroke-width="1.0"
       stroke-linejoin="round"
       stroke-linecap="butt"
       d="m115.0 107.296585l0 0c0 -1.9308167 1.565239 -3.4960632 3.4960632 -3.4960632l0 0c0.9272156 0 1.816452 0.36833954 2.4720917 1.0239792c0.65563965 0.65563965 1.0239716 1.5448761 1.0239716 2.472084l0 0c0 1.9308243 -1.565239 3.4960632 -3.4960632 3.4960632l0 0c-1.9308243 0 -3.4960632 -1.565239 -3.4960632 -3.4960632z"
       fill-rule="evenodd"
       id="path25"
       style="" />
    <path
       fill="#cfe2f3"
       d="m131.0 128.29659l0 0c0 -1.9308167 1.5652466 -3.4960632 3.4960632 -3.4960632l0 0c0.9272156 0 1.816452 0.36833954 2.4720917 1.0239792c0.65563965 0.65563965 1.0239716 1.5448761 1.0239716 2.472084l0 0c0 1.9308319 -1.5652466 3.4960632 -3.4960632 3.4960632l0 0c-1.9308167 0 -3.4960632 -1.5652313 -3.4960632 -3.4960632z"
       fill-rule="evenodd"
       id="path27"
       style="" />
    <path
       stroke="#000000"
       stroke-width="1.0"
       stroke-linejoin="round"
       stroke-linecap="butt"
       d="m131.0 128.29659l0 0c0 -1.9308167 1.5652466 -3.4960632 3.4960632 -3.4960632l0 0c0.9272156 0 1.816452 0.36833954 2.4720917 1.0239792c0.65563965 0.65563965 1.0239716 1.5448761 1.0239716 2.472084l0 0c0 1.9308319 -1.5652466 3.4960632 -3.4960632 3.4960632l0 0c-1.9308167 0 -3.4960632 -1.5652313 -3.4960632 -3.4960632z"
       fill-rule="evenodd"
       id="path29"
       style="" />
    <path
       fill="#cfe2f3"
       d="m147.0 142.29659l0 0c0 -1.9308167 1.5652466 -3.4960632 3.4960632 -3.4960632l0 0c0.9272156 0 1.816452 0.3683319 2.4720917 1.0239716c0.65563965 0.65563965 1.0239716 1.5448761 1.0239716 2.4720917l0 0c0 1.9308319 -1.5652466 3.4960632 -3.4960632 3.4960632l0 0c-1.9308167 0 -3.4960632 -1.5652313 -3.4960632 -3.4960632z"
       fill-rule="evenodd"
       id="path31"
       style="" />
    <path
       stroke="#000000"
       stroke-width="1.0"
       stroke-linejoin="round"
       stroke-linecap="butt"
       d="m147.0 142.29659l0 0c0 -1.9308167 1.5652466 -3.4960632 3.4960632 -3.4960632l0 0c0.9272156 0 1.816452 0.3683319 2.4720917 1.0239716c0.65563965 0.65563965 1.0239716 1.5448761 1.0239716 2.4720917l0 0c0 1.9308319 -1.5652466 3.4960632 -3.4960632 3.4960632l0 0c-1.9308167 0 -3.4960632 -1.5652313 -3.4960632 -3.4960632z"
       fill-rule="evenodd"
       id="path33"
       style="" />
    <path
       fill="#cfe2f3"
       d="m163.0 155.29659l0 0c0 -1.9308167 1.5652466 -3.4960632 3.4960632 -3.4960632l0 0c0.9272156 0 1.816452 0.3683319 2.4720917 1.0239716c0.65563965 0.65563965 1.0239716 1.5448761 1.0239716 2.4720917l0 0c0 1.9308319 -1.5652466 3.4960632 -3.4960632 3.4960632l0 0c-1.9308167 0 -3.4960632 -1.5652313 -3.4960632 -3.4960632z"
       fill-rule="evenodd"
       id="path35"
       style="" />
    <path
       stroke="#000000"
       stroke-width="1.0"
       stroke-linejoin="round"
       stroke-linecap="butt"
       d="m163.0 155.29659l0 0c0 -1.9308167 1.5652466 -3.4960632 3.4960632 -3.4960632l0 0c0.9272156 0 1.816452 0.3683319 2.4720917 1.0239716c0.65563965 0.65563965 1.0239716 1.5448761 1.0239716 2.4720917l0 0c0 1.9308319 -1.5652466 3.4960632 -3.4960632 3.4960632l0 0c-1.9308167 0 -3.4960632 -1.5652313 -3.4960632 -3.4960632z"
       fill-rule="evenodd"
       id="path37"
       style="" />
    <path
       fill="#cfe2f3"
       d="m179.0 161.29659l0 0c0 -1.9308167 1.5652466 -3.4960632 3.4960632 -3.4960632l0 0c0.9272156 0 1.816452 0.3683319 2.4720917 1.0239716c0.65563965 0.65563965 1.0239716 1.5448761 1.0239716 2.4720917l0 0c0 1.9308319 -1.5652466 3.4960632 -3.4960632 3.4960632l0 0c-1.9308167 0 -3.4960632 -1.5652313 -3.4960632 -3.4960632z"
       fill-rule="evenodd"
       id="path39"
       style="" />
    <path
       stroke="#000000"
       stroke-width="1.0"
       stroke-linejoin="round"
       stroke-linecap="butt"
       d="m179.0 161.29659l0 0c0 -1.9308167 1.5652466 -3.4960632 3.4960632 -3.4960632l0 0c0.9272156 0 1.816452 0.3683319 2.4720917 1.0239716c0.65563965 0.65563965 1.0239716 1.5448761 1.0239716 2.4720917l0 0c0 1.9308319 -1.5652466 3.4960632 -3.4960632 3.4960632l0 0c-1.9308167 0 -3.4960632 -1.5652313 -3.4960632 -3.4960632z"
       fill-rule="evenodd"
       id="path41"
       style="" />
    <path
       fill="#cfe2f3"
       d="m195.0 171.29659l0 0c0 -1.9308167 1.5652466 -3.4960632 3.4960632 -3.4960632l0 0c0.9272156 0 1.816452 0.3683319 2.4720917 1.0239716c0.65563965 0.65563965 1.0239716 1.5448761 1.0239716 2.4720917l0 0c0 1.9308319 -1.5652466 3.4960632 -3.4960632 3.4960632l0 0c-1.9308167 0 -3.4960632 -1.5652313 -3.4960632 -3.4960632z"
       fill-rule="evenodd"
       id="path43"
       style="" />
    <path
       stroke="#000000"
       stroke-width="1.0"
       stroke-linejoin="round"
       stroke-linecap="butt"
       d="m195.0 171.29659l0 0c0 -1.9308167 1.5652466 -3.4960632 3.4960632 -3.4960632l0 0c0.9272156 0 1.816452 0.3683319 2.4720917 1.0239716c0.65563965 0.65563965 1.0239716 1.5448761 1.0239716 2.4720917l0 0c0 1.9308319 -1.5652466 3.4960632 -3.4960632 3.4960632l0 0c-1.9308167 0 -3.4960632 -1.5652313 -3.4960632 -3.4960632z"
       fill-rule="evenodd"
       id="path45"
       style="" />
    <path
       fill="#cfe2f3"
       d="m211.0 175.29659l0 0c0 -1.9308167 1.5652466 -3.4960632 3.4960632 -3.4960632l0 0c0.9272156 0 1.816452 0.3683319 2.4720917 1.0239716c0.65563965 0.65563965 1.0239716 1.5448761 1.0239716 2.4720917l0 0c0 1.9308319 -1.5652466 3.4960632 -3.4960632 3.4960632l0 0c-1.9308167 0 -3.4960632 -1.5652313 -3.4960632 -3.4960632z"
       fill-rule="evenodd"
       id="path47"
       style="" />
    <path
       stroke="#000000"
       stroke-width="1.0"
       stroke-linejoin="round"
       stroke-linecap="butt"
       d="m211.0 175.29659l0 0c0 -1.9308167 1.5652466 -3.4960632 3.4960632 -3.4960632l0 0c0.9272156 0 1.816452 0.3683319 2.4720917 1.0239716c0.65563965 0.65563965 1.0239716 1.5448761 1.0239716 2.4720917l0 0c0 1.9308319 -1.5652466 3.4960632 -3.4960632 3.4960632l0 0c-1.9308167 0 -3.4960632 -1.5652313 -3.4960632 -3.4960632z"
       fill-rule="evenodd"
       id="path49"
       style="" />
    <path
       fill="#cfe2f3"
       d="m227.0 179.29659l0 0c0 -1.9308167 1.5652466 -3.4960632 3.4960632 -3.4960632l0 0c0.9272156 0 1.816452 0.3683319 2.4720917 1.0239716c0.65563965 0.65563965 1.0239716 1.5448761 1.0239716 2.4720917l0 0c0 1.9308319 -1.5652466 3.4960632 -3.4960632 3.4960632l0 0c-1.9308167 0 -3.4960632 -1.5652313 -3.4960632 -3.4960632z"
       fill-rule="evenodd"
       id="path51"
       style="" />
    <path
       stroke="#000000"
       stroke-width="1.0"
       stroke-linejoin="round"
       stroke-linecap="butt"
       d="m227.0 179.29659l0 0c0 -1.9308167 1.5652466 -3.4960632 3.4960632 -3.4960632l0 0c0.9272156 0 1.816452 0.3683319 2.4720917 1.0239716c0.65563965 0.65563965 1.0239716 1.5448761 1.0239716 2.4720917l0 0c0 1.9308319 -1.5652466 3.4960632 -3.4960632 3.4960632l0 0c-1.9308167 0 -3.4960632 -1.5652313 -3.4960632 -3.4960632z"
       fill-rule="evenodd"
       id="path53"
       style="" />
    <path
       fill="#cfe2f3"
       d="m243.0 179.29659l0 0c0 -1.9308167 1.5652466 -3.4960632 3.4960632 -3.4960632l0 0c0.9272156 0 1.816452 0.3683319 2.4720917 1.0239716c0.65563965 0.65563965 1.0239716 1.5448761 1.0239716 2.4720917l0 0c0 1.9308319 -1.5652466 3.4960632 -3.4960632 3.4960632l0 0c-1.9308167 0 -3.4960632 -1.5652313 -3.4960632 -3.4960632z"
       fill-rule="evenodd"
       id="path55"
       style="" />
    <path
       stroke="#000000"
       stroke-width="1.0"
       stroke-linejoin="round"
       stroke-linecap="butt"
       d="m243.0 179.29659l0 0c0 -1.9308167 1.5652466 -3.4960632 3.4960632 -3.4960632l0 0c0.9272156 0 1.816452 0.3683319 2.4720917 1.0239716c0.65563965 0.65563965 1.0239716 1.5448761 1.0239716 2.4720917l0 0c0 1.9308319 -1.5652466 3.4960632 -3.4960632 3.4960632l0 0c-1.9308167 0 -3.4960632 -1.5652313 -3.4960632 -3.4960632z"
       fill-rule="evenodd"
       id="path57"
       style="" />
    <path
       fill="#cfe2f3"
       d="m259.0 179.29659l0 0c0 -1.9308167 1.5652466 -3.4960632 3.4960632 -3.4960632l0 0c0.9272156 0 1.8164368 0.3683319 2.4720764 1.0239716c0.65563965 0.65563965 1.0239868 1.5448761 1.0239868 2.4720917l0 0c0 1.9308319 -1.5652466 3.4960632 -3.4960632 3.4960632l0 0c-1.9308167 0 -3.4960632 -1.5652313 -3.4960632 -3.4960632z"
       fill-rule="evenodd"
       id="path59"
       style="" />
    <path
       stroke="#000000"
       stroke-width="1.0"
       stroke-linejoin="round"
       stroke-linecap="butt"
       d="m259.0 179.29659l0 0c0 -1.9308167 1.5652466 -3.4960632 3.4960632 -3.4960632l0 0c0.9272156 0 1.8164368 0.3683319 2.4720764 1.0239716c0.65563965 0.65563965 1.0239868 1.5448761 1.0239868 2.4720917l0 0c0 1.9308319 -1.5652466 3.4960632 -3.4960632 3.4960632l0 0c-1.9308167 0 -3.4960632 -1.5652313 -3.4960632 -3.4960632z"
       fill-rule="evenodd"
       id="path61"
       style="" />
    <path
       fill="#cfe2f3"
       d="m275.0 176.29659l0 0c0 -1.9308167 1.5652466 -3.4960632 3.4960632 -3.4960632l0 0c0.9272156 0 1.8164368 0.3683319 2.4720764 1.0239716c0.65563965 0.65563965 1.0239868 1.5448761 1.0239868 2.4720917l0 0c0 1.9308319 -1.5652466 3.4960632 -3.4960632 3.4960632l0 0c-1.9308167 0 -3.4960632 -1.5652313 -3.4960632 -3.4960632z"
       fill-rule="evenodd"
       id="path63"
       style="" />
    <path
       stroke="#000000"
       stroke-width="1.0"
       stroke-linejoin="round"
       stroke-linecap="butt"
       d="m275.0 176.29659l0 0c0 -1.9308167 1.5652466 -3.4960632 3.4960632 -3.4960632l0 0c0.9272156 0 1.8164368 0.3683319 2.4720764 1.0239716c0.65563965 0.65563965 1.0239868 1.5448761 1.0239868 2.4720917l0 0c0 1.9308319 -1.5652466 3.4960632 -3.4960632 3.4960632l0 0c-1.9308167 0 -3.4960632 -1.5652313 -3.4960632 -3.4960632z"
       fill-rule="evenodd"
       id="path65"
       style="" />
    <path
       fill="#cfe2f3"
       d="m291.0 171.29659l0 0c0 -1.9308167 1.5652466 -3.4960632 3.4960632 -3.4960632l0 0c0.9272156 0 1.8164368 0.3683319 2.4720764 1.0239716c0.65563965 0.65563965 1.0239868 1.5448761 1.0239868 2.4720917l0 0c0 1.9308319 -1.5652466 3.4960632 -3.4960632 3.4960632l0 0c-1.9308167 0 -3.4960632 -1.5652313 -3.4960632 -3.4960632z"
       fill-rule="evenodd"
       id="path67"
       style="" />
    <path
       stroke="#000000"
       stroke-width="1.0"
       stroke-linejoin="round"
       stroke-linecap="butt"
       d="m291.0 171.29659l0 0c0 -1.9308167 1.5652466 -3.4960632 3.4960632 -3.4960632l0 0c0.9272156 0 1.8164368 0.3683319 2.4720764 1.0239716c0.65563965 0.65563965 1.0239868 1.5448761 1.0239868 2.4720917l0 0c0 1.9308319 -1.5652466 3.4960632 -3.4960632 3.4960632l0 0c-1.9308167 0 -3.4960632 -1.5652313 -3.4960632 -3.4960632z"
       fill-rule="evenodd"
       id="path69"
       style="" />
    <path
       fill="#cfe2f3"
       d="m307.0 166.29659l0 0c0 -1.9308167 1.5652466 -3.4960632 3.4960632 -3.4960632l0 0c0.9272156 0 1.8164368 0.3683319 2.4720764 1.0239716c0.65563965 0.65563965 1.0239868 1.5448761 1.0239868 2.4720917l0 0c0 1.9308319 -1.5652466 3.4960632 -3.4960632 3.4960632l0 0c-1.9308167 0 -3.4960632 -1.5652313 -3.4960632 -3.4960632z"
       fill-rule="evenodd"
       id="path71"
       style="" />
    <path
       stroke="#000000"
       stroke-width="1.0"
       stroke-linejoin="round"
       stroke-linecap="butt"
       d="m307.0 166.29659l0 0c0 -1.9308167 1.5652466 -3.4960632 3.4960632 -3.4960632l0 0c0.9272156 0 1.8164368 0.3683319 2.4720764 1.0239716c0.65563965 0.65563965 1.0239868 1.5448761 1.0239868 2.4720917l0 0c0 1.9308319 -1.5652466 3.4960632 -3.4960632 3.4960632l0 0c-1.9308167 0 -3.4960632 -1.5652313 -3.4960632 -3.4960632z"
       fill-rule="evenodd"
       id="path73"
       style="" />
    <path
       fill="#000000"
       fill-opacity="0.0"
       d="m70.01575 231.80052l270.99213 0l0 42.015762l-270.99213 0z"
       fill-rule="evenodd"
       id="path75"
       style="" />
    <path
       fill="#000000"
       fill-opacity="0.0"
       d="m6.0 95.80052l61.984253 0l0 42.015747l-61.984253 0z"
       fill-rule="evenodd"
       id="path79"
       style="" />
  </g>
  <text
     xml:space="preserve"
     style="font-style:normal;font-weight:normal;font-size:18.66533279px;line-height:1.25;font-family:sans-serif;letter-spacing:0px;word-spacing:0px;fill:#000000;fill-opacity:1;stroke:none"
     x="11.999998"
     y="108.15223"
     id="text95"><tspan
       sodipodi:role="line"
       id="tspan93"
       x="11.999998"
       y="108.15223"
       style="font-size:17.33333397px">loss</tspan></text>
  <text
     xml:space="preserve"
     style="font-style:normal;font-weight:normal;font-size:18.66533279px;line-height:1.25;font-family:sans-serif;letter-spacing:0px;word-spacing:0px;fill:#000000;fill-opacity:1;stroke:none"
     x="158"
     y="254.81888"
     id="text99"><tspan
       sodipodi:role="line"
       id="tspan97"
       x="158"
       y="254.81888"
       style="font-style:normal;font-variant:normal;font-weight:normal;font-stretch:normal;font-size:17.33333397px;font-family:sans-serif;-inkscape-font-specification:sans-serif">iterations</tspan></text>
</svg>
