<svg version="1.1" viewBox="0.0 0.0 536.5774278215223 203.11023622047244" fill="none" stroke="none" stroke-linecap="square" stroke-miterlimit="10" xmlns:xlink="http://www.w3.org/1999/xlink" xmlns="http://www.w3.org/2000/svg"><clipPath id="p.0"><path d="m0 0l536.57745 0l0 203.11023l-536.57745 0l0 -203.11023z" clip-rule="nonzero"/></clipPath><g clip-path="url(#p.0)"><path fill="#000000" fill-opacity="0.0" d="m0 0l536.57745 0l0 203.11023l-536.57745 0z" fill-rule="evenodd"/><path fill="#000000" fill-opacity="0.0" d="m32.015747 14.800525l0 160.0" fill-rule="evenodd"/><path stroke="#000000" stroke-width="1.0" stroke-linejoin="round" stroke-linecap="butt" d="m32.015747 14.800525l0 160.0" fill-rule="evenodd"/><path fill="#000000" fill-opacity="0.0" d="m31.0 175.80052l478.99213 0" fill-rule="evenodd"/><path stroke="#000000" stroke-width="1.0" stroke-linejoin="round" stroke-linecap="butt" d="m31.0 175.80052l478.99213 0" fill-rule="evenodd"/><path fill="#cfe2f3" d="m70.0 122.80052l0 0c0 -3.3137054 2.6862946 -6.0 6.0 -6.0l0 0c1.591301 0 3.117424 0.6321411 4.2426376 1.7573624c1.1252213 1.1252213 1.7573624 2.6513443 1.7573624 4.2426376l0 0c0 3.313713 -2.6862946 6.0 -6.0 6.0l0 0c-3.3137054 0 -6.0 -2.686287 -6.0 -6.0z" fill-rule="evenodd"/><path stroke="#000000" stroke-width="1.0" stroke-linejoin="round" stroke-linecap="butt" d="m70.0 122.80052l0 0c0 -3.3137054 2.6862946 -6.0 6.0 -6.0l0 0c1.591301 0 3.117424 0.6321411 4.2426376 1.7573624c1.1252213 1.1252213 1.7573624 2.6513443 1.7573624 4.2426376l0 0c0 3.313713 -2.6862946 6.0 -6.0 6.0l0 0c-3.3137054 0 -6.0 -2.686287 -6.0 -6.0z" fill-rule="evenodd"/><path fill="#cfe2f3" d="m86.0 106.80052l0 0c0 -3.3137054 2.6862946 -6.0 6.0 -6.0l0 0c1.591301 0 3.117424 0.6321411 4.2426376 1.7573624c1.1252213 1.1252213 1.7573624 2.6513443 1.7573624 4.2426376l0 0c0 3.313713 -2.6862946 6.0 -6.0 6.0l0 0c-3.3137054 0 -6.0 -2.686287 -6.0 -6.0z" fill-rule="evenodd"/><path stroke="#000000" stroke-width="1.0" stroke-linejoin="round" stroke-linecap="butt" d="m86.0 106.80052l0 0c0 -3.3137054 2.6862946 -6.0 6.0 -6.0l0 0c1.591301 0 3.117424 0.6321411 4.2426376 1.7573624c1.1252213 1.1252213 1.7573624 2.6513443 1.7573624 4.2426376l0 0c0 3.313713 -2.6862946 6.0 -6.0 6.0l0 0c-3.3137054 0 -6.0 -2.686287 -6.0 -6.0z" fill-rule="evenodd"/><path fill="#cfe2f3" d="m88.0 130.80052l0 0c0 -3.3137054 2.6862946 -6.0 6.0 -6.0l0 0c1.591301 0 3.117424 0.6321411 4.2426376 1.7573624c1.1252213 1.1252213 1.7573624 2.6513443 1.7573624 4.2426376l0 0c0 3.3137054 -2.6862946 6.0 -6.0 6.0l0 0c-3.3137054 0 -6.0 -2.6862946 -6.0 -6.0z" fill-rule="evenodd"/><path stroke="#000000" stroke-width="1.0" stroke-linejoin="round" stroke-linecap="butt" d="m88.0 130.80052l0 0c0 -3.3137054 2.6862946 -6.0 6.0 -6.0l0 0c1.591301 0 3.117424 0.6321411 4.2426376 1.7573624c1.1252213 1.1252213 1.7573624 2.6513443 1.7573624 4.2426376l0 0c0 3.3137054 -2.6862946 6.0 -6.0 6.0l0 0c-3.3137054 0 -6.0 -2.6862946 -6.0 -6.0z" fill-rule="evenodd"/><path fill="#cfe2f3" d="m78.0 90.80052l0 0c0 -3.3137054 2.6862946 -6.0 6.0 -6.0l0 0c1.591301 0 3.117424 0.6321411 4.2426376 1.7573624c1.1252213 1.1252213 1.7573624 2.6513443 1.7573624 4.2426376l0 0c0 3.313713 -2.6862946 6.0 -6.0 6.0l0 0c-3.3137054 0 -6.0 -2.686287 -6.0 -6.0z" fill-rule="evenodd"/><path stroke="#000000" stroke-width="1.0" stroke-linejoin="round" stroke-linecap="butt" d="m78.0 90.80052l0 0c0 -3.3137054 2.6862946 -6.0 6.0 -6.0l0 0c1.591301 0 3.117424 0.6321411 4.2426376 1.7573624c1.1252213 1.1252213 1.7573624 2.6513443 1.7573624 4.2426376l0 0c0 3.313713 -2.6862946 6.0 -6.0 6.0l0 0c-3.3137054 0 -6.0 -2.686287 -6.0 -6.0z" fill-rule="evenodd"/><path fill="#cfe2f3" d="m100.0 98.80052l0 0c0 -3.3137054 2.6862946 -6.0 6.0 -6.0l0 0c1.591301 0 3.117424 0.6321411 4.2426376 1.7573624c1.1252213 1.1252213 1.7573624 2.6513443 1.7573624 4.2426376l0 0c0 3.313713 -2.6862946 6.0 -6.0 6.0l0 0c-3.3137054 0 -6.0 -2.686287 -6.0 -6.0z" fill-rule="evenodd"/><path stroke="#000000" stroke-width="1.0" stroke-linejoin="round" stroke-linecap="butt" d="m100.0 98.80052l0 0c0 -3.3137054 2.6862946 -6.0 6.0 -6.0l0 0c1.591301 0 3.117424 0.6321411 4.2426376 1.7573624c1.1252213 1.1252213 1.7573624 2.6513443 1.7573624 4.2426376l0 0c0 3.313713 -2.6862946 6.0 -6.0 6.0l0 0c-3.3137054 0 -6.0 -2.686287 -6.0 -6.0z" fill-rule="evenodd"/><path fill="#cfe2f3" d="m126.0 122.80052l0 0c0 -3.3137054 2.6862946 -6.0 6.0 -6.0l0 0c1.5912933 0 3.1174164 0.6321411 4.2426453 1.7573624c1.1252136 1.1252213 1.7573547 2.6513443 1.7573547 4.2426376l0 0c0 3.313713 -2.6862946 6.0 -6.0 6.0l0 0c-3.3137054 0 -6.0 -2.686287 -6.0 -6.0z" fill-rule="evenodd"/><path stroke="#000000" stroke-width="1.0" stroke-linejoin="round" stroke-linecap="butt" d="m126.0 122.80052l0 0c0 -3.3137054 2.6862946 -6.0 6.0 -6.0l0 0c1.5912933 0 3.1174164 0.6321411 4.2426453 1.7573624c1.1252136 1.1252213 1.7573547 2.6513443 1.7573547 4.2426376l0 0c0 3.313713 -2.6862946 6.0 -6.0 6.0l0 0c-3.3137054 0 -6.0 -2.686287 -6.0 -6.0z" fill-rule="evenodd"/><path fill="#cfe2f3" d="m139.0 98.80052l0 0c0 -3.3137054 2.6862946 -6.0 6.0 -6.0l0 0c1.5912933 0 3.1174164 0.6321411 4.2426453 1.7573624c1.1252136 1.1252213 1.7573547 2.6513443 1.7573547 4.2426376l0 0c0 3.313713 -2.6862946 6.0 -6.0 6.0l0 0c-3.3137054 0 -6.0 -2.686287 -6.0 -6.0z" fill-rule="evenodd"/><path stroke="#000000" stroke-width="1.0" stroke-linejoin="round" stroke-linecap="butt" d="m139.0 98.80052l0 0c0 -3.3137054 2.6862946 -6.0 6.0 -6.0l0 0c1.5912933 0 3.1174164 0.6321411 4.2426453 1.7573624c1.1252136 1.1252213 1.7573547 2.6513443 1.7573547 4.2426376l0 0c0 3.313713 -2.6862946 6.0 -6.0 6.0l0 0c-3.3137054 0 -6.0 -2.686287 -6.0 -6.0z" fill-rule="evenodd"/><path fill="#cfe2f3" d="m155.0 138.80052l0 0c0 -3.3137054 2.6862946 -6.0 6.0 -6.0l0 0c1.5912933 0 3.1174164 0.6321411 4.2426453 1.75737c1.1252136 1.1252136 1.7573547 2.6513367 1.7573547 4.24263l0 0c0 3.3137054 -2.6862946 6.0 -6.0 6.0l0 0c-3.3137054 0 -6.0 -2.6862946 -6.0 -6.0z" fill-rule="evenodd"/><path stroke="#000000" stroke-width="1.0" stroke-linejoin="round" stroke-linecap="butt" d="m155.0 138.80052l0 0c0 -3.3137054 2.6862946 -6.0 6.0 -6.0l0 0c1.5912933 0 3.1174164 0.6321411 4.2426453 1.75737c1.1252136 1.1252136 1.7573547 2.6513367 1.7573547 4.24263l0 0c0 3.3137054 -2.6862946 6.0 -6.0 6.0l0 0c-3.3137054 0 -6.0 -2.6862946 -6.0 -6.0z" fill-rule="evenodd"/><path fill="#cfe2f3" d="m166.0 106.80052l0 0c0 -3.3137054 2.6862946 -6.0 6.0 -6.0l0 0c1.5912933 0 3.1174164 0.6321411 4.2426453 1.7573624c1.1252136 1.1252213 1.7573547 2.6513443 1.7573547 4.2426376l0 0c0 3.313713 -2.6862946 6.0 -6.0 6.0l0 0c-3.3137054 0 -6.0 -2.686287 -6.0 -6.0z" fill-rule="evenodd"/><path stroke="#000000" stroke-width="1.0" stroke-linejoin="round" stroke-linecap="butt" d="m166.0 106.80052l0 0c0 -3.3137054 2.6862946 -6.0 6.0 -6.0l0 0c1.5912933 0 3.1174164 0.6321411 4.2426453 1.7573624c1.1252136 1.1252213 1.7573547 2.6513443 1.7573547 4.2426376l0 0c0 3.313713 -2.6862946 6.0 -6.0 6.0l0 0c-3.3137054 0 -6.0 -2.686287 -6.0 -6.0z" fill-rule="evenodd"/><path fill="#cfe2f3" d="m150.0 82.80052l0 0c0 -3.3137054 2.6862946 -6.0 6.0 -6.0l0 0c1.5912933 0 3.1174164 0.6321411 4.2426453 1.7573624c1.1252136 1.1252213 1.7573547 2.6513443 1.7573547 4.2426376l0 0c0 3.313713 -2.6862946 6.0 -6.0 6.0l0 0c-3.3137054 0 -6.0 -2.686287 -6.0 -6.0z" fill-rule="evenodd"/><path stroke="#000000" stroke-width="1.0" stroke-linejoin="round" stroke-linecap="butt" d="m150.0 82.80052l0 0c0 -3.3137054 2.6862946 -6.0 6.0 -6.0l0 0c1.5912933 0 3.1174164 0.6321411 4.2426453 1.7573624c1.1252136 1.1252213 1.7573547 2.6513443 1.7573547 4.2426376l0 0c0 3.313713 -2.6862946 6.0 -6.0 6.0l0 0c-3.3137054 0 -6.0 -2.686287 -6.0 -6.0z" fill-rule="evenodd"/><path fill="#cfe2f3" d="m190.0 98.80052l0 0c0 -3.3137054 2.6862946 -6.0 6.0 -6.0l0 0c1.5912933 0 3.1174164 0.6321411 4.2426453 1.7573624c1.1252136 1.1252213 1.7573547 2.6513443 1.7573547 4.2426376l0 0c0 3.313713 -2.6862946 6.0 -6.0 6.0l0 0c-3.3137054 0 -6.0 -2.686287 -6.0 -6.0z" fill-rule="evenodd"/><path stroke="#000000" stroke-width="1.0" stroke-linejoin="round" stroke-linecap="butt" d="m190.0 98.80052l0 0c0 -3.3137054 2.6862946 -6.0 6.0 -6.0l0 0c1.5912933 0 3.1174164 0.6321411 4.2426453 1.7573624c1.1252136 1.1252213 1.7573547 2.6513443 1.7573547 4.2426376l0 0c0 3.313713 -2.6862946 6.0 -6.0 6.0l0 0c-3.3137054 0 -6.0 -2.686287 -6.0 -6.0z" fill-rule="evenodd"/><path fill="#cfe2f3" d="m206.0 122.80052l0 0c0 -3.3137054 2.6862946 -6.0 6.0 -6.0l0 0c1.5912933 0 3.1174164 0.6321411 4.2426453 1.7573624c1.1252136 1.1252213 1.7573547 2.6513443 1.7573547 4.2426376l0 0c0 3.313713 -2.6862946 6.0 -6.0 6.0l0 0c-3.3137054 0 -6.0 -2.686287 -6.0 -6.0z" fill-rule="evenodd"/><path stroke="#000000" stroke-width="1.0" stroke-linejoin="round" stroke-linecap="butt" d="m206.0 122.80052l0 0c0 -3.3137054 2.6862946 -6.0 6.0 -6.0l0 0c1.5912933 0 3.1174164 0.6321411 4.2426453 1.7573624c1.1252136 1.1252213 1.7573547 2.6513443 1.7573547 4.2426376l0 0c0 3.313713 -2.6862946 6.0 -6.0 6.0l0 0c-3.3137054 0 -6.0 -2.686287 -6.0 -6.0z" fill-rule="evenodd"/><path fill="#cfe2f3" d="m222.0 82.80052l0 0c0 -3.3137054 2.6862946 -6.0 6.0 -6.0l0 0c1.5912933 0 3.1174164 0.6321411 4.2426453 1.7573624c1.1252136 1.1252213 1.7573547 2.6513443 1.7573547 4.2426376l0 0c0 3.313713 -2.6862946 6.0 -6.0 6.0l0 0c-3.3137054 0 -6.0 -2.686287 -6.0 -6.0z" fill-rule="evenodd"/><path stroke="#000000" stroke-width="1.0" stroke-linejoin="round" stroke-linecap="butt" d="m222.0 82.80052l0 0c0 -3.3137054 2.6862946 -6.0 6.0 -6.0l0 0c1.5912933 0 3.1174164 0.6321411 4.2426453 1.7573624c1.1252136 1.1252213 1.7573547 2.6513443 1.7573547 4.2426376l0 0c0 3.313713 -2.6862946 6.0 -6.0 6.0l0 0c-3.3137054 0 -6.0 -2.686287 -6.0 -6.0z" fill-rule="evenodd"/><path fill="#cfe2f3" d="m206.0 98.80052l0 0c0 -3.3137054 2.6862946 -6.0 6.0 -6.0l0 0c1.5912933 0 3.1174164 0.6321411 4.2426453 1.7573624c1.1252136 1.1252213 1.7573547 2.6513443 1.7573547 4.2426376l0 0c0 3.313713 -2.6862946 6.0 -6.0 6.0l0 0c-3.3137054 0 -6.0 -2.686287 -6.0 -6.0z" fill-rule="evenodd"/><path stroke="#000000" stroke-width="1.0" stroke-linejoin="round" stroke-linecap="butt" d="m206.0 98.80052l0 0c0 -3.3137054 2.6862946 -6.0 6.0 -6.0l0 0c1.5912933 0 3.1174164 0.6321411 4.2426453 1.7573624c1.1252136 1.1252213 1.7573547 2.6513443 1.7573547 4.2426376l0 0c0 3.313713 -2.6862946 6.0 -6.0 6.0l0 0c-3.3137054 0 -6.0 -2.686287 -6.0 -6.0z" fill-rule="evenodd"/><path fill="#cfe2f3" d="m246.0 130.80052l0 0c0 -3.3137054 2.6862946 -6.0 6.0 -6.0l0 0c1.5912933 0 3.1174164 0.6321411 4.2426453 1.7573624c1.1252136 1.1252213 1.7573547 2.6513443 1.7573547 4.2426376l0 0c0 3.3137054 -2.6862946 6.0 -6.0 6.0l0 0c-3.3137054 0 -6.0 -2.6862946 -6.0 -6.0z" fill-rule="evenodd"/><path stroke="#000000" stroke-width="1.0" stroke-linejoin="round" stroke-linecap="butt" d="m246.0 130.80052l0 0c0 -3.3137054 2.6862946 -6.0 6.0 -6.0l0 0c1.5912933 0 3.1174164 0.6321411 4.2426453 1.7573624c1.1252136 1.1252213 1.7573547 2.6513443 1.7573547 4.2426376l0 0c0 3.3137054 -2.6862946 6.0 -6.0 6.0l0 0c-3.3137054 0 -6.0 -2.6862946 -6.0 -6.0z" fill-rule="evenodd"/><path fill="#cfe2f3" d="m270.0 114.80052l0 0c0 -3.3137054 2.6862793 -6.0 6.0 -6.0l0 0c1.5913086 0 3.1174316 0.6321411 4.2426453 1.7573624c1.1252136 1.1252213 1.7573547 2.6513443 1.7573547 4.2426376l0 0c0 3.313713 -2.6862793 6.0 -6.0 6.0l0 0c-3.3137207 0 -6.0 -2.686287 -6.0 -6.0z" fill-rule="evenodd"/><path stroke="#000000" stroke-width="1.0" stroke-linejoin="round" stroke-linecap="butt" d="m270.0 114.80052l0 0c0 -3.3137054 2.6862793 -6.0 6.0 -6.0l0 0c1.5913086 0 3.1174316 0.6321411 4.2426453 1.7573624c1.1252136 1.1252213 1.7573547 2.6513443 1.7573547 4.2426376l0 0c0 3.313713 -2.6862793 6.0 -6.0 6.0l0 0c-3.3137207 0 -6.0 -2.686287 -6.0 -6.0z" fill-rule="evenodd"/><path fill="#cfe2f3" d="m294.0 146.80052l0 0c0 -3.3137054 2.6862793 -6.0 6.0 -6.0l0 0c1.5913086 0 3.1174316 0.6321411 4.2426453 1.75737c1.1252136 1.1252136 1.7573547 2.6513367 1.7573547 4.24263l0 0c0 3.3137054 -2.6862793 6.0 -6.0 6.0l0 0c-3.3137207 0 -6.0 -2.6862946 -6.0 -6.0z" fill-rule="evenodd"/><path stroke="#000000" stroke-width="1.0" stroke-linejoin="round" stroke-linecap="butt" d="m294.0 146.80052l0 0c0 -3.3137054 2.6862793 -6.0 6.0 -6.0l0 0c1.5913086 0 3.1174316 0.6321411 4.2426453 1.75737c1.1252136 1.1252136 1.7573547 2.6513367 1.7573547 4.24263l0 0c0 3.3137054 -2.6862793 6.0 -6.0 6.0l0 0c-3.3137207 0 -6.0 -2.6862946 -6.0 -6.0z" fill-rule="evenodd"/><path fill="#cfe2f3" d="m238.0 74.80052l0 0c0 -3.3137054 2.6862946 -6.0 6.0 -6.0l0 0c1.5912933 0 3.1174164 0.6321411 4.2426453 1.7573624c1.1252136 1.1252213 1.7573547 2.6513443 1.7573547 4.2426376l0 0c0 3.313713 -2.6862946 6.0 -6.0 6.0l0 0c-3.3137054 0 -6.0 -2.686287 -6.0 -6.0z" fill-rule="evenodd"/><path stroke="#000000" stroke-width="1.0" stroke-linejoin="round" stroke-linecap="butt" d="m238.0 74.80052l0 0c0 -3.3137054 2.6862946 -6.0 6.0 -6.0l0 0c1.5912933 0 3.1174164 0.6321411 4.2426453 1.7573624c1.1252136 1.1252213 1.7573547 2.6513443 1.7573547 4.2426376l0 0c0 3.313713 -2.6862946 6.0 -6.0 6.0l0 0c-3.3137054 0 -6.0 -2.686287 -6.0 -6.0z" fill-rule="evenodd"/><path fill="#cfe2f3" d="m198.0 82.80052l0 0c0 -3.3137054 2.6862946 -6.0 6.0 -6.0l0 0c1.5912933 0 3.1174164 0.6321411 4.2426453 1.7573624c1.1252136 1.1252213 1.7573547 2.6513443 1.7573547 4.2426376l0 0c0 3.313713 -2.6862946 6.0 -6.0 6.0l0 0c-3.3137054 0 -6.0 -2.686287 -6.0 -6.0z" fill-rule="evenodd"/><path stroke="#000000" stroke-width="1.0" stroke-linejoin="round" stroke-linecap="butt" d="m198.0 82.80052l0 0c0 -3.3137054 2.6862946 -6.0 6.0 -6.0l0 0c1.5912933 0 3.1174164 0.6321411 4.2426453 1.7573624c1.1252136 1.1252213 1.7573547 2.6513443 1.7573547 4.2426376l0 0c0 3.313713 -2.6862946 6.0 -6.0 6.0l0 0c-3.3137054 0 -6.0 -2.686287 -6.0 -6.0z" fill-rule="evenodd"/><path fill="#cfe2f3" d="m421.0 93.80052l0 0c0 -3.3137054 2.6862793 -6.0 6.0 -6.0l0 0c1.5913086 0 3.1174316 0.6321411 4.2426453 1.7573624c1.1252136 1.1252213 1.7573547 2.6513443 1.7573547 4.2426376l0 0c0 3.313713 -2.6862793 6.0 -6.0 6.0l0 0c-3.3137207 0 -6.0 -2.686287 -6.0 -6.0z" fill-rule="evenodd"/><path stroke="#000000" stroke-width="1.0" stroke-linejoin="round" stroke-linecap="butt" d="m421.0 93.80052l0 0c0 -3.3137054 2.6862793 -6.0 6.0 -6.0l0 0c1.5913086 0 3.1174316 0.6321411 4.2426453 1.7573624c1.1252136 1.1252213 1.7573547 2.6513443 1.7573547 4.2426376l0 0c0 3.313713 -2.6862793 6.0 -6.0 6.0l0 0c-3.3137207 0 -6.0 -2.686287 -6.0 -6.0z" fill-rule="evenodd"/><path fill="#cfe2f3" d="m334.0 122.80052l0 0c0 -3.3137054 2.6862793 -6.0 6.0 -6.0l0 0c1.5913086 0 3.1174316 0.6321411 4.2426453 1.7573624c1.1252136 1.1252213 1.7573547 2.6513443 1.7573547 4.2426376l0 0c0 3.313713 -2.6862793 6.0 -6.0 6.0l0 0c-3.3137207 0 -6.0 -2.686287 -6.0 -6.0z" fill-rule="evenodd"/><path stroke="#000000" stroke-width="1.0" stroke-linejoin="round" stroke-linecap="butt" d="m334.0 122.80052l0 0c0 -3.3137054 2.6862793 -6.0 6.0 -6.0l0 0c1.5913086 0 3.1174316 0.6321411 4.2426453 1.7573624c1.1252136 1.1252213 1.7573547 2.6513443 1.7573547 4.2426376l0 0c0 3.313713 -2.6862793 6.0 -6.0 6.0l0 0c-3.3137207 0 -6.0 -2.686287 -6.0 -6.0z" fill-rule="evenodd"/><path fill="#cfe2f3" d="m494.0 146.80052l0 0c0 -3.3137054 2.6862793 -6.0 6.0 -6.0l0 0c1.5913086 0 3.1174316 0.6321411 4.2426453 1.75737c1.1252136 1.1252136 1.7573547 2.6513367 1.7573547 4.24263l0 0c0 3.3137054 -2.6862793 6.0 -6.0 6.0l0 0c-3.3137207 0 -6.0 -2.6862946 -6.0 -6.0z" fill-rule="evenodd"/><path stroke="#000000" stroke-width="1.0" stroke-linejoin="round" stroke-linecap="butt" d="m494.0 146.80052l0 0c0 -3.3137054 2.6862793 -6.0 6.0 -6.0l0 0c1.5913086 0 3.1174316 0.6321411 4.2426453 1.75737c1.1252136 1.1252136 1.7573547 2.6513367 1.7573547 4.24263l0 0c0 3.3137054 -2.6862793 6.0 -6.0 6.0l0 0c-3.3137207 0 -6.0 -2.6862946 -6.0 -6.0z" fill-rule="evenodd"/><path fill="#cfe2f3" d="m390.0 122.80052l0 0c0 -3.3137054 2.6862793 -6.0 6.0 -6.0l0 0c1.5913086 0 3.1174316 0.6321411 4.2426453 1.7573624c1.1252136 1.1252213 1.7573547 2.6513443 1.7573547 4.2426376l0 0c0 3.313713 -2.6862793 6.0 -6.0 6.0l0 0c-3.3137207 0 -6.0 -2.686287 -6.0 -6.0z" fill-rule="evenodd"/><path stroke="#000000" stroke-width="1.0" stroke-linejoin="round" stroke-linecap="butt" d="m390.0 122.80052l0 0c0 -3.3137054 2.6862793 -6.0 6.0 -6.0l0 0c1.5913086 0 3.1174316 0.6321411 4.2426453 1.7573624c1.1252136 1.1252213 1.7573547 2.6513443 1.7573547 4.2426376l0 0c0 3.313713 -2.6862793 6.0 -6.0 6.0l0 0c-3.3137207 0 -6.0 -2.686287 -6.0 -6.0z" fill-rule="evenodd"/><path fill="#000000" fill-opacity="0.0" d="m6.0 73.80052l25.984251 0l0 35.02363l-25.984251 0z" fill-rule="evenodd"/><path fill="#000000" d="m15.90625 99.8024l-0.140625 -1.203125q0.421875 0.109375 0.734375 0.109375q0.4375 0 0.6875 -0.140625q0.265625 -0.140625 0.421875 -0.40625q0.125 -0.1875 0.390625 -0.953125q0.046875 -0.109375 0.125 -0.3125l-2.890625 -7.609375l1.390625 0l1.578125 4.390625q0.3125 0.84375 0.546875 1.765625q0.234375 -0.890625 0.53125 -1.734375l1.625 -4.421875l1.296875 0l-2.890625 7.71875q-0.46875 1.25 -0.734375 1.734375q-0.34375 0.625 -0.78125 0.921875q-0.4375 0.296875 -1.0625 0.296875q-0.375 0 -0.828125 -0.15625z" fill-rule="nonzero"/><path fill="#000000" fill-opacity="0.0" d="m238.0 174.80052l25.984253 0l0 29.196854l-25.984253 0z" fill-rule="evenodd"/><path fill="#000000" d="m247.10938 197.88052l2.78125 -3.953125l-2.578125 -3.640625l1.609375 0l1.171875 1.78125q0.328125 0.5 0.53125 0.84375q0.3125 -0.46875 0.578125 -0.828125l1.28125 -1.796875l1.53125 0l-2.625 3.578125l2.828125 4.015625l-1.578125 0l-1.5625 -2.359375l-0.40625 -0.640625l-2.0 3.0l-1.5625 0z" fill-rule="nonzero"/><path fill="#cfe2f3" d="m302.0 106.80052l0 0c0 -3.3137054 2.6862793 -6.0 6.0 -6.0l0 0c1.5913086 0 3.1174316 0.6321411 4.2426453 1.7573624c1.1252136 1.1252213 1.7573547 2.6513443 1.7573547 4.2426376l0 0c0 3.313713 -2.6862793 6.0 -6.0 6.0l0 0c-3.3137207 0 -6.0 -2.686287 -6.0 -6.0z" fill-rule="evenodd"/><path stroke="#000000" stroke-width="1.0" stroke-linejoin="round" stroke-linecap="butt" d="m302.0 106.80052l0 0c0 -3.3137054 2.6862793 -6.0 6.0 -6.0l0 0c1.5913086 0 3.1174316 0.6321411 4.2426453 1.7573624c1.1252136 1.1252213 1.7573547 2.6513443 1.7573547 4.2426376l0 0c0 3.313713 -2.6862793 6.0 -6.0 6.0l0 0c-3.3137207 0 -6.0 -2.686287 -6.0 -6.0z" fill-rule="evenodd"/><path fill="#cfe2f3" d="m286.0 85.80052l0 0c0 -3.3137054 2.6862793 -6.0 6.0 -6.0l0 0c1.5913086 0 3.1174316 0.6321411 4.2426453 1.7573624c1.1252136 1.1252213 1.7573547 2.6513443 1.7573547 4.2426376l0 0c0 3.313713 -2.6862793 6.0 -6.0 6.0l0 0c-3.3137207 0 -6.0 -2.686287 -6.0 -6.0z" fill-rule="evenodd"/><path stroke="#000000" stroke-width="1.0" stroke-linejoin="round" stroke-linecap="butt" d="m286.0 85.80052l0 0c0 -3.3137054 2.6862793 -6.0 6.0 -6.0l0 0c1.5913086 0 3.1174316 0.6321411 4.2426453 1.7573624c1.1252136 1.1252213 1.7573547 2.6513443 1.7573547 4.2426376l0 0c0 3.313713 -2.6862793 6.0 -6.0 6.0l0 0c-3.3137207 0 -6.0 -2.686287 -6.0 -6.0z" fill-rule="evenodd"/><path fill="#cfe2f3" d="m326.0 63.800526l0 0c0 -3.3137093 2.6862793 -6.0 6.0 -6.0l0 0c1.5913086 0 3.1174316 0.6321411 4.2426453 1.7573586c1.1252136 1.1252174 1.7573547 2.6513405 1.7573547 4.2426414l0 0c0 3.3137093 -2.6862793 5.999996 -6.0 5.999996l0 0c-3.3137207 0 -6.0 -2.686287 -6.0 -5.999996z" fill-rule="evenodd"/><path stroke="#000000" stroke-width="1.0" stroke-linejoin="round" stroke-linecap="butt" d="m326.0 63.800526l0 0c0 -3.3137093 2.6862793 -6.0 6.0 -6.0l0 0c1.5913086 0 3.1174316 0.6321411 4.2426453 1.7573586c1.1252136 1.1252174 1.7573547 2.6513405 1.7573547 4.2426414l0 0c0 3.3137093 -2.6862793 5.999996 -6.0 5.999996l0 0c-3.3137207 0 -6.0 -2.686287 -6.0 -5.999996z" fill-rule="evenodd"/><path fill="#cfe2f3" d="m361.0 114.80052l0 0c0 -3.3137054 2.6862793 -6.0 6.0 -6.0l0 0c1.5913086 0 3.1174316 0.6321411 4.2426453 1.7573624c1.1252136 1.1252213 1.7573547 2.6513443 1.7573547 4.2426376l0 0c0 3.313713 -2.6862793 6.0 -6.0 6.0l0 0c-3.3137207 0 -6.0 -2.686287 -6.0 -6.0z" fill-rule="evenodd"/><path stroke="#000000" stroke-width="1.0" stroke-linejoin="round" stroke-linecap="butt" d="m361.0 114.80052l0 0c0 -3.3137054 2.6862793 -6.0 6.0 -6.0l0 0c1.5913086 0 3.1174316 0.6321411 4.2426453 1.7573624c1.1252136 1.1252213 1.7573547 2.6513443 1.7573547 4.2426376l0 0c0 3.313713 -2.6862793 6.0 -6.0 6.0l0 0c-3.3137207 0 -6.0 -2.686287 -6.0 -6.0z" fill-rule="evenodd"/><path fill="#cfe2f3" d="m358.0 132.80052l0 0c0 -3.3137054 2.6862793 -6.0 6.0 -6.0l0 0c1.5913086 0 3.1174316 0.6321411 4.2426453 1.75737c1.1252136 1.1252136 1.7573547 2.6513367 1.7573547 4.24263l0 0c0 3.3137054 -2.6862793 6.0 -6.0 6.0l0 0c-3.3137207 0 -6.0 -2.6862946 -6.0 -6.0z" fill-rule="evenodd"/><path stroke="#000000" stroke-width="1.0" stroke-linejoin="round" stroke-linecap="butt" d="m358.0 132.80052l0 0c0 -3.3137054 2.6862793 -6.0 6.0 -6.0l0 0c1.5913086 0 3.1174316 0.6321411 4.2426453 1.75737c1.1252136 1.1252136 1.7573547 2.6513367 1.7573547 4.24263l0 0c0 3.3137054 -2.6862793 6.0 -6.0 6.0l0 0c-3.3137207 0 -6.0 -2.6862946 -6.0 -6.0z" fill-rule="evenodd"/><path fill="#cfe2f3" d="m46.0 106.80052l0 0c0 -3.3137054 2.6862907 -6.0 6.0 -6.0l0 0c1.5912971 0 3.117424 0.6321411 4.2426414 1.7573624c1.1252174 1.1252213 1.7573586 2.6513443 1.7573586 4.2426376l0 0c0 3.313713 -2.6862907 6.0 -6.0 6.0l0 0c-3.3137093 0 -6.0 -2.686287 -6.0 -6.0z" fill-rule="evenodd"/><path stroke="#000000" stroke-width="1.0" stroke-linejoin="round" stroke-linecap="butt" d="m46.0 106.80052l0 0c0 -3.3137054 2.6862907 -6.0 6.0 -6.0l0 0c1.5912971 0 3.117424 0.6321411 4.2426414 1.7573624c1.1252174 1.1252213 1.7573586 2.6513443 1.7573586 4.2426376l0 0c0 3.313713 -2.6862907 6.0 -6.0 6.0l0 0c-3.3137093 0 -6.0 -2.686287 -6.0 -6.0z" fill-rule="evenodd"/><path fill="#cfe2f3" d="m58.0 82.80052l0 0c0 -3.3137054 2.6862907 -6.0 6.0 -6.0l0 0c1.591301 0 3.117424 0.6321411 4.2426376 1.7573624c1.1252213 1.1252213 1.7573624 2.6513443 1.7573624 4.2426376l0 0c0 3.313713 -2.6862946 6.0 -6.0 6.0l0 0c-3.3137093 0 -6.0 -2.686287 -6.0 -6.0z" fill-rule="evenodd"/><path stroke="#000000" stroke-width="1.0" stroke-linejoin="round" stroke-linecap="butt" d="m58.0 82.80052l0 0c0 -3.3137054 2.6862907 -6.0 6.0 -6.0l0 0c1.591301 0 3.117424 0.6321411 4.2426376 1.7573624c1.1252213 1.1252213 1.7573624 2.6513443 1.7573624 4.2426376l0 0c0 3.313713 -2.6862946 6.0 -6.0 6.0l0 0c-3.3137093 0 -6.0 -2.686287 -6.0 -6.0z" fill-rule="evenodd"/><path fill="#cfe2f3" d="m118.0 66.80052l0 0c0 -3.3137054 2.6862946 -5.999996 6.0 -5.999996l0 0c1.591301 0 3.117424 0.6321411 4.2426453 1.7573586c1.1252136 1.1252174 1.7573547 2.6513443 1.7573547 4.2426376l0 0c0 3.313713 -2.6862946 6.0 -6.0 6.0l0 0c-3.3137054 0 -6.0 -2.686287 -6.0 -6.0z" fill-rule="evenodd"/><path stroke="#000000" stroke-width="1.0" stroke-linejoin="round" stroke-linecap="butt" d="m118.0 66.80052l0 0c0 -3.3137054 2.6862946 -5.999996 6.0 -5.999996l0 0c1.591301 0 3.117424 0.6321411 4.2426453 1.7573586c1.1252136 1.1252174 1.7573547 2.6513443 1.7573547 4.2426376l0 0c0 3.313713 -2.6862946 6.0 -6.0 6.0l0 0c-3.3137054 0 -6.0 -2.686287 -6.0 -6.0z" fill-rule="evenodd"/><path fill="#cfe2f3" d="m146.0 114.80052l0 0c0 -3.3137054 2.6862946 -6.0 6.0 -6.0l0 0c1.5912933 0 3.1174164 0.6321411 4.2426453 1.7573624c1.1252136 1.1252213 1.7573547 2.6513443 1.7573547 4.2426376l0 0c0 3.313713 -2.6862946 6.0 -6.0 6.0l0 0c-3.3137054 0 -6.0 -2.686287 -6.0 -6.0z" fill-rule="evenodd"/><path stroke="#000000" stroke-width="1.0" stroke-linejoin="round" stroke-linecap="butt" d="m146.0 114.80052l0 0c0 -3.3137054 2.6862946 -6.0 6.0 -6.0l0 0c1.5912933 0 3.1174164 0.6321411 4.2426453 1.7573624c1.1252136 1.1252213 1.7573547 2.6513443 1.7573547 4.2426376l0 0c0 3.313713 -2.6862946 6.0 -6.0 6.0l0 0c-3.3137054 0 -6.0 -2.686287 -6.0 -6.0z" fill-rule="evenodd"/><path fill="#cfe2f3" d="m62.0 58.800526l0 0c0 -3.3137093 2.6862946 -6.0 6.0 -6.0l0 0c1.591301 0 3.117424 0.6321411 4.2426376 1.7573586c1.1252213 1.1252174 1.7573624 2.6513405 1.7573624 4.2426414l0 0c0 3.3137093 -2.6862946 5.999996 -6.0 5.999996l0 0c-3.3137054 0 -6.0 -2.686287 -6.0 -5.999996z" fill-rule="evenodd"/><path stroke="#000000" stroke-width="1.0" stroke-linejoin="round" stroke-linecap="butt" d="m62.0 58.800526l0 0c0 -3.3137093 2.6862946 -6.0 6.0 -6.0l0 0c1.591301 0 3.117424 0.6321411 4.2426376 1.7573586c1.1252213 1.1252174 1.7573624 2.6513405 1.7573624 4.2426414l0 0c0 3.3137093 -2.6862946 5.999996 -6.0 5.999996l0 0c-3.3137054 0 -6.0 -2.686287 -6.0 -5.999996z" fill-rule="evenodd"/><path fill="#cfe2f3" d="m78.0 42.800526l0 0c0 -3.3137093 2.6862946 -6.0 6.0 -6.0l0 0c1.591301 0 3.117424 0.6321411 4.2426376 1.7573586c1.1252213 1.1252174 1.7573624 2.6513405 1.7573624 4.2426414l0 0c0 3.3137093 -2.6862946 6.0 -6.0 6.0l0 0c-3.3137054 0 -6.0 -2.6862907 -6.0 -6.0z" fill-rule="evenodd"/><path stroke="#000000" stroke-width="1.0" stroke-linejoin="round" stroke-linecap="butt" d="m78.0 42.800526l0 0c0 -3.3137093 2.6862946 -6.0 6.0 -6.0l0 0c1.591301 0 3.117424 0.6321411 4.2426376 1.7573586c1.1252213 1.1252174 1.7573624 2.6513405 1.7573624 4.2426414l0 0c0 3.3137093 -2.6862946 6.0 -6.0 6.0l0 0c-3.3137054 0 -6.0 -2.6862907 -6.0 -6.0z" fill-rule="evenodd"/><path fill="#cfe2f3" d="m80.0 66.80052l0 0c0 -3.3137054 2.6862946 -5.999996 6.0 -5.999996l0 0c1.591301 0 3.117424 0.6321411 4.2426376 1.7573586c1.1252213 1.1252174 1.7573624 2.6513443 1.7573624 4.2426376l0 0c0 3.313713 -2.6862946 6.0 -6.0 6.0l0 0c-3.3137054 0 -6.0 -2.686287 -6.0 -6.0z" fill-rule="evenodd"/><path stroke="#000000" stroke-width="1.0" stroke-linejoin="round" stroke-linecap="butt" d="m80.0 66.80052l0 0c0 -3.3137054 2.6862946 -5.999996 6.0 -5.999996l0 0c1.591301 0 3.117424 0.6321411 4.2426376 1.7573586c1.1252213 1.1252174 1.7573624 2.6513443 1.7573624 4.2426376l0 0c0 3.313713 -2.6862946 6.0 -6.0 6.0l0 0c-3.3137054 0 -6.0 -2.686287 -6.0 -6.0z" fill-rule="evenodd"/><path fill="#cfe2f3" d="m198.0 50.800526l0 0c0 -3.3137093 2.6862946 -6.0 6.0 -6.0l0 0c1.5912933 0 3.1174164 0.6321411 4.2426453 1.7573586c1.1252136 1.1252174 1.7573547 2.6513405 1.7573547 4.2426414l0 0c0 3.3137093 -2.6862946 6.0 -6.0 6.0l0 0c-3.3137054 0 -6.0 -2.6862907 -6.0 -6.0z" fill-rule="evenodd"/><path stroke="#000000" stroke-width="1.0" stroke-linejoin="round" stroke-linecap="butt" d="m198.0 50.800526l0 0c0 -3.3137093 2.6862946 -6.0 6.0 -6.0l0 0c1.5912933 0 3.1174164 0.6321411 4.2426453 1.7573586c1.1252136 1.1252174 1.7573547 2.6513405 1.7573547 4.2426414l0 0c0 3.3137093 -2.6862946 6.0 -6.0 6.0l0 0c-3.3137054 0 -6.0 -2.6862907 -6.0 -6.0z" fill-rule="evenodd"/><path fill="#cfe2f3" d="m100.0 34.800526l0 0c0 -3.3137093 2.6862946 -6.0 6.0 -6.0l0 0c1.591301 0 3.117424 0.6321411 4.2426376 1.7573586c1.1252213 1.1252174 1.7573624 2.6513405 1.7573624 4.2426414l0 0c0 3.3137093 -2.6862946 6.0 -6.0 6.0l0 0c-3.3137054 0 -6.0 -2.6862907 -6.0 -6.0z" fill-rule="evenodd"/><path stroke="#000000" stroke-width="1.0" stroke-linejoin="round" stroke-linecap="butt" d="m100.0 34.800526l0 0c0 -3.3137093 2.6862946 -6.0 6.0 -6.0l0 0c1.591301 0 3.117424 0.6321411 4.2426376 1.7573586c1.1252213 1.1252174 1.7573624 2.6513405 1.7573624 4.2426414l0 0c0 3.3137093 -2.6862946 6.0 -6.0 6.0l0 0c-3.3137054 0 -6.0 -2.6862907 -6.0 -6.0z" fill-rule="evenodd"/><path fill="#cfe2f3" d="m136.0 58.800526l0 0c0 -3.3137093 2.6862946 -6.0 6.0 -6.0l0 0c1.5912933 0 3.1174164 0.6321411 4.2426453 1.7573586c1.1252136 1.1252174 1.7573547 2.6513405 1.7573547 4.2426414l0 0c0 3.3137093 -2.6862946 5.999996 -6.0 5.999996l0 0c-3.3137054 0 -6.0 -2.686287 -6.0 -5.999996z" fill-rule="evenodd"/><path stroke="#000000" stroke-width="1.0" stroke-linejoin="round" stroke-linecap="butt" d="m136.0 58.800526l0 0c0 -3.3137093 2.6862946 -6.0 6.0 -6.0l0 0c1.5912933 0 3.1174164 0.6321411 4.2426453 1.7573586c1.1252136 1.1252174 1.7573547 2.6513405 1.7573547 4.2426414l0 0c0 3.3137093 -2.6862946 5.999996 -6.0 5.999996l0 0c-3.3137054 0 -6.0 -2.686287 -6.0 -5.999996z" fill-rule="evenodd"/><path fill="#cfe2f3" d="m128.0 42.800526l0 0c0 -3.3137093 2.6862946 -6.0 6.0 -6.0l0 0c1.5912933 0 3.1174164 0.6321411 4.2426453 1.7573586c1.1252136 1.1252174 1.7573547 2.6513405 1.7573547 4.2426414l0 0c0 3.3137093 -2.6862946 6.0 -6.0 6.0l0 0c-3.3137054 0 -6.0 -2.6862907 -6.0 -6.0z" fill-rule="evenodd"/><path stroke="#000000" stroke-width="1.0" stroke-linejoin="round" stroke-linecap="butt" d="m128.0 42.800526l0 0c0 -3.3137093 2.6862946 -6.0 6.0 -6.0l0 0c1.5912933 0 3.1174164 0.6321411 4.2426453 1.7573586c1.1252136 1.1252174 1.7573547 2.6513405 1.7573547 4.2426414l0 0c0 3.3137093 -2.6862946 6.0 -6.0 6.0l0 0c-3.3137054 0 -6.0 -2.6862907 -6.0 -6.0z" fill-rule="evenodd"/><path fill="#cfe2f3" d="m158.0 42.800526l0 0c0 -3.3137093 2.6862946 -6.0 6.0 -6.0l0 0c1.5912933 0 3.1174164 0.6321411 4.2426453 1.7573586c1.1252136 1.1252174 1.7573547 2.6513405 1.7573547 4.2426414l0 0c0 3.3137093 -2.6862946 6.0 -6.0 6.0l0 0c-3.3137054 0 -6.0 -2.6862907 -6.0 -6.0z" fill-rule="evenodd"/><path stroke="#000000" stroke-width="1.0" stroke-linejoin="round" stroke-linecap="butt" d="m158.0 42.800526l0 0c0 -3.3137093 2.6862946 -6.0 6.0 -6.0l0 0c1.5912933 0 3.1174164 0.6321411 4.2426453 1.7573586c1.1252136 1.1252174 1.7573547 2.6513405 1.7573547 4.2426414l0 0c0 3.3137093 -2.6862946 6.0 -6.0 6.0l0 0c-3.3137054 0 -6.0 -2.6862907 -6.0 -6.0z" fill-rule="evenodd"/><path fill="#cfe2f3" d="m114.0 90.80052l0 0c0 -3.3137054 2.6862946 -6.0 6.0 -6.0l0 0c1.591301 0 3.117424 0.6321411 4.2426376 1.7573624c1.1252213 1.1252213 1.7573624 2.6513443 1.7573624 4.2426376l0 0c0 3.313713 -2.6862946 6.0 -6.0 6.0l0 0c-3.3137054 0 -6.0 -2.686287 -6.0 -6.0z" fill-rule="evenodd"/><path stroke="#000000" stroke-width="1.0" stroke-linejoin="round" stroke-linecap="butt" d="m114.0 90.80052l0 0c0 -3.3137054 2.6862946 -6.0 6.0 -6.0l0 0c1.591301 0 3.117424 0.6321411 4.2426376 1.7573624c1.1252213 1.1252213 1.7573624 2.6513443 1.7573624 4.2426376l0 0c0 3.313713 -2.6862946 6.0 -6.0 6.0l0 0c-3.3137054 0 -6.0 -2.686287 -6.0 -6.0z" fill-rule="evenodd"/><path fill="#cfe2f3" d="m254.0 90.80052l0 0c0 -3.3137054 2.6862793 -6.0 6.0 -6.0l0 0c1.5913086 0 3.1174316 0.6321411 4.2426453 1.7573624c1.1252136 1.1252213 1.7573547 2.6513443 1.7573547 4.2426376l0 0c0 3.313713 -2.6862793 6.0 -6.0 6.0l0 0c-3.3137207 0 -6.0 -2.686287 -6.0 -6.0z" fill-rule="evenodd"/><path stroke="#000000" stroke-width="1.0" stroke-linejoin="round" stroke-linecap="butt" d="m254.0 90.80052l0 0c0 -3.3137054 2.6862793 -6.0 6.0 -6.0l0 0c1.5913086 0 3.1174316 0.6321411 4.2426453 1.7573624c1.1252136 1.1252213 1.7573547 2.6513443 1.7573547 4.2426376l0 0c0 3.313713 -2.6862793 6.0 -6.0 6.0l0 0c-3.3137207 0 -6.0 -2.686287 -6.0 -6.0z" fill-rule="evenodd"/><path fill="#cfe2f3" d="m230.0 114.80052l0 0c0 -3.3137054 2.6862946 -6.0 6.0 -6.0l0 0c1.5912933 0 3.1174164 0.6321411 4.2426453 1.7573624c1.1252136 1.1252213 1.7573547 2.6513443 1.7573547 4.2426376l0 0c0 3.313713 -2.6862946 6.0 -6.0 6.0l0 0c-3.3137054 0 -6.0 -2.686287 -6.0 -6.0z" fill-rule="evenodd"/><path stroke="#000000" stroke-width="1.0" stroke-linejoin="round" stroke-linecap="butt" d="m230.0 114.80052l0 0c0 -3.3137054 2.6862946 -6.0 6.0 -6.0l0 0c1.5912933 0 3.1174164 0.6321411 4.2426453 1.7573624c1.1252136 1.1252213 1.7573547 2.6513443 1.7573547 4.2426376l0 0c0 3.313713 -2.6862946 6.0 -6.0 6.0l0 0c-3.3137054 0 -6.0 -2.686287 -6.0 -6.0z" fill-rule="evenodd"/><path fill="#000000" fill-opacity="0.0" d="m113.0 14.800525l0 161.00787" fill-rule="evenodd"/><path stroke="#ff0000" stroke-width="1.0" stroke-linejoin="round" stroke-linecap="butt" d="m113.0 14.800525l0 161.00787" fill-rule="evenodd"/><path fill="#000000" fill-opacity="0.0" d="m185.0 14.800525l0 161.00787" fill-rule="evenodd"/><path stroke="#ff0000" stroke-width="1.0" stroke-linejoin="round" stroke-linecap="butt" d="m185.0 14.800525l0 161.00787" fill-rule="evenodd"/><path fill="#000000" fill-opacity="0.0" d="m285.0 14.800525l0 161.00787" fill-rule="evenodd"/><path stroke="#ff0000" stroke-width="1.0" stroke-linejoin="round" stroke-linecap="butt" d="m285.0 14.800525l0 161.00787" fill-rule="evenodd"/><path fill="#000000" fill-opacity="0.0" d="m511.0 14.800525l0 161.00787" fill-rule="evenodd"/><path stroke="#ff0000" stroke-width="1.0" stroke-linejoin="round" stroke-linecap="butt" d="m511.0 14.800525l0 161.00787" fill-rule="evenodd"/><path fill="#cfe2f3" d="m438.0 122.80052l0 0c0 -3.3137054 2.6862793 -6.0 6.0 -6.0l0 0c1.5913086 0 3.1174316 0.6321411 4.2426453 1.7573624c1.1252136 1.1252213 1.7573547 2.6513443 1.7573547 4.2426376l0 0c0 3.313713 -2.6862793 6.0 -6.0 6.0l0 0c-3.3137207 0 -6.0 -2.686287 -6.0 -6.0z" fill-rule="evenodd"/><path stroke="#000000" stroke-width="1.0" stroke-linejoin="round" stroke-linecap="butt" d="m438.0 122.80052l0 0c0 -3.3137054 2.6862793 -6.0 6.0 -6.0l0 0c1.5913086 0 3.1174316 0.6321411 4.2426453 1.7573624c1.1252136 1.1252213 1.7573547 2.6513443 1.7573547 4.2426376l0 0c0 3.313713 -2.6862793 6.0 -6.0 6.0l0 0c-3.3137207 0 -6.0 -2.686287 -6.0 -6.0z" fill-rule="evenodd"/></g></svg>