<?xml version="1.0" encoding="UTF-8" standalone="no"?>
<svg
   xmlns:dc="http://purl.org/dc/elements/1.1/"
   xmlns:cc="http://creativecommons.org/ns#"
   xmlns:rdf="http://www.w3.org/1999/02/22-rdf-syntax-ns#"
   xmlns:svg="http://www.w3.org/2000/svg"
   xmlns="http://www.w3.org/2000/svg"
   xmlns:sodipodi="http://sodipodi.sourceforge.net/DTD/sodipodi-0.dtd"
   xmlns:inkscape="http://www.inkscape.org/namespaces/inkscape"
   version="1.1"
   viewBox="0.0 0.0 524.8582677165355 481.3622047244094"
   fill="none"
   stroke="none"
   stroke-linecap="square"
   stroke-miterlimit="10"
   id="svg237"
   sodipodi:docname="RNN.svg"
   inkscape:version="0.92.2 5c3e80d, 2017-08-06">
  <metadata
     id="metadata243">
    <rdf:RDF>
      <cc:Work
         rdf:about="">
        <dc:format>image/svg+xml</dc:format>
        <dc:type
           rdf:resource="http://purl.org/dc/dcmitype/StillImage" />
      </cc:Work>
    </rdf:RDF>
  </metadata>
  <defs
     id="defs241" />
  <sodipodi:namedview
     pagecolor="#ffffff"
     bordercolor="#666666"
     borderopacity="1"
     objecttolerance="10"
     gridtolerance="10"
     guidetolerance="10"
     inkscape:pageopacity="0"
     inkscape:pageshadow="2"
     inkscape:window-width="1718"
     inkscape:window-height="1122"
     id="namedview239"
     showgrid="false"
     inkscape:zoom="1.5"
     inkscape:cx="262.42914"
     inkscape:cy="180.56809"
     inkscape:window-x="0"
     inkscape:window-y="0"
     inkscape:window-maximized="0"
     inkscape:current-layer="svg237" />
  <clipPath
     id="p.0">
    <path
       d="m0 0l524.8583 0l0 481.3622l-524.8583 0l0 -481.3622z"
       clip-rule="nonzero"
       id="path2" />
  </clipPath>
  <g
     clip-path="url(#p.0)"
     id="g235">
    <path
       fill="#000000"
       fill-opacity="0.0"
       d="m0 0l524.8583 0l0 481.3622l-524.8583 0z"
       fill-rule="evenodd"
       id="path5" />
    <path
       fill="#cfe2f3"
       d="m116.03473 305.82367l62.992126 0l0 49.007874l-62.992126 0z"
       fill-rule="evenodd"
       id="path7" />
    <path
       stroke="#000000"
       stroke-width="1.0"
       stroke-linejoin="round"
       stroke-linecap="butt"
       d="m116.03473 305.82367l62.992126 0l0 49.007874l-62.992126 0z"
       fill-rule="evenodd"
       id="path9" />
    <path
       fill="#cfe2f3"
       d="m116.03473 225.82368l62.992126 0l0 49.00786l-62.992126 0z"
       fill-rule="evenodd"
       id="path11" />
    <path
       stroke="#000000"
       stroke-width="1.0"
       stroke-linejoin="round"
       stroke-linecap="butt"
       d="m116.03473 225.82368l62.992126 0l0 49.00786l-62.992126 0z"
       fill-rule="evenodd"
       id="path13" />
    <path
       fill="#cfe2f3"
       d="m116.03473 145.82368l62.992126 0l0 49.007874l-62.992126 0z"
       fill-rule="evenodd"
       id="path15" />
    <path
       stroke="#000000"
       stroke-width="1.0"
       stroke-linejoin="round"
       stroke-linecap="butt"
       d="m116.03473 145.82368l62.992126 0l0 49.007874l-62.992126 0z"
       fill-rule="evenodd"
       id="path17" />
    <path
       fill="#cfe2f3"
       d="m116.03473 385.82367l62.992126 0l0 49.007874l-62.992126 0z"
       fill-rule="evenodd"
       id="path19" />
    <path
       stroke="#000000"
       stroke-width="1.0"
       stroke-linejoin="round"
       stroke-linecap="butt"
       d="m116.03473 385.82367l62.992126 0l0 49.007874l-62.992126 0z"
       fill-rule="evenodd"
       id="path21" />
    <path
       fill="#000000"
       d="m138.76517 416.18762l-3.03125 -11.453125l1.546875 0l1.75 7.5q0.28125 1.1875 0.484375 2.34375q0.4375 -1.828125 0.515625 -2.109375l2.171875 -7.734375l1.828125 0l1.640625 5.796875q0.625 2.15625 0.890625 4.046875q0.21875 -1.078125 0.578125 -2.484375l1.796875 -7.359375l1.515625 0l-3.140625 11.453125l-1.453125 0l-2.421875 -8.734375q-0.296875 -1.09375 -0.359375 -1.34375q-0.171875 0.796875 -0.328125 1.34375l-2.4375 8.734375l-1.546875 0zm18.601562 -2.671875l1.453125 0.171875q-0.34375 1.28125 -1.28125 1.984375q-0.921875 0.703125 -2.359375 0.703125q-1.828125 0 -2.890625 -1.125q-1.0625 -1.125 -1.0625 -3.140625q0 -2.09375 1.078125 -3.25q1.078125 -1.15625 2.796875 -1.15625q1.65625 0 2.703125 1.140625q1.0625 1.125 1.0625 3.171875q0 0.125 0 0.375l-6.1875 0q0.078125 1.375 0.765625 2.109375q0.703125 0.71875 1.734375 0.71875q0.78125 0 1.328125 -0.40625q0.546875 -0.40625 0.859375 -1.296875zm-4.609375 -2.28125l4.625 0q-0.09375 -1.046875 -0.53125 -1.5625q-0.671875 -0.8125 -1.734375 -0.8125q-0.96875 0 -1.640625 0.65625q-0.65625 0.640625 -0.71875 1.71875z"
       fill-rule="nonzero"
       id="path23" />
    <path
       fill="#cfe2f3"
       d="m212.03473 305.82367l62.992126 0l0 49.007874l-62.992126 0z"
       fill-rule="evenodd"
       id="path25" />
    <path
       stroke="#000000"
       stroke-width="1.0"
       stroke-linejoin="round"
       stroke-linecap="butt"
       d="m212.03473 305.82367l62.992126 0l0 49.007874l-62.992126 0z"
       fill-rule="evenodd"
       id="path27" />
    <path
       fill="#cfe2f3"
       d="m212.03473 225.82368l62.992126 0l0 49.00786l-62.992126 0z"
       fill-rule="evenodd"
       id="path29" />
    <path
       stroke="#000000"
       stroke-width="1.0"
       stroke-linejoin="round"
       stroke-linecap="butt"
       d="m212.03473 225.82368l62.992126 0l0 49.00786l-62.992126 0z"
       fill-rule="evenodd"
       id="path31" />
    <path
       fill="#cfe2f3"
       d="m212.03473 145.82368l62.992126 0l0 49.007874l-62.992126 0z"
       fill-rule="evenodd"
       id="path33" />
    <path
       stroke="#000000"
       stroke-width="1.0"
       stroke-linejoin="round"
       stroke-linecap="butt"
       d="m212.03473 145.82368l62.992126 0l0 49.007874l-62.992126 0z"
       fill-rule="evenodd"
       id="path35" />
    <path
       fill="#cfe2f3"
       d="m212.03473 385.82367l62.992126 0l0 49.007874l-62.992126 0z"
       fill-rule="evenodd"
       id="path37" />
    <path
       stroke="#000000"
       stroke-width="1.0"
       stroke-linejoin="round"
       stroke-linecap="butt"
       d="m212.03473 385.82367l62.992126 0l0 49.007874l-62.992126 0z"
       fill-rule="evenodd"
       id="path39" />
    <path
       fill="#000000"
       d="m233.88235 416.18762l-3.03125 -11.453125l1.546875 0l1.75 7.5q0.28125 1.1875 0.484375 2.34375q0.4375 -1.828125 0.515625 -2.109375l2.171875 -7.734375l1.828125 0l1.640625 5.796875q0.625 2.15625 0.890625 4.046875q0.21875 -1.078125 0.578125 -2.484375l1.796875 -7.359375l1.515625 0l-3.140625 11.453125l-1.453125 0l-2.421875 -8.734375q-0.296875 -1.09375 -0.359375 -1.34375q-0.171875 0.796875 -0.328125 1.34375l-2.4375 8.734375l-1.546875 0zm12.9296875 -9.84375l0 -1.609375l1.40625 0l0 1.609375l-1.40625 0zm0 9.84375l0 -8.296875l1.40625 0l0 8.296875l-1.40625 0zm3.5234375 0l0 -11.453125l1.40625 0l0 11.453125l-1.40625 0zm3.5546875 0l0 -11.453125l1.40625 0l0 11.453125l-1.40625 0z"
       fill-rule="nonzero"
       id="path41" />
    <path
       fill="#cfe2f3"
       d="m308.03473 305.82367l62.992126 0l0 49.007874l-62.992126 0z"
       fill-rule="evenodd"
       id="path43" />
    <path
       stroke="#000000"
       stroke-width="1.0"
       stroke-linejoin="round"
       stroke-linecap="butt"
       d="m308.03473 305.82367l62.992126 0l0 49.007874l-62.992126 0z"
       fill-rule="evenodd"
       id="path45" />
    <path
       fill="#cfe2f3"
       d="m308.03473 225.82368l62.992126 0l0 49.00786l-62.992126 0z"
       fill-rule="evenodd"
       id="path47" />
    <path
       stroke="#000000"
       stroke-width="1.0"
       stroke-linejoin="round"
       stroke-linecap="butt"
       d="m308.03473 225.82368l62.992126 0l0 49.00786l-62.992126 0z"
       fill-rule="evenodd"
       id="path49" />
    <path
       fill="#cfe2f3"
       d="m308.03473 145.82368l62.992126 0l0 49.007874l-62.992126 0z"
       fill-rule="evenodd"
       id="path51" />
    <path
       stroke="#000000"
       stroke-width="1.0"
       stroke-linejoin="round"
       stroke-linecap="butt"
       d="m308.03473 145.82368l62.992126 0l0 49.007874l-62.992126 0z"
       fill-rule="evenodd"
       id="path53" />
    <path
       fill="#cfe2f3"
       d="m308.03473 385.82367l62.992126 0l0 49.007874l-62.992126 0z"
       fill-rule="evenodd"
       id="path55" />
    <path
       stroke="#000000"
       stroke-width="1.0"
       stroke-linejoin="round"
       stroke-linecap="butt"
       d="m308.03473 385.82367l62.992126 0l0 49.007874l-62.992126 0z"
       fill-rule="evenodd"
       id="path57" />
    <path
       fill="#000000"
       d="m322.56985 416.18762l0 -11.453125l5.078125 0q1.53125 0 2.328125 0.3125q0.796875 0.296875 1.265625 1.078125q0.484375 0.78125 0.484375 1.734375q0 1.21875 -0.796875 2.0625q-0.78125 0.828125 -2.4375 1.046875q0.609375 0.296875 0.921875 0.578125q0.65625 0.609375 1.25 1.515625l2.0 3.125l-1.90625 0l-1.515625 -2.390625q-0.671875 -1.03125 -1.109375 -1.578125q-0.421875 -0.546875 -0.765625 -0.765625q-0.328125 -0.21875 -0.6875 -0.296875q-0.25 -0.0625 -0.84375 -0.0625l-1.75 0l0 5.09375l-1.515625 0zm1.515625 -6.40625l3.25 0q1.046875 0 1.625 -0.203125q0.59375 -0.21875 0.890625 -0.6875q0.3125 -0.484375 0.3125 -1.03125q0 -0.8125 -0.59375 -1.328125q-0.59375 -0.53125 -1.859375 -0.53125l-3.625 0l0 3.78125zm9.3046875 2.25q0 -2.296875 1.28125 -3.40625q1.078125 -0.921875 2.609375 -0.921875q1.71875 0 2.796875 1.125q1.09375 1.109375 1.09375 3.09375q0 1.59375 -0.484375 2.515625q-0.484375 0.921875 -1.40625 1.4375q-0.90625 0.5 -2.0 0.5q-1.734375 0 -2.8125 -1.109375q-1.078125 -1.125 -1.078125 -3.234375zm1.453125 0q0 1.59375 0.6875 2.390625q0.703125 0.796875 1.75 0.796875q1.046875 0 1.734375 -0.796875q0.703125 -0.796875 0.703125 -2.4375q0 -1.53125 -0.703125 -2.328125q-0.6875 -0.796875 -1.734375 -0.796875q-1.046875 0 -1.75 0.796875q-0.6875 0.78125 -0.6875 2.375zm13.3828125 1.109375l1.390625 0.1875q-0.234375 1.421875 -1.171875 2.234375q-0.921875 0.8125 -2.28125 0.8125q-1.703125 0 -2.75 -1.109375q-1.03125 -1.125 -1.03125 -3.203125q0 -1.34375 0.4375 -2.34375q0.453125 -1.015625 1.359375 -1.515625q0.921875 -0.5 1.984375 -0.5q1.359375 0 2.21875 0.6875q0.859375 0.671875 1.09375 1.9375l-1.359375 0.203125q-0.203125 -0.828125 -0.703125 -1.25q-0.484375 -0.421875 -1.1875 -0.421875q-1.0625 0 -1.734375 0.765625q-0.65625 0.75 -0.65625 2.40625q0 1.671875 0.640625 2.4375q0.640625 0.75 1.671875 0.75q0.828125 0 1.375 -0.5q0.5625 -0.515625 0.703125 -1.578125zm2.59375 3.046875l0 -11.453125l1.40625 0l0 6.53125l3.328125 -3.375l1.828125 0l-3.171875 3.078125l3.484375 5.21875l-1.734375 0l-2.734375 -4.25l-1.0 0.953125l0 3.296875l-1.40625 0z"
       fill-rule="nonzero"
       id="path59" />
    <path
       fill="#cfe2f3"
       d="m404.03473 305.82367l62.992126 0l0 49.007874l-62.992126 0z"
       fill-rule="evenodd"
       id="path61" />
    <path
       stroke="#000000"
       stroke-width="1.0"
       stroke-linejoin="round"
       stroke-linecap="butt"
       d="m404.03473 305.82367l62.992126 0l0 49.007874l-62.992126 0z"
       fill-rule="evenodd"
       id="path63" />
    <path
       fill="#cfe2f3"
       d="m404.03473 225.82368l62.992126 0l0 49.00786l-62.992126 0z"
       fill-rule="evenodd"
       id="path65" />
    <path
       stroke="#000000"
       stroke-width="1.0"
       stroke-linejoin="round"
       stroke-linecap="butt"
       d="m404.03473 225.82368l62.992126 0l0 49.00786l-62.992126 0z"
       fill-rule="evenodd"
       id="path67" />
    <path
       fill="#cfe2f3"
       d="m404.03473 145.82368l62.992126 0l0 49.007874l-62.992126 0z"
       fill-rule="evenodd"
       id="path69" />
    <path
       stroke="#000000"
       stroke-width="1.0"
       stroke-linejoin="round"
       stroke-linecap="butt"
       d="m404.03473 145.82368l62.992126 0l0 49.007874l-62.992126 0z"
       fill-rule="evenodd"
       id="path71" />
    <path
       fill="#cfe2f3"
       d="m404.03473 385.82367l62.992126 0l0 49.007874l-62.992126 0z"
       fill-rule="evenodd"
       id="path73" />
    <path
       stroke="#000000"
       stroke-width="1.0"
       stroke-linejoin="round"
       stroke-linecap="butt"
       d="m404.03473 385.82367l62.992126 0l0 49.007874l-62.992126 0z"
       fill-rule="evenodd"
       id="path75" />
    <path
       fill="#000000"
       d="m424.1364 417.24762l0 -5.65625l-5.15625 -7.703125l2.15625 0l2.640625 4.03125q0.71875 1.125 1.34375 2.265625q0.609375 -1.046875 1.46875 -2.359375l2.578125 -3.9375l2.0625 0l-5.328125 7.703125l0 5.65625l-1.765625 0zm7.865448 -4.84375q0 -2.6875 1.484375 -3.96875q1.25 -1.078125 3.046875 -1.078125q2.0 0 3.265625 1.3125q1.265625 1.296875 1.265625 3.609375q0 1.859375 -0.5625 2.9375q-0.5625 1.0625 -1.640625 1.65625q-1.0625 0.59375 -2.328125 0.59375q-2.03125 0 -3.28125 -1.296875q-1.25 -1.3125 -1.25 -3.765625zm1.6875 0q0 1.859375 0.796875 2.796875q0.8125 0.921875 2.046875 0.921875q1.21875 0 2.03125 -0.921875q0.8125 -0.9375 0.8125 -2.84375q0 -1.796875 -0.8125 -2.71875q-0.8125 -0.921875 -2.03125 -0.921875q-1.234375 0 -2.046875 0.921875q-0.796875 0.90625 -0.796875 2.765625zm15.625732 4.84375l0 -1.421875q-1.125 1.640625 -3.0625 1.640625q-0.859375 0 -1.609375 -0.328125q-0.734375 -0.328125 -1.09375 -0.828125q-0.359375 -0.5 -0.5 -1.21875q-0.109375 -0.46875 -0.109375 -1.53125l0 -5.984375l1.640625 0l0 5.359375q0 1.28125 0.109375 1.734375q0.15625 0.640625 0.65625 1.015625q0.5 0.375 1.234375 0.375q0.734375 0 1.375 -0.375q0.65625 -0.390625 0.921875 -1.03125q0.265625 -0.65625 0.265625 -1.890625l0 -5.1875l1.640625 0l0 9.671875l-1.46875 0z"
       fill-rule="nonzero"
       id="path77" />
    <path
       fill="#000000"
       fill-opacity="0.0"
       d="m147.53079 385.82367l0 -30.992126"
       fill-rule="evenodd"
       id="path79" />
    <path
       stroke="#000000"
       stroke-width="1.0"
       stroke-linejoin="round"
       stroke-linecap="butt"
       d="m147.53079 385.8237l0 -24.992126"
       fill-rule="evenodd"
       id="path81" />
    <path
       fill="#000000"
       stroke="#000000"
       stroke-width="1.0"
       stroke-linecap="butt"
       d="m149.18253 360.83157l-1.6517334 -4.5381165l-1.6517334 4.5381165z"
       fill-rule="evenodd"
       id="path83" />
    <path
       fill="#000000"
       fill-opacity="0.0"
       d="m147.53079 305.82367l0 -30.992126"
       fill-rule="evenodd"
       id="path85" />
    <path
       stroke="#000000"
       stroke-width="1.0"
       stroke-linejoin="round"
       stroke-linecap="butt"
       d="m147.53079 305.82367l0 -24.992126"
       fill-rule="evenodd"
       id="path87" />
    <path
       fill="#000000"
       stroke="#000000"
       stroke-width="1.0"
       stroke-linecap="butt"
       d="m149.18253 280.83154l-1.6517334 -4.538086l-1.6517334 4.538086z"
       fill-rule="evenodd"
       id="path89" />
    <path
       fill="#000000"
       fill-opacity="0.0"
       d="m147.53079 225.82368l0 -30.992126"
       fill-rule="evenodd"
       id="path91" />
    <path
       stroke="#000000"
       stroke-width="1.0"
       stroke-linejoin="round"
       stroke-linecap="butt"
       d="m147.53079 225.82367l0 -24.992126"
       fill-rule="evenodd"
       id="path93" />
    <path
       fill="#000000"
       stroke="#000000"
       stroke-width="1.0"
       stroke-linecap="butt"
       d="m149.18253 200.83154l-1.6517334 -4.538086l-1.6517334 4.538086z"
       fill-rule="evenodd"
       id="path95" />
    <path
       fill="#000000"
       fill-opacity="0.0"
       d="m243.53079 225.82368l0 -30.992126"
       fill-rule="evenodd"
       id="path97" />
    <path
       stroke="#000000"
       stroke-width="1.0"
       stroke-linejoin="round"
       stroke-linecap="butt"
       d="m243.53079 225.82367l0 -24.992126"
       fill-rule="evenodd"
       id="path99" />
    <path
       fill="#000000"
       stroke="#000000"
       stroke-width="1.0"
       stroke-linecap="butt"
       d="m245.18253 200.83154l-1.6517334 -4.538086l-1.6517334 4.538086z"
       fill-rule="evenodd"
       id="path101" />
    <path
       fill="#000000"
       fill-opacity="0.0"
       d="m243.53079 305.82367l0 -30.992126"
       fill-rule="evenodd"
       id="path103" />
    <path
       stroke="#000000"
       stroke-width="1.0"
       stroke-linejoin="round"
       stroke-linecap="butt"
       d="m243.53079 305.82367l0 -24.992126"
       fill-rule="evenodd"
       id="path105" />
    <path
       fill="#000000"
       stroke="#000000"
       stroke-width="1.0"
       stroke-linecap="butt"
       d="m245.18253 280.83154l-1.6517334 -4.538086l-1.6517334 4.538086z"
       fill-rule="evenodd"
       id="path107" />
    <path
       fill="#000000"
       fill-opacity="0.0"
       d="m243.53079 385.82367l0 -30.992126"
       fill-rule="evenodd"
       id="path109" />
    <path
       stroke="#000000"
       stroke-width="1.0"
       stroke-linejoin="round"
       stroke-linecap="butt"
       d="m243.53079 385.8237l0 -24.992126"
       fill-rule="evenodd"
       id="path111" />
    <path
       fill="#000000"
       stroke="#000000"
       stroke-width="1.0"
       stroke-linecap="butt"
       d="m245.18253 360.83157l-1.6517334 -4.5381165l-1.6517334 4.5381165z"
       fill-rule="evenodd"
       id="path113" />
    <path
       fill="#000000"
       fill-opacity="0.0"
       d="m339.5308 385.82367l0 -30.992126"
       fill-rule="evenodd"
       id="path115" />
    <path
       stroke="#000000"
       stroke-width="1.0"
       stroke-linejoin="round"
       stroke-linecap="butt"
       d="m339.5308 385.8237l0 -24.992126"
       fill-rule="evenodd"
       id="path117" />
    <path
       fill="#000000"
       stroke="#000000"
       stroke-width="1.0"
       stroke-linecap="butt"
       d="m341.18253 360.83157l-1.6517334 -4.5381165l-1.6517334 4.5381165z"
       fill-rule="evenodd"
       id="path119" />
    <path
       fill="#000000"
       fill-opacity="0.0"
       d="m339.5308 305.82367l0 -30.992126"
       fill-rule="evenodd"
       id="path121" />
    <path
       stroke="#000000"
       stroke-width="1.0"
       stroke-linejoin="round"
       stroke-linecap="butt"
       d="m339.5308 305.82367l0 -24.992126"
       fill-rule="evenodd"
       id="path123" />
    <path
       fill="#000000"
       stroke="#000000"
       stroke-width="1.0"
       stroke-linecap="butt"
       d="m341.18253 280.83154l-1.6517334 -4.538086l-1.6517334 4.538086z"
       fill-rule="evenodd"
       id="path125" />
    <path
       fill="#000000"
       fill-opacity="0.0"
       d="m339.5308 225.82368l0 -30.992126"
       fill-rule="evenodd"
       id="path127" />
    <path
       stroke="#000000"
       stroke-width="1.0"
       stroke-linejoin="round"
       stroke-linecap="butt"
       d="m339.5308 225.82367l0 -24.992126"
       fill-rule="evenodd"
       id="path129" />
    <path
       fill="#000000"
       stroke="#000000"
       stroke-width="1.0"
       stroke-linecap="butt"
       d="m341.18253 200.83154l-1.6517334 -4.538086l-1.6517334 4.538086z"
       fill-rule="evenodd"
       id="path131" />
    <path
       fill="#000000"
       fill-opacity="0.0"
       d="m435.5308 225.82368l0 -30.992126"
       fill-rule="evenodd"
       id="path133" />
    <path
       stroke="#000000"
       stroke-width="1.0"
       stroke-linejoin="round"
       stroke-linecap="butt"
       d="m435.5308 225.82367l0 -24.992126"
       fill-rule="evenodd"
       id="path135" />
    <path
       fill="#000000"
       stroke="#000000"
       stroke-width="1.0"
       stroke-linecap="butt"
       d="m437.18253 200.83154l-1.6517334 -4.538086l-1.6517334 4.538086z"
       fill-rule="evenodd"
       id="path137" />
    <path
       fill="#000000"
       fill-opacity="0.0"
       d="m435.5308 305.82367l0 -30.992126"
       fill-rule="evenodd"
       id="path139" />
    <path
       stroke="#000000"
       stroke-width="1.0"
       stroke-linejoin="round"
       stroke-linecap="butt"
       d="m435.5308 305.82367l0 -24.992126"
       fill-rule="evenodd"
       id="path141" />
    <path
       fill="#000000"
       stroke="#000000"
       stroke-width="1.0"
       stroke-linecap="butt"
       d="m437.18253 280.83154l-1.6517334 -4.538086l-1.6517334 4.538086z"
       fill-rule="evenodd"
       id="path143" />
    <path
       fill="#000000"
       fill-opacity="0.0"
       d="m435.5308 385.82367l0 -30.992126"
       fill-rule="evenodd"
       id="path145" />
    <path
       stroke="#000000"
       stroke-width="1.0"
       stroke-linejoin="round"
       stroke-linecap="butt"
       d="m435.5308 385.8237l0 -24.992126"
       fill-rule="evenodd"
       id="path147" />
    <path
       fill="#000000"
       stroke="#000000"
       stroke-width="1.0"
       stroke-linecap="butt"
       d="m437.18253 360.83157l-1.6517334 -4.5381165l-1.6517334 4.5381165z"
       fill-rule="evenodd"
       id="path149" />
    <path
       fill="#000000"
       fill-opacity="0.0"
       d="m9.034729 385.82367l106.99213 0l0 49.007874l-106.99213 0z"
       fill-rule="evenodd"
       id="path151" />
    <path
       fill="#000000"
       fill-opacity="0.0"
       d="m9.034729 305.82367l106.99213 0l0 49.007874l-106.99213 0z"
       fill-rule="evenodd"
       id="path155" />
    <path
       fill="#000000"
       fill-opacity="0.0"
       d="m9.034729 225.82368l106.99213 0l0 49.00786l-106.99213 0z"
       fill-rule="evenodd"
       id="path159" />
    <path
       fill="#000000"
       fill-opacity="0.0"
       d="m9.034729 145.82368l106.99213 0l0 49.007874l-106.99213 0z"
       fill-rule="evenodd"
       id="path163" />
    <path
       fill="#000000"
       fill-opacity="0.0"
       d="m180.03473 250.32762l30.992126 0"
       fill-rule="evenodd"
       id="path167" />
    <path
       stroke="#980000"
       stroke-width="1.0"
       stroke-linejoin="round"
       stroke-linecap="butt"
       d="m180.03473 250.3276l24.992126 0"
       fill-rule="evenodd"
       id="path169" />
    <path
       fill="#980000"
       stroke="#980000"
       stroke-width="1.0"
       stroke-linecap="butt"
       d="m205.02686 251.97934l4.538101 -1.6517334l-4.538101 -1.6517334z"
       fill-rule="evenodd"
       id="path171" />
    <path
       fill="#000000"
       fill-opacity="0.0"
       d="m180.03473 330.3276l30.992126 0"
       fill-rule="evenodd"
       id="path173" />
    <path
       stroke="#980000"
       stroke-width="1.0"
       stroke-linejoin="round"
       stroke-linecap="butt"
       d="m180.03473 330.3276l24.992126 0"
       fill-rule="evenodd"
       id="path175" />
    <path
       fill="#980000"
       stroke="#980000"
       stroke-width="1.0"
       stroke-linecap="butt"
       d="m205.02686 331.97934l4.538101 -1.6517334l-4.538101 -1.6517334z"
       fill-rule="evenodd"
       id="path177" />
    <path
       fill="#000000"
       fill-opacity="0.0"
       d="m276.03473 330.3276l30.992126 0"
       fill-rule="evenodd"
       id="path179" />
    <path
       stroke="#980000"
       stroke-width="1.0"
       stroke-linejoin="round"
       stroke-linecap="butt"
       d="m276.03473 330.3276l24.992126 0"
       fill-rule="evenodd"
       id="path181" />
    <path
       fill="#980000"
       stroke="#980000"
       stroke-width="1.0"
       stroke-linecap="butt"
       d="m301.02686 331.97934l4.5381165 -1.6517334l-4.5381165 -1.6517334z"
       fill-rule="evenodd"
       id="path183" />
    <path
       fill="#000000"
       fill-opacity="0.0"
       d="m276.03473 250.32762l30.992126 0"
       fill-rule="evenodd"
       id="path185" />
    <path
       stroke="#980000"
       stroke-width="1.0"
       stroke-linejoin="round"
       stroke-linecap="butt"
       d="m276.03473 250.3276l24.992126 0"
       fill-rule="evenodd"
       id="path187" />
    <path
       fill="#980000"
       stroke="#980000"
       stroke-width="1.0"
       stroke-linecap="butt"
       d="m301.02686 251.97934l4.5381165 -1.6517334l-4.5381165 -1.6517334z"
       fill-rule="evenodd"
       id="path189" />
    <path
       fill="#000000"
       fill-opacity="0.0"
       d="m372.03473 250.32762l30.992126 0"
       fill-rule="evenodd"
       id="path191" />
    <path
       stroke="#980000"
       stroke-width="1.0"
       stroke-linejoin="round"
       stroke-linecap="butt"
       d="m372.03473 250.3276l24.992126 0"
       fill-rule="evenodd"
       id="path193" />
    <path
       fill="#980000"
       stroke="#980000"
       stroke-width="1.0"
       stroke-linecap="butt"
       d="m397.02686 251.97934l4.5381165 -1.6517334l-4.5381165 -1.6517334z"
       fill-rule="evenodd"
       id="path195" />
    <path
       fill="#000000"
       fill-opacity="0.0"
       d="m372.03473 330.3276l30.992126 0"
       fill-rule="evenodd"
       id="path197" />
    <path
       stroke="#980000"
       stroke-width="1.0"
       stroke-linejoin="round"
       stroke-linecap="butt"
       d="m372.03473 330.3276l24.992126 0"
       fill-rule="evenodd"
       id="path199" />
    <path
       fill="#980000"
       stroke="#980000"
       stroke-width="1.0"
       stroke-linecap="butt"
       d="m397.02686 331.97934l4.5381165 -1.6517334l-4.5381165 -1.6517334z"
       fill-rule="evenodd"
       id="path201" />
    <path
       fill="#000000"
       fill-opacity="0.0"
       d="m111.03473 428.82367l73.98425 0l0 49.007874l-73.98425 0z"
       fill-rule="evenodd"
       id="path203" />
    <path
       fill="#000000"
       fill-opacity="0.0"
       d="m207.03473 428.82367l73.98425 0l0 49.007874l-73.98425 0z"
       fill-rule="evenodd"
       id="path207" />
    <path
       fill="#000000"
       fill-opacity="0.0"
       d="m303.03473 428.82367l73.98425 0l0 49.007874l-73.98425 0z"
       fill-rule="evenodd"
       id="path211" />
    <path
       fill="#000000"
       fill-opacity="0.0"
       d="m399.03473 428.82367l73.98425 0l0 49.007874l-73.98425 0z"
       fill-rule="evenodd"
       id="path215" />
    <path
       fill="#000000"
       fill-opacity="0.0"
       d="m435.5308 145.82368l0 -30.992134"
       fill-rule="evenodd"
       id="path219" />
    <path
       stroke="#000000"
       stroke-width="1.0"
       stroke-linejoin="round"
       stroke-linecap="butt"
       d="m435.5308 145.82367l0 -24.992119"
       fill-rule="evenodd"
       id="path221" />
    <path
       fill="#000000"
       stroke="#000000"
       stroke-width="1.0"
       stroke-linecap="butt"
       d="m437.18253 120.83155l-1.6517334 -4.538101l-1.6517334 4.538101z"
       fill-rule="evenodd"
       id="path223" />
    <path
       fill="#d9ead3"
       d="m369.02686 24.697693c43.655914 -42.913383 87.31183 42.913383 130.96777 0l1.0322266 77.244095c-43.655914 42.91339 -87.31183 -42.913387 -130.96777 0z"
       fill-rule="evenodd"
       id="path225" />
    <path
       stroke="#000000"
       stroke-width="1.0"
       stroke-linejoin="round"
       stroke-linecap="butt"
       d="m369.02686 24.697693c43.655914 -42.913383 87.31183 42.913383 130.96777 0l1.0322266 77.244095c-43.655914 42.91339 -87.31183 -42.913387 -130.96777 0z"
       fill-rule="evenodd"
       id="path227" />
  </g>
  <text
     xml:space="preserve"
     style="font-style:normal;font-variant:normal;font-weight:normal;font-stretch:normal;font-size:18.66533279px;line-height:1.25;font-family:sans-serif;-inkscape-font-specification:sans-serif;letter-spacing:0px;word-spacing:0px;fill:#000000;fill-opacity:1;stroke:none"
     x="20"
     y="176.02888"
     id="text247"><tspan
       sodipodi:role="line"
       id="tspan245"
       x="20"
       y="176.02888"
       style="font-size:12px">output layer</tspan></text>
  <text
     xml:space="preserve"
     style="font-style:normal;font-variant:normal;font-weight:normal;font-stretch:normal;font-size:18.66533279px;line-height:1.25;font-family:sans-serif;-inkscape-font-specification:sans-serif;letter-spacing:0px;word-spacing:0px;fill:#000000;fill-opacity:1;stroke:none"
     x="13.910156"
     y="252.69511"
     id="text251"><tspan
       sodipodi:role="line"
       id="tspan249"
       x="13.910156"
       y="252.69511"
       style="font-size:12px">hidden layer</tspan></text>
  <text
     xml:space="preserve"
     style="font-style:normal;font-variant:normal;font-weight:normal;font-stretch:normal;font-size:18.66533279px;line-height:1.25;font-family:sans-serif;-inkscape-font-specification:sans-serif;letter-spacing:0px;word-spacing:0px;fill:#000000;fill-opacity:1;stroke:none"
     x="13.910156"
     y="332.69556"
     id="text255"><tspan
       sodipodi:role="line"
       id="tspan253"
       x="13.910156"
       y="332.69556"
       style="font-size:12px">hidden layer</tspan></text>
  <text
     xml:space="preserve"
     style="font-style:normal;font-variant:normal;font-weight:normal;font-stretch:normal;font-size:18.66533279px;line-height:1.25;font-family:sans-serif;-inkscape-font-specification:sans-serif;letter-spacing:0px;word-spacing:0px;fill:#000000;fill-opacity:1;stroke:none"
     x="24"
     y="410.02887"
     id="text259"><tspan
       sodipodi:role="line"
       id="tspan257"
       x="24"
       y="410.02887"
       style="font-size:12px">input layer</tspan></text>
  <text
     xml:space="preserve"
     style="font-style:normal;font-variant:normal;font-weight:normal;font-stretch:normal;font-size:18.66533279px;line-height:1.25;font-family:sans-serif;-inkscape-font-specification:sans-serif;letter-spacing:0px;word-spacing:0px;fill:#000000;fill-opacity:1;stroke:none"
     x="128.66667"
     y="461.19229"
     id="text263"><tspan
       sodipodi:role="line"
       id="tspan261"
       x="128.66667"
       y="461.19229"
       style="font-size:12px">run 1</tspan></text>
  <text
     xml:space="preserve"
     style="font-style:normal;font-variant:normal;font-weight:normal;font-stretch:normal;font-size:18.66533279px;line-height:1.25;font-family:sans-serif;-inkscape-font-specification:sans-serif;letter-spacing:0px;word-spacing:0px;fill:#000000;fill-opacity:1;stroke:none"
     x="227.33333"
     y="461.19229"
     id="text267"><tspan
       sodipodi:role="line"
       id="tspan265"
       x="227.33333"
       y="461.19229"
       style="font-size:12px">run 2</tspan></text>
  <text
     xml:space="preserve"
     style="font-style:normal;font-variant:normal;font-weight:normal;font-stretch:normal;font-size:18.66533279px;line-height:1.25;font-family:sans-serif;-inkscape-font-specification:sans-serif;letter-spacing:0px;word-spacing:0px;fill:#000000;fill-opacity:1;stroke:none"
     x="319.33334"
     y="461.19229"
     id="text271"><tspan
       sodipodi:role="line"
       id="tspan269"
       x="319.33334"
       y="461.19229"
       style="font-size:12px">run 3</tspan></text>
  <text
     xml:space="preserve"
     style="font-style:normal;font-variant:normal;font-weight:normal;font-stretch:normal;font-size:18.66533279px;line-height:1.25;font-family:sans-serif;-inkscape-font-specification:sans-serif;letter-spacing:0px;word-spacing:0px;fill:#000000;fill-opacity:1;stroke:none"
     x="417.33334"
     y="461.19229"
     id="text275"><tspan
       sodipodi:role="line"
       id="tspan273"
       x="417.33334"
       y="461.19229"
       style="font-size:12px">run 4</tspan></text>
  <text
     xml:space="preserve"
     style="font-style:normal;font-variant:normal;font-weight:normal;font-stretch:normal;font-size:18.66533279px;line-height:1.25;font-family:sans-serif;-inkscape-font-specification:sans-serif;letter-spacing:0px;word-spacing:0px;fill:#000000;fill-opacity:1;stroke:none"
     x="376.66669"
     y="53.362213"
     id="text279"><tspan
       sodipodi:role="line"
       id="tspan277"
       x="376.66669"
       y="53.362213"
       style="font-size:14.66666698px">User probably</tspan></text>
  <text
     xml:space="preserve"
     style="font-style:normal;font-variant:normal;font-weight:normal;font-stretch:normal;font-size:18.66533279px;line-height:1.25;font-family:sans-serif;-inkscape-font-specification:sans-serif;letter-spacing:0px;word-spacing:0px;fill:#000000;fill-opacity:1;stroke:none"
     x="389.33334"
     y="69.362213"
     id="text283"><tspan
       sodipodi:role="line"
       id="tspan281"
       x="389.33334"
       y="69.362213"
       style="font-size:14.66666698px">wants the</tspan></text>
  <text
     xml:space="preserve"
     style="font-style:normal;font-variant:normal;font-weight:normal;font-stretch:normal;font-size:18.66533279px;line-height:1.25;font-family:sans-serif;-inkscape-font-specification:sans-serif;letter-spacing:0px;word-spacing:0px;fill:#000000;fill-opacity:1;stroke:none"
     x="405.99997"
     y="84.695549"
     id="text287"><tspan
       sodipodi:role="line"
       id="tspan285"
       x="405.99997"
       y="84.695549"
       style="font-size:14.66666698px">Queen song.</tspan></text>
</svg>
