<svg version="1.1" viewBox="0.0 0.0 881.4173228346457 301.90288713910763" fill="none" stroke="none" stroke-linecap="square" stroke-miterlimit="10" xmlns:xlink="http://www.w3.org/1999/xlink" xmlns="http://www.w3.org/2000/svg"><clipPath id="p.0"><path d="m0 0l881.4173 0l0 301.9029l-881.4173 0l0 -301.9029z" clip-rule="nonzero"/></clipPath><g clip-path="url(#p.0)"><path fill="#000000" fill-opacity="0.0" d="m0 0l881.4173 0l0 301.9029l-881.4173 0z" fill-rule="evenodd"/><path fill="#d9d9d9" d="m314.27957 82.53387l248.78738 0l0 148.28348l-248.78738 0z" fill-rule="evenodd"/><path stroke="#000000" stroke-width="1.0" stroke-linejoin="round" stroke-linecap="butt" d="m314.27957 82.53387l248.78738 0l0 148.28348l-248.78738 0z" fill-rule="evenodd"/><path fill="#000000" fill-opacity="0.0" d="m12.641509 116.020996l49.76378 0l0 61.480316l49.76378 0" fill-rule="evenodd"/><path stroke="#000000" stroke-width="2.0" stroke-linejoin="round" stroke-linecap="butt" d="m12.641509 116.020996l49.76378 0l0 61.480316l49.76378 0" fill-rule="evenodd"/><path fill="#000000" fill-opacity="0.0" d="m29.032585 258.45932l0 -80.779175l97.76378 0l0 -25.362564" fill-rule="evenodd"/><path stroke="#000000" stroke-width="2.0" stroke-linejoin="round" stroke-linecap="butt" d="m29.032585 258.45932l0 -80.77916l97.76378 0l0 -13.362579" fill-rule="evenodd"/><path fill="#000000" stroke="#000000" stroke-width="2.0" stroke-linecap="butt" d="m130.09982 164.31758l-3.3034592 -9.076187l-3.3034668 9.076187z" fill-rule="evenodd"/><path fill="#000000" fill-opacity="0.0" d="m125.81211 119.14173l190.36221 0" fill-rule="evenodd"/><path stroke="#000000" stroke-width="2.0" stroke-linejoin="round" stroke-linecap="butt" d="m125.81211 119.14173l178.36221 0" fill-rule="evenodd"/><path fill="#000000" stroke="#000000" stroke-width="2.0" stroke-linecap="butt" d="m304.17432 122.4452l9.076202 -3.3034668l-9.076202 -3.3034668z" fill-rule="evenodd"/><path fill="#000000" fill-opacity="0.0" d="m207.76486 117.2021l0.9763794 -68.28346" fill-rule="evenodd"/><path stroke="#000000" stroke-width="2.0" stroke-linejoin="round" stroke-linecap="butt" d="m207.76486 117.2021l0.8048096 -56.28469" fill-rule="evenodd"/><path fill="#000000" stroke="#000000" stroke-width="2.0" stroke-linecap="butt" d="m211.8728 60.964638l-3.173355 -9.122498l-3.432907 9.028038z" fill-rule="evenodd"/><path fill="#000000" fill-opacity="0.0" d="m126.78849 150.3727l0 -32.188972" fill-rule="evenodd"/><path stroke="#000000" stroke-width="2.0" stroke-linejoin="round" stroke-linecap="butt" d="m126.78849 150.3727l0 -32.188972" fill-rule="evenodd"/><path fill="#000000" fill-opacity="0.0" d="m316.66144 119.00762l48.06299 0l0 69.88976l48.06302 0" fill-rule="evenodd"/><path stroke="#000000" stroke-width="2.0" stroke-linejoin="round" stroke-linecap="butt" d="m316.66144 119.00762l48.06299 0l0 69.88976l48.06302 0" fill-rule="evenodd"/><path fill="#000000" fill-opacity="0.0" d="m332.63257 267.99582l0 -78.931885l97.763794 0l0 -27.997253" fill-rule="evenodd"/><path stroke="#000000" stroke-width="2.0" stroke-linejoin="round" stroke-linecap="butt" d="m332.6326 267.99582l0 -78.931885l97.76376 0l0 -15.997269" fill-rule="evenodd"/><path fill="#000000" stroke="#000000" stroke-width="2.0" stroke-linecap="butt" d="m433.69983 173.06667l-3.3034668 -9.076187l-3.3034668 9.076187z" fill-rule="evenodd"/><path fill="#000000" fill-opacity="0.0" d="m429.83206 122.12836l179.43307 0" fill-rule="evenodd"/><path stroke="#000000" stroke-width="2.0" stroke-linejoin="round" stroke-linecap="butt" d="m429.83206 122.12835l167.43307 0" fill-rule="evenodd"/><path fill="#000000" stroke="#000000" stroke-width="2.0" stroke-linecap="butt" d="m597.26514 125.431816l9.076172 -3.3034668l-9.076172 -3.3034592z" fill-rule="evenodd"/><path fill="#000000" fill-opacity="0.0" d="m511.76907 120.19791l0.50393677 -72.755905" fill-rule="evenodd"/><path stroke="#000000" stroke-width="2.0" stroke-linejoin="round" stroke-linecap="butt" d="m511.76907 120.19791l0.42080688 -60.75619" fill-rule="evenodd"/><path fill="#000000" stroke="#000000" stroke-width="2.0" stroke-linecap="butt" d="m515.4933 59.464592l-3.2405396 -9.098858l-3.3662415 9.053097z" fill-rule="evenodd"/><path fill="#000000" fill-opacity="0.0" d="m430.80844 153.35933l0 -32.18898" fill-rule="evenodd"/><path stroke="#000000" stroke-width="2.0" stroke-linejoin="round" stroke-linecap="butt" d="m430.80844 153.35933l0 -32.18898" fill-rule="evenodd"/><path fill="#000000" fill-opacity="0.0" d="m606.9801 122.26509l49.763794 0l0 61.480316l49.763733 0" fill-rule="evenodd"/><path stroke="#000000" stroke-width="2.0" stroke-linejoin="round" stroke-linecap="butt" d="m606.9801 122.26509l49.763794 0l0 61.480316l49.763733 0" fill-rule="evenodd"/><path fill="#000000" fill-opacity="0.0" d="m623.37115 264.7034l0 -80.77916l97.763794 0l0 -25.362564" fill-rule="evenodd"/><path stroke="#000000" stroke-width="2.0" stroke-linejoin="round" stroke-linecap="butt" d="m623.3712 264.7034l0 -80.779144l97.76373 0l0 -13.362579" fill-rule="evenodd"/><path fill="#000000" stroke="#000000" stroke-width="2.0" stroke-linecap="butt" d="m724.4384 170.56168l-3.3034668 -9.076187l-3.3034668 9.076187z" fill-rule="evenodd"/><path fill="#000000" fill-opacity="0.0" d="m720.1507 125.385826l154.14172 0" fill-rule="evenodd"/><path stroke="#000000" stroke-width="2.0" stroke-linejoin="round" stroke-linecap="butt" d="m720.1507 125.385826l142.14172 0" fill-rule="evenodd"/><path fill="#000000" stroke="#000000" stroke-width="2.0" stroke-linecap="butt" d="m862.2924 128.68929l9.076172 -3.3034592l-9.076172 -3.3034668z" fill-rule="evenodd"/><path fill="#000000" fill-opacity="0.0" d="m802.10345 125.53018l0 -78.55118" fill-rule="evenodd"/><path stroke="#000000" stroke-width="2.0" stroke-linejoin="round" stroke-linecap="butt" d="m802.10345 125.53018l0 -66.55118" fill-rule="evenodd"/><path fill="#000000" stroke="#000000" stroke-width="2.0" stroke-linecap="butt" d="m805.4069 58.979004l-3.3034668 -9.076199l-3.3034668 9.076199z" fill-rule="evenodd"/><path fill="#000000" fill-opacity="0.0" d="m721.1271 156.61679l0 -32.188972" fill-rule="evenodd"/><path stroke="#000000" stroke-width="2.0" stroke-linejoin="round" stroke-linecap="butt" d="m721.1271 156.61679l0 -32.188972" fill-rule="evenodd"/><path fill="#f1c232" d="m704.10345 142.37007l34.04724 0l0 27.685043l-34.04724 0z" fill-rule="evenodd"/><path stroke="#000000" stroke-width="1.0" stroke-linejoin="round" stroke-linecap="butt" d="m704.10345 142.37007l34.04724 0l0 27.685043l-34.04724 0z" fill-rule="evenodd"/><path fill="#000000" d="m717.8458 155.1901l5.0625 -5.0625l0 9.9375l2.8125 -2.15625l0.375 0.375l-3.5625 5.34375l-0.09375 0l-3.5625 -5.34375l0.375 -0.375l2.8125 2.15625l0 -7.875l-5.0625 5.0625l0 -8.71875l0.84375 0l0 6.65625z" fill-rule="nonzero"/><path fill="#d9d9d9" fill-opacity="0.6114" d="m608.84625 82.07087l248.78735 0l0 148.28345l-248.78735 0z" fill-rule="evenodd"/><path stroke="#000000" stroke-width="1.0" stroke-linejoin="round" stroke-linecap="butt" d="m608.84625 82.07087l248.78735 0l0 148.28345l-248.78735 0z" fill-rule="evenodd"/><path fill="#f1c232" d="m109.76487 132.91864l34.04725 0l0 27.685028l-34.04725 0z" fill-rule="evenodd"/><path stroke="#000000" stroke-width="1.0" stroke-linejoin="round" stroke-linecap="butt" d="m109.76487 132.91864l34.04725 0l0 27.685028l-34.04725 0z" fill-rule="evenodd"/><path fill="#000000" d="m123.50724 145.73865l5.0625076 -5.0625l0 9.9375l2.8125 -2.15625l0.375 0.375l-3.5625 5.34375l-0.09375 0l-3.5625076 -5.34375l0.375 -0.375l2.8125 2.15625l0 -7.875l-5.0625 5.0625l0 -8.71875l0.84375 0l0 6.65625z" fill-rule="nonzero"/><path fill="#d9d9d9" fill-opacity="0.6114" d="m12.641509 82.07087l248.78741 0l0 148.28345l-248.78741 0z" fill-rule="evenodd"/><path stroke="#000000" stroke-width="1.0" stroke-linejoin="round" stroke-linecap="butt" d="m12.641509 82.07087l248.78741 0l0 148.28345l-248.78741 0z" fill-rule="evenodd"/><path fill="#cfe2f3" d="m187.27667 9.908136l41.95276 0l0 37.07087l-41.95276 0z" fill-rule="evenodd"/><path stroke="#000000" stroke-width="1.0" stroke-linejoin="round" stroke-linecap="butt" d="m187.27667 9.908136l41.95276 0l0 37.07087l-41.95276 0z" fill-rule="evenodd"/><path fill="#000000" d="m200.1914 26.866068q0.953125 -1.171875 2.5 -1.171875q2.671875 0 2.703125 3.015625l0 5.593752l-1.453125 0l0 -5.593752q0 -0.921875 -0.421875 -1.359375q-0.40625 -0.4375 -1.265625 -0.4375q-0.703125 0 -1.234375 0.375q-0.53125 0.375 -0.828125 0.984375l0 6.031252l-1.453125 0l0 -12.000002l1.453125 0l0 4.5625z" fill-rule="nonzero"/><path fill="#000000" d="m208.48828 33.30357l0 1.375l1.046875 0l0 0.734375l-1.046875 0l0 3.5q0 0.328125 0.140625 0.5q0.140625 0.171875 0.484375 0.171875q0.15625 0 0.453125 -0.0625l0 0.78125q-0.375 0.109375 -0.734375 0.109375q-0.640625 0 -0.96875 -0.390625q-0.328125 -0.390625 -0.328125 -1.109375l0 -3.5l-1.03125 0l0 -0.734375l1.03125 0l0 -1.375l0.953125 0zm4.1840973 4.171875l-2.546875 0l0 -0.78125l2.546875 0l0 0.78125zm4.0023346 2.828125l-0.96875 0l0 -6.421875l-1.9375 0.71875l0 -0.875l2.75 -1.03125l0.15625 0l0 7.609375z" fill-rule="nonzero"/><path fill="#cfe2f3" d="m491.29663 10.371136l41.95276 0l0 37.070866l-41.95276 0z" fill-rule="evenodd"/><path stroke="#000000" stroke-width="1.0" stroke-linejoin="round" stroke-linecap="butt" d="m491.29663 10.371136l41.95276 0l0 37.070866l-41.95276 0z" fill-rule="evenodd"/><path fill="#000000" d="m508.67313 27.329067q0.953125 -1.171875 2.5 -1.171875q2.6719055 0 2.7031555 3.015625l0 5.59375l-1.453125 0l0 -5.59375q0 -0.921875 -0.421875 -1.359375q-0.40628052 -0.4375 -1.2656555 -0.4375q-0.703125 0 -1.234375 0.375q-0.53125 0.375 -0.828125 0.984375l0 6.03125l-1.453125 0l0 -12.0l1.453125 0l0 4.5625z" fill-rule="nonzero"/><path fill="#000000" d="m516.97003 33.766567l0 1.375l1.046875 0l0 0.734375l-1.046875 0l0 3.5q0 0.328125 0.140625 0.5q0.140625 0.171875 0.484375 0.171875q0.15625 0 0.453125 -0.0625l0 0.78125q-0.375 0.109375 -0.734375 0.109375q-0.640625 0 -0.96875 -0.390625q-0.328125 -0.390625 -0.328125 -1.109375l0 -3.5l-1.03125 0l0 -0.734375l1.03125 0l0 -1.375l0.953125 0z" fill-rule="nonzero"/><path fill="#cfe2f3" d="m778.68616 9.908136l46.834595 0l0 37.07087l-46.834595 0z" fill-rule="evenodd"/><path stroke="#000000" stroke-width="1.0" stroke-linejoin="round" stroke-linecap="butt" d="m778.68616 9.908136l46.834595 0l0 37.07087l-46.834595 0z" fill-rule="evenodd"/><path fill="#000000" d="m792.4912 26.866068q0.953125 -1.171875 2.5 -1.171875q2.671875 0 2.703125 3.015625l0 5.593752l-1.453125 0l0 -5.593752q0 -0.921875 -0.421875 -1.359375q-0.40625 -0.4375 -1.265625 -0.4375q-0.703125 0 -1.234375 0.375q-0.53125 0.375 -0.828125 0.984375l0 6.031252l-1.453125 0l0 -12.000002l1.453125 0l0 4.5625z" fill-rule="nonzero"/><path fill="#000000" d="m800.7881 33.30357l0 1.375l1.046875 0l0 0.734375l-1.046875 0l0 3.5q0 0.328125 0.140625 0.5q0.140625 0.171875 0.484375 0.171875q0.15625 0 0.453125 -0.0625l0 0.78125q-0.375 0.109375 -0.734375 0.109375q-0.640625 0 -0.96875 -0.390625q-0.328125 -0.390625 -0.328125 -1.109375l0 -3.5l-1.03125 0l0 -0.734375l1.03125 0l0 -1.375l0.953125 0zm4.934143 2.9375l2.109375 0l0 0.90625l-2.109375 0l0 2.390625l-0.96875 0l0 -2.390625l-2.109375 0l0 -0.90625l2.109375 0l0 -2.21875l0.96875 0l0 2.21875zm6.3534546 4.0625l-0.96875 0l0 -6.421875l-1.9375 0.71875l0 -0.875l2.75 -1.03125l0.15625 0l0 7.609375z" fill-rule="nonzero"/><path fill="#d9ead3" d="m7.809488 258.45932l41.95276 0l0 37.07086l-41.95276 0z" fill-rule="evenodd"/><path stroke="#000000" stroke-width="1.0" stroke-linejoin="round" stroke-linecap="butt" d="m7.809488 258.45932l41.95276 0l0 37.07086l-41.95276 0z" fill-rule="evenodd"/><path fill="#000000" d="m22.59922 275.8391l2.734375 -4.359375l1.765625 0l-3.59375 5.640625l3.671875 5.734375l-1.78125 0l-2.796875 -4.4375l-2.8125 4.4375l-1.765625 0l3.6875 -5.734375l-3.609375 -5.640625l1.765625 0l2.734375 4.359375z" fill-rule="nonzero"/><path fill="#000000" d="m29.63047 281.85474l0 1.375l1.046875 0l0 0.734375l-1.046875 0l0 3.5q0 0.328125 0.140625 0.5q0.140625 0.171875 0.484375 0.171875q0.15625 0 0.453125 -0.0625l0 0.78125q-0.375 0.109375 -0.734375 0.109375q-0.640625 0 -0.96875 -0.390625q-0.328125 -0.390625 -0.328125 -1.109375l0 -3.5l-1.03125 0l0 -0.734375l1.03125 0l0 -1.375l0.953125 0zm4.1840973 4.171875l-2.546875 0l0 -0.78125l2.546875 0l0 0.78125zm4.0023346 2.828125l-0.96875 0l0 -6.421875l-1.9375 0.71875l0 -0.875l2.75 -1.03125l0.15625 0l0 7.609375z" fill-rule="nonzero"/><path fill="#d9ead3" d="m311.9003 258.9223l41.95276 0l0 37.070892l-41.95276 0z" fill-rule="evenodd"/><path stroke="#000000" stroke-width="1.0" stroke-linejoin="round" stroke-linecap="butt" d="m311.9003 258.9223l41.95276 0l0 37.070892l-41.95276 0z" fill-rule="evenodd"/><path fill="#000000" d="m331.15182 276.30212l2.734375 -4.359375l1.765625 0l-3.59375 5.640625l3.671875 5.734375l-1.78125 0l-2.796875 -4.4375l-2.8125 4.4375l-1.765625 0l3.6875 -5.734375l-3.609375 -5.640625l1.765625 0l2.734375 4.359375z" fill-rule="nonzero"/><path fill="#000000" d="m338.18307 282.31775l0 1.375l1.046875 0l0 0.734375l-1.046875 0l0 3.5q0 0.328125 0.140625 0.5q0.140625 0.171875 0.484375 0.171875q0.15625 0 0.453125 -0.0625l0 0.78125q-0.375 0.109375 -0.734375 0.109375q-0.640625 0 -0.96875 -0.390625q-0.328125 -0.390625 -0.328125 -1.109375l0 -3.5l-1.03125 0l0 -0.734375l1.03125 0l0 -1.375l0.953125 0z" fill-rule="nonzero"/><path fill="#d9ead3" d="m603.5129 258.45932l46.834656 0l0 37.07086l-46.834656 0z" fill-rule="evenodd"/><path stroke="#000000" stroke-width="1.0" stroke-linejoin="round" stroke-linecap="butt" d="m603.5129 258.45932l46.834656 0l0 37.07086l-46.834656 0z" fill-rule="evenodd"/><path fill="#000000" d="m619.193 275.8391l2.734375 -4.359375l1.765625 0l-3.59375 5.640625l3.671875 5.734375l-1.78125 0l-2.796875 -4.4375l-2.8125 4.4375l-1.765625 0l3.6875 -5.734375l-3.609375 -5.640625l1.765625 0l2.734375 4.359375z" fill-rule="nonzero"/><path fill="#000000" d="m626.22424 281.85474l0 1.375l1.046875 0l0 0.734375l-1.046875 0l0 3.5q0 0.328125 0.140625 0.5q0.140625 0.171875 0.484375 0.171875q0.15625 0 0.453125 -0.0625l0 0.78125q-0.375 0.109375 -0.734375 0.109375q-0.640625 0 -0.96875 -0.390625q-0.328125 -0.390625 -0.328125 -1.109375l0 -3.5l-1.03125 0l0 -0.734375l1.03125 0l0 -1.375l0.953125 0zm4.934143 2.9375l2.109375 0l0 0.90625l-2.109375 0l0 2.390625l-0.96875 0l0 -2.390625l-2.109375 0l0 -0.90625l2.109375 0l0 -2.21875l0.96875 0l0 2.21875zm6.3534546 4.0625l-0.96875 0l0 -6.421875l-1.9375 0.71875l0 -0.875l2.75 -1.03125l0.15625 0l0 7.609375z" fill-rule="nonzero"/><path fill="#f1c232" d="m413.37274 133.38164l34.04724 0l0 27.685043l-34.04724 0z" fill-rule="evenodd"/><path stroke="#000000" stroke-width="1.0" stroke-linejoin="round" stroke-linecap="butt" d="m413.37274 133.38164l34.04724 0l0 27.685043l-34.04724 0z" fill-rule="evenodd"/><path fill="#000000" d="m427.1151 146.20166l5.0625 -5.0625l0 9.9375l2.8125 -2.15625l0.375 0.375l-3.5625 5.34375l-0.09375 0l-3.5625 -5.34375l0.375 -0.375l2.8125 2.15625l0 -7.875l-5.0625 5.0625l0 -8.71875l0.84375 0l0 6.65625z" fill-rule="nonzero"/><path fill="#000000" fill-opacity="0.0" d="m670.3108 252.90027l187.30707 0l0 32.188965l-187.30707 0z" fill-rule="evenodd"/><path fill="#000000" d="m681.65454 275.37778l5.0625 -5.0625l0 9.9375l2.8125 -2.15625l0.375 0.375l-3.5625 5.34375l-0.09375 0l-3.5625 -5.34375l0.375 -0.375l2.8125 2.15625l0 -7.875l-5.0625 5.0625l0 -8.71875l0.84375 0l0 6.65625z" fill-rule="nonzero"/><path fill="#000000" d="m698.2639 278.5809l-6.515625 0l0 -1.265625l6.515625 0l0 1.265625zm0 3.234375l-6.515625 0l0 -1.25l6.515625 0l0 1.25zm11.3515625 3.125q-0.125 -0.25 -0.203125 -0.890625q-1.0 1.046875 -2.40625 1.046875q-1.25 0 -2.046875 -0.703125q-0.796875 -0.71875 -0.796875 -1.796875q0 -1.328125 1.0 -2.046875q1.0 -0.734375 2.828125 -0.734375l1.40625 0l0 -0.671875q0 -0.75 -0.453125 -1.203125q-0.453125 -0.453125 -1.34375 -0.453125q-0.765625 0 -1.296875 0.390625q-0.515625 0.390625 -0.515625 0.953125l-1.453125 0q0 -0.640625 0.4375 -1.21875q0.453125 -0.59375 1.21875 -0.9375q0.78125 -0.34375 1.703125 -0.34375q1.453125 0 2.28125 0.734375q0.828125 0.71875 0.859375 2.0l0 3.890625q0 1.171875 0.296875 1.859375l0 0.125l-1.515625 0zm-2.390625 -1.109375q0.671875 0 1.28125 -0.34375q0.609375 -0.359375 0.890625 -0.921875l0 -1.734375l-1.140625 0q-2.65625 0 -2.65625 1.5625q0 0.671875 0.453125 1.0625q0.453125 0.375 1.171875 0.375zm9.265625 0.078125q0.78125 0 1.359375 -0.46875q0.578125 -0.46875 0.640625 -1.171875l1.359375 0q-0.03125 0.734375 -0.5 1.390625q-0.453125 0.65625 -1.234375 1.046875q-0.765625 0.390625 -1.625 0.390625q-1.71875 0 -2.75 -1.15625q-1.015625 -1.15625 -1.015625 -3.15625l0 -0.234375q0 -1.234375 0.453125 -2.1875q0.453125 -0.96875 1.296875 -1.5q0.859375 -0.53125 2.015625 -0.53125q1.421875 0 2.359375 0.859375q0.9375 0.84375 1.0 2.203125l-1.359375 0q-0.0625 -0.828125 -0.625 -1.34375q-0.5625 -0.53125 -1.375 -0.53125q-1.109375 0 -1.71875 0.796875q-0.59375 0.78125 -0.59375 2.28125l0 0.28125q0 1.453125 0.59375 2.25q0.609375 0.78125 1.71875 0.78125zm6.953125 -9.46875l0 2.046875l1.578125 0l0 1.109375l-1.578125 0l0 5.25q0 0.5 0.203125 0.765625q0.21875 0.25 0.71875 0.25q0.25 0 0.6875 -0.09375l0 1.171875q-0.5625 0.15625 -1.109375 0.15625q-0.96875 0 -1.46875 -0.578125q-0.484375 -0.59375 -0.484375 -1.671875l0 -5.25l-1.53125 0l0 -1.109375l1.53125 0l0 -2.046875l1.453125 0zm4.8359375 10.5l-1.453125 0l0 -8.453125l1.453125 0l0 8.453125zm-1.5625 -10.703125q0 -0.34375 0.203125 -0.578125q0.21875 -0.25 0.640625 -0.25q0.421875 0 0.640625 0.25q0.21875 0.234375 0.21875 0.59375q0 0.34375 -0.21875 0.578125q-0.21875 0.234375 -0.640625 0.234375q-0.421875 0 -0.640625 -0.234375q-0.203125 -0.234375 -0.203125 -0.59375zm6.6640625 8.734375l2.09375 -6.484375l1.46875 0l-3.03125 8.453125l-1.09375 0l-3.0625 -8.453125l1.46875 0l2.15625 6.484375zm10.171875 1.96875q-0.125 -0.25 -0.203125 -0.890625q-1.0 1.046875 -2.40625 1.046875q-1.25 0 -2.046875 -0.703125q-0.796875 -0.71875 -0.796875 -1.796875q0 -1.328125 1.0 -2.046875q1.0 -0.734375 2.828125 -0.734375l1.40625 0l0 -0.671875q0 -0.75 -0.453125 -1.203125q-0.453125 -0.453125 -1.34375 -0.453125q-0.765625 0 -1.296875 0.390625q-0.515625 0.390625 -0.515625 0.953125l-1.453125 0q0 -0.640625 0.4375 -1.21875q0.453125 -0.59375 1.21875 -0.9375q0.78125 -0.34375 1.703125 -0.34375q1.453125 0 2.28125 0.734375q0.828125 0.71875 0.859375 2.0l0 3.890625q0 1.171875 0.296875 1.859375l0 0.125l-1.515625 0zm-2.390625 -1.109375q0.671875 0 1.28125 -0.34375q0.609375 -0.359375 0.890625 -0.921875l0 -1.734375l-1.140625 0q-2.65625 0 -2.65625 1.5625q0 0.671875 0.453125 1.0625q0.453125 0.375 1.171875 0.375zm7.84375 -9.390625l0 2.046875l1.578125 0l0 1.109375l-1.578125 0l0 5.25q0 0.5 0.203125 0.765625q0.21875 0.25 0.71875 0.25q0.25 0 0.6875 -0.09375l0 1.171875q-0.5625 0.15625 -1.109375 0.15625q-0.96875 0 -1.46875 -0.578125q-0.484375 -0.59375 -0.484375 -1.671875l0 -5.25l-1.53125 0l0 -1.109375l1.53125 0l0 -2.046875l1.453125 0zm4.8359375 10.5l-1.453125 0l0 -8.453125l1.453125 0l0 8.453125zm-1.5625 -10.703125q0 -0.34375 0.203125 -0.578125q0.21875 -0.25 0.640625 -0.25q0.421875 0 0.640625 0.25q0.21875 0.234375 0.21875 0.59375q0 0.34375 -0.21875 0.578125q-0.21875 0.234375 -0.640625 0.234375q-0.421875 0 -0.640625 -0.234375q-0.203125 -0.234375 -0.203125 -0.59375zm3.4921875 6.390625q0 -1.234375 0.484375 -2.21875q0.484375 -1.0 1.359375 -1.53125q0.875 -0.546875 1.984375 -0.546875q1.734375 0 2.796875 1.203125q1.0625 1.1875 1.0625 3.171875l0 0.09375q0 1.234375 -0.46875 2.21875q-0.46875 0.984375 -1.359375 1.53125q-0.875 0.546875 -2.015625 0.546875q-1.71875 0 -2.78125 -1.1875q-1.0625 -1.203125 -1.0625 -3.171875l0 -0.109375zm1.453125 0.171875q0 1.40625 0.640625 2.265625q0.65625 0.84375 1.75 0.84375q1.109375 0 1.75 -0.859375q0.65625 -0.859375 0.65625 -2.421875q0 -1.390625 -0.671875 -2.25q-0.65625 -0.859375 -1.75 -0.859375q-1.0625 0 -1.71875 0.859375q-0.65625 0.84375 -0.65625 2.421875zm9.421875 -4.3125l0.046875 1.0625q0.96875 -1.21875 2.53125 -1.21875q2.671875 0 2.703125 3.015625l0 5.59375l-1.453125 0l0 -5.59375q0 -0.921875 -0.421875 -1.359375q-0.40625 -0.4375 -1.265625 -0.4375q-0.703125 0 -1.234375 0.375q-0.53125 0.375 -0.828125 0.984375l0 6.03125l-1.453125 0l0 -8.453125l1.375 0zm12.1328125 8.453125l0 -7.34375l-1.34375 0l0 -1.109375l1.34375 0l0 -0.875q0 -1.359375 0.71875 -2.09375q0.734375 -0.75 2.0625 -0.75q0.5 0 0.984375 0.140625l-0.078125 1.171875q-0.359375 -0.078125 -0.78125 -0.078125q-0.703125 0 -1.09375 0.421875q-0.375 0.40625 -0.375 1.171875l0 0.890625l1.8125 0l0 1.109375l-1.8125 0l0 7.34375l-1.4375 0zm10.0546875 -0.84375q-0.84375 1.0 -2.46875 1.0q-1.359375 0 -2.0625 -0.78125q-0.703125 -0.796875 -0.71875 -2.328125l0 -5.5l1.453125 0l0 5.453125q0 1.921875 1.5625 1.921875q1.65625 0 2.203125 -1.234375l0 -6.140625l1.4375 0l0 8.453125l-1.375 0l-0.03125 -0.84375zm4.9765625 -7.609375l0.046875 1.0625q0.96875 -1.21875 2.53125 -1.21875q2.671875 0 2.703125 3.015625l0 5.59375l-1.453125 0l0 -5.59375q0 -0.921875 -0.421875 -1.359375q-0.40625 -0.4375 -1.265625 -0.4375q-0.703125 0 -1.234375 0.375q-0.53125 0.375 -0.828125 0.984375l0 6.03125l-1.453125 0l0 -8.453125l1.375 0zm10.84375 7.421875q0.78125 0 1.359375 -0.46875q0.578125 -0.46875 0.640625 -1.171875l1.359375 0q-0.03125 0.734375 -0.5 1.390625q-0.453125 0.65625 -1.234375 1.046875q-0.765625 0.390625 -1.625 0.390625q-1.71875 0 -2.75 -1.15625q-1.015625 -1.15625 -1.015625 -3.15625l0 -0.234375q0 -1.234375 0.453125 -2.1875q0.453125 -0.96875 1.296875 -1.5q0.859375 -0.53125 2.015625 -0.53125q1.421875 0 2.359375 0.859375q0.9375 0.84375 1.0 2.203125l-1.359375 0q-0.0625 -0.828125 -0.625 -1.34375q-0.5625 -0.53125 -1.375 -0.53125q-1.109375 0 -1.71875 0.796875q-0.59375 0.78125 -0.59375 2.28125l0 0.28125q0 1.453125 0.59375 2.25q0.609375 0.78125 1.71875 0.78125zm6.953125 -9.46875l0 2.046875l1.578125 0l0 1.109375l-1.578125 0l0 5.25q0 0.5 0.203125 0.765625q0.21875 0.25 0.71875 0.25q0.25 0 0.6875 -0.09375l0 1.171875q-0.5625 0.15625 -1.109375 0.15625q-0.96875 0 -1.46875 -0.578125q-0.484375 -0.59375 -0.484375 -1.671875l0 -5.25l-1.53125 0l0 -1.109375l1.53125 0l0 -2.046875l1.453125 0zm4.8359375 10.5l-1.453125 0l0 -8.453125l1.453125 0l0 8.453125zm-1.5625 -10.703125q0 -0.34375 0.203125 -0.578125q0.21875 -0.25 0.640625 -0.25q0.421875 0 0.640625 0.25q0.21875 0.234375 0.21875 0.59375q0 0.34375 -0.21875 0.578125q-0.21875 0.234375 -0.640625 0.234375q-0.421875 0 -0.640625 -0.234375q-0.203125 -0.234375 -0.203125 -0.59375zm3.4921875 6.390625q0 -1.234375 0.484375 -2.21875q0.484375 -1.0 1.359375 -1.53125q0.875 -0.546875 1.984375 -0.546875q1.734375 0 2.796875 1.203125q1.0625 1.1875 1.0625 3.171875l0 0.09375q0 1.234375 -0.46875 2.21875q-0.46875 0.984375 -1.359375 1.53125q-0.875 0.546875 -2.015625 0.546875q-1.71875 0 -2.78125 -1.1875q-1.0625 -1.203125 -1.0625 -3.171875l0 -0.109375zm1.453125 0.171875q0 1.40625 0.640625 2.265625q0.65625 0.84375 1.75 0.84375q1.109375 0 1.75 -0.859375q0.65625 -0.859375 0.65625 -2.421875q0 -1.390625 -0.671875 -2.25q-0.65625 -0.859375 -1.75 -0.859375q-1.0625 0 -1.71875 0.859375q-0.65625 0.84375 -0.65625 2.421875zm9.421875 -4.3125l0.046875 1.0625q0.96875 -1.21875 2.53125 -1.21875q2.671875 0 2.703125 3.015625l0 5.59375l-1.453125 0l0 -5.59375q0 -0.921875 -0.421875 -1.359375q-0.40625 -0.4375 -1.265625 -0.4375q-0.703125 0 -1.234375 0.375q-0.53125 0.375 -0.828125 0.984375l0 6.03125l-1.453125 0l0 -8.453125l1.375 0z" fill-rule="nonzero"/></g></svg>